<?xml version="1.0" encoding="utf-8"?>
<!-- Generator: Adobe Illustrator 27.5.0, SVG Export Plug-In . SVG Version: 6.00 Build 0)  -->
<svg version="1.1" id="hlavicek_xA0_Image_00000064331515801533809080000001439563299109854087_"
	 xmlns="http://www.w3.org/2000/svg" xmlns:xlink="http://www.w3.org/1999/xlink" x="0px" y="0px" viewBox="0 0 116.4 127"
	 style="enable-background:new 0 0 116.4 127;" xml:space="preserve">
<style type="text/css">
	.st0{fill:#FFFFFF;}
</style>
<path d="M54.8,100.7c-3.5-6.6,1.3-3.1,3.4-0.2c1.6,0.6,6.4,4.7,9.3,4c1,3.1,11.7,2.5,9.5-3.5c0.5-0.7,4.4-3.1,3.1-3.3
	c-2.6-0.2-1.7-3,0.4-2.7c1,1.6,1.9-0.2,3.1,0.7c0.3-4.8-1.8-5.4,4.4-6c1.2-3.7-2.9-9.3-1.8-11.2c-0.9-3.7,2.2-7.9-3.4-7.9
	c0-1.8,5.5-0.7,4.1,0.8c3.9-7.5,4.8-12.9,4.2-18.1c0.5-3.1-6.3,7.3-8.8,8.7c-3,3.2-6.7,4.2-10.3,6.9c-14.6,3-11.7,10.9-11.1,20.4
	c-5.5,1.4-2.4-11.6-9.1-7.2c-3.7-5.9-1.5,8-1.6,10c0.2,4.1-0.2,8.5-2.5,13.7c-4.4,4.4-2.4-6.5-3-9.3c-1.2,1.9-0.9,4.7-3.7,5.1
	c-2.4-1.1,0-9.6-2-8.1c-1.7,2-2.9,7.5-5.7,4.9c-0.4,2.1-1.7,2.5-3,0.8c0.5-1.2,2.3-3.8,2.1-5.2c1.9-1.2-0.2-5.9-1.3-8.7
	c-1.3,2.6-1.9,6.9-5,8.3c1.1-11.6-10.1-26.9-8.1-37.8C15.4,16.9,62.2,10.7,81.5,31c14.6,13.4,14.7,24.1,14.6,42.1
	c0.3,3.9,1.7,9,3.1,14.9c1.3,1.7,9.2,13.4,2.8,10.2c-4.2-4.3-8.1-5-11.3-12.1c-4.1-7,2.1,3.1-1.1,5.6c-5.7,0.6-1.9,2.6-5.2,5.7
	c-4.3,6.4-3.5-0.8-5.7,7.8c-7.1,9.4-14.1-3.1-18.8,2.7c-3.6,5.4-4.4,0.3-0.3-2.7C58.1,102.7,56.4,102.5,54.8,100.7z M50,72
	c-0.8-5.7,3.7-8.5,7.1-5.6c1.4,3.5,4.3,2.9,7.9,2.7C75.3,66.6,88,56.2,90.5,45.9c-6.7-10.2-15.7-20.6-25.8-21.7
	c-35-13.1-56.9,23.7-37.3,58.5c0.2,2-0.2,3.9,0.7,5.5c0.5-5.9,2.4-9.6,5.5-2.7c1.8,3.8,2.3,11.9,3.5,5.1c-0.2-2.4,0.5-3.2-0.4-5.7
	c-0.5-2.2,3.9-1.6,2.4,0c0.8,2,2.4,9.1,3.5,10c2-9.4,4.4-1.8,4.4,3.4c2.1-3.4,0-10.4-0.1-14.3C47.6,80.5,48.5,75.1,50,72z
	 M94.6,75.8c-2.7-6.9,2.3-26.2-4.3-6.2c-4.1,7.1-0.4,11.1,3,16.9c0.8,0.9-0.6-2-0.2-2.6c3.3-2.2,2.7,5.6,4.3,4.9
	C101,96.6,93,77.2,94.6,75.8z M52,71.7c0.4,3.4-1.6,11.4,3.1,6.3C56.4,72.6,54.1,61.5,52,71.7z M59,70.9c-1.4,3.9-1.8,10.6-0.2,2.8
	C59.7,72,61.2,71.7,59,70.9z"/>
<path d="M82.5,76.1c0.3-0.5,0.5-1.1,0.8-1.6c0-0.1,0.1-0.2,0.2-0.3c0.3-0.2,0.5-0.5,0.3-1c0.2-0.1,0.3-0.1,0.4-0.2
	c0.2,0,0.5-0.1,0.5,0c0.1,0.2,0.3,0.6,0.2,0.7c-0.3,0.6-0.4,1.3-1,1.6c-0.1,0.1-0.1,0.4-0.2,0.7c0.3,0,0.5,0,0.7,0
	c0.3,0,0.9,0.2,0.8,0.4c0,0.3-0.2,0.6-0.4,0.9c-0.1,0.1-0.4-0.1-0.7-0.3c-0.3,0.3-0.7,0.5-1-0.1c0,0-0.1,0.1-0.1,0.1
	c0,0.2,0,0.4,0,0.6c-0.1,0.3-0.2,0.5-0.3,0.8c0,0.1-0.2,0.1-0.2,0.1c-0.7-0.2-1.6-0.2-2.2-0.7c-0.1-0.1-0.2-0.2-0.4-0.2
	c-0.6-0.2-0.6-0.2-0.3-0.8c0-0.1,0-0.1,0.1-0.2c-0.1-0.1-0.2-0.1-0.3-0.2c-0.7-0.4-0.8-1-0.2-1.6c0.1-0.1,0.3-0.1,0.5,0
	c0.5,0.2,0.9,0.5,1.4,0.7c0.1,0,0.1,0.1,0.2,0.1c0.5-0.3,0.8,0.2,1.2,0.4C82.4,76.1,82.4,76,82.5,76.1z"/>
<path d="M80.9,68.8c0.4,0.2,0.8,0.3,1.2,0.5c0.1,0.1,0.2,0.3,0.2,0.4c-0.2,0.5-0.4,0.9-0.7,1.3c-0.4-0.2-0.6-0.6-0.5-0.9
	c0.1-0.4,0-0.7-0.1-1.1C80.9,69,80.9,68.9,80.9,68.8z"/>
<path d="M79.6,70.3c-0.1-0.1-0.4-0.1-0.5-0.2c-0.1-0.1,0.1-0.3,0.2-0.5c0-0.1,0.1-0.2,0.2-0.2c0.2-0.1,0.5-0.2,0.6-0.2
	c0.2,0.1,0.3,0.4,0.3,0.7c0,0.1-0.3,0.3-0.4,0.4C79.9,70.3,79.7,70.3,79.6,70.3z"/>
<path d="M62.4,90.7c0.1,0.2,0.2,0.4,0.3,0.5c-0.1,0-0.2,0.1-0.3,0.1c-0.1-0.2-0.1-0.4-0.2-0.6C62.2,90.8,62.3,90.8,62.4,90.7z"/>
<path d="M23.9,92.3c0.2-0.1,0.4-0.2,0.6-0.4c0,0,0.1,0.1,0.1,0.1C24.5,92.3,24.3,92.5,23.9,92.3z"/>
<path class="st0" d="M59,70.9c0.2,0.3,0.4,0.7,0.7,0.2c0.1,0,0.1,0.1,0.2,0.1c0.5,0.4,0.4,0.3,0,0.8c-0.4,0.5-0.9,0.9-1.2,1.6
	c-0.4,0.9-0.4,1.8-0.5,2.8c0,0.2-0.1,0.4-0.2,0.5c-0.2,0.4-0.3,0.7-0.5,1.2c0-0.2,0-0.4,0-0.5c0.1-0.8,0.2-1.5,0.3-2.3
	c0.1-0.4,0.3-0.7,0.4-1.1c0-0.1,0.1-0.3,0.1-0.3c-0.3-0.7,0.1-1.2,0.4-1.8c0-0.1,0.1-0.1,0.1-0.2C58.9,71.7,58.9,71.4,59,70.9z"/>
<path class="st0" d="M95.6,86.2"/>
<path d="M54.9,73.3c0.1,0.2,0.2,0.4,0.3,0.5c0.2,0.3,0.2,0.5-0.2,0.7c-0.2,0.1-0.4,0.5-0.5,0.8c0,0.1,0.2,0.4,0.3,0.4
	c0.4,0,0.4,0.3,0.5,0.6c0.1,0.3-0.1,0.4-0.3,0.5c-0.6,0.4-0.6,0.3-1.1-0.1c-0.6-0.6-0.9-1.1-0.3-1.8c-0.2-0.5,0.2-0.8,0.5-1.1
	C54.3,73.6,54.6,73.5,54.9,73.3z"/>
</svg>
