<?xml version="1.0" encoding="utf-8"?>
<!-- Generator: Adobe Illustrator 27.5.0, SVG Export Plug-In . SVG Version: 6.00 Build 0)  -->
<svg version="1.1" id="ilu-kralicek_xA0_Image_00000052093900082308532630000007692966781012734858_"
	 xmlns="http://www.w3.org/2000/svg" xmlns:xlink="http://www.w3.org/1999/xlink" x="0px" y="0px" viewBox="0 0 418.5 377.7"
	 style="enable-background:new 0 0 418.5 377.7;" xml:space="preserve">
<style type="text/css">
	.st0{fill:none;stroke:#000000;stroke-width:2;stroke-linecap:round;stroke-linejoin:round;stroke-miterlimit:10;}
</style>
<g>
	<path d="M107.4,324.4c-0.7-3.6-1.2-6.9-0.5-10.4c0.6-3.5,1.7-6.8,2.7-10.5c-5.4,2.4-10.6,3.6-16.2,4c-8.1,0.6-14.4-2.9-20.4-7.3
		c-1.4-1.1-2.1-3.2-3.1-4.8c-0.6-1-1.3-2-1.9-3c-2.7-4.7-3.7-10-5.1-15.2c-1.2-4.5-1.4-9.2-1.9-13.9c-0.2-2-0.4-4.1-0.5-6
		c0-2.2-0.7-4.5,0.1-6.7c0.5-1.6,0.1-3.4-0.1-4.9c-0.4-3.4,0.4-6.6,0.4-9.9c0-2.3,0.7-4.8,1-7.2c0.4-2.6,0.7-5.2,0.9-7.9
		c0.5-7.4,0.5-14.8,2.4-22c0.9-3.2,1.1-6.7,1.7-10.1c0.3-2,1-3.9,1.4-5.9c0.7-3.8,1-7.6,1.9-11.3c1-4.3,2.4-8.5,3.6-12.7
		c0.9-3,1.7-6.1,2.6-9.1c0.7-2.1,1.5-4.1,2.3-6.1c2.2-6,6-10.8,10.5-15.3c3.9-3.9,8.3-7.1,12.8-10.1c4.7-3.2,9-7.1,13.3-10.9
		c2.1-1.9,4-4,6.1-5.9c2.7-2.6,2.1-6,2-9.4c-2.3,2.4-4.1,5.1-7.4,6.1c-0.8-2.6,0.7-4.5,1.5-6.4c1.8-4.2,1.3-8.6,1-12.9
		c-0.2-3.2-0.3-6.3-0.1-9.4c0.2-2.7,0.7-5.4,1.7-7.8c1.4-3.3,2.6-6.6,4.5-9.7c1.7-2.8,3.6-5.5,5.8-7.9c3.2-3.5,7.2-5.8,11.6-7.4
		c2.2-0.8,4.6-1.5,7.2-1.5c3.1,0.1,6.1-0.5,9.2,0c2.8,0.5,5.6,0.6,7.8,2.6c0.3,0.2,0.6,0.4,1,0.5c4.8,1.1,8.3,4.4,12.2,7
		c2.5,1.6,4,4.1,6,6.2c2.2,2.3,3.5,5.2,5.1,7.9c1.3,2.2,1.3,4.7,2.2,7c0.8,2,1.1,4.3,1.7,6.3c1.8,6.1,0.6,11.8-1.4,17.7
		c-2.3,7-5.2,13.8-5.9,21.3c-0.5,5.5,0.1,10.8,1.2,16.1c0.1,0.6,0.2,1.2-0.1,1.8c-1.5,0.4-2.3,0-2.9-1.5c-0.7-1.7-1.6-3.3-2.9-4.9
		c-1.2-1.5-2.1-3.7-2.5-5.8c-0.5-2.4-0.9-4.8-1.2-7.2c-0.3,1.6-0.1,3.2-0.4,4.9c-0.5,2.4-2.2,3.6-4.5,2.8c-1.2-0.4-1.6-0.1-1.8,1.1
		c-0.2,1.2-0.7,2.3-2.2,2.5c-0.8,0.1-1.4,0.7-1.9,1.3c-0.6,0.6-1.5,1-2.1,0.8c-1.7-0.6-2.2,0.1-2.8,1.5c-1.1,2.8-4.8,3.7-8.1,3.2
		c-3.5-0.6-5.8-3-8-5.4c-1.1-1.2-2-0.9-3.1-0.4c-3.1,1.5-5.1,4.3-8,6.1c-0.6,0.4-0.6,0.9,0,1.5c4.2,4.1,6.9,9.2,8.9,14.7
		c1.5,4.2,4,8,6.7,11.4c2.9,3.7,6.6,6.8,9.9,10.1c1.1,1.1,1.9,2.3,3.1,3.2c0.9,0.7,1.6,0.9,2.4,0.2c3.6-3.1,8.1-4,12.5-4.9
		c5.3-1,11.3,3.2,12.9,8.4c1.9,6.4,1.1,12.6-0.2,18.9c-0.2,1-0.8,1.9-1.2,2.8c-0.6,1.2-0.1,2.2,0.8,3c3.3,2.9,6.3,6.1,9.4,9.1
		c2.9,2.7,6.2,5,9.5,7.3c4.2,2.9,8.5,5.6,12.6,8.5c2.4,1.6,4.9,3.1,7.4,4.6c3.2,1.9,6.4,3.8,9.4,6c2.4,1.8,4.8,3.6,7.4,5.2
		c4.3,2.6,8.5,5.4,12.4,8.5c1.9,1.6,4,2.9,6,4.5c2.5,1.9,5.5,3.4,7.7,5.7c2.3,2.4,5.5,3.4,8.4,4.9c2.1,1.1,3.8,2.5,5.7,3.8
		c0.4,0.3,0.5,0.7,0.4,1.1c-0.2,0.9,0,1.6,0.7,2.2c0.8,0.6,0.3,1.5-0.2,1.9c-0.7,0.7-1.5,1.6-2.8,1.1c-2.6-1-4.5-2.9-7-4.1
		c-3.2-1.5-5.7-4.2-9-5.3c-3.7-1.2-7.5-1.9-11.3-3.1c0,0.8,0,1.3,0.4,1.8c1.8,1.8,2.6,4.3,4,6.4c0.9,1.4,0.5,3.7-0.6,4.4
		c-1.1,0.8-3.5,0.4-4.5-0.9c-2.3-2.8-4.1-5.9-6.2-8.8c-2.5-3.6-4.7-7.6-8.1-10.5c-2.5-2.2-5.4-4.1-8.7-5.3c-5-1.8-10-3.7-14.8-5.8
		c-3.1-1.3-5.9-3.2-8.8-4.8c-4.3-2.2-8.3-4.8-12.4-7.5c-4.5-2.9-9.3-5.4-13.4-8.9c-1.6-1.4-3.7-2-5-3.9c-0.5,0.6-0.9,0.9-1.1,1.5
		c-2,4.5-5.2,8.2-7.5,12.6c-1.8,3.5-4.1,6.8-5.8,10.5c-2.5,5.3-5.5,10.5-8,15.8c-2,4.2-4.3,8.2-5.4,12.7c-1,3.8-3.1,7.1-4,10.9
		c-0.6,2.5-0.9,5.2-1.7,7.7c-1.3,4,1.3,6.2,3.8,8.1c2.6,1.9,5.3,3.8,8,5.6c4.2,2.7,8.6,5.1,13,7.4c2.3,1.2,4.5,2.7,6,5.1
		c1.7,2.7,1.1,4.5-1.9,5.7c-3.7,1.5-7.6,1.5-11.5,1c-2.1-0.3-4.2-0.3-6.3-0.4c-0.9,0-1.8,0.1-2.7-0.3c2.2,1.6,4.4,3.1,6,5.3
		c0.7,1,0.6,2,0,2.8c-1.9,2.6-3.8,4.6-7.7,4.4c-3.5-0.2-7.1,0.2-10.7,0.1c-4.3-0.1-8.5-0.4-12.7-1.1c-2.4-0.4-4.7-1.8-7.2-2.5
		c-2.4-0.6-5-0.5-7.3-1.1c-2.4-0.6-4.9-1-7-2.4C108.3,324.5,107.7,324.6,107.4,324.4z M149.4,91.9c0.8-0.9,0.9-2,1.1-3.1
		c0.3-1.7,0.3-3.6,1.7-5c-1.3-1.3-2.1-1.2-3.1,0.4c-0.9,1.5-1.8,3-2.4,4.6c-0.5,1.6-2.3,3.2-0.7,5.2c0.8-0.3,1.5-0.5,2.4,0.5
		C148.5,93.2,149.3,92.7,149.4,91.9L149.4,91.9z M156.8,204.4c-1.6,0.6-1.5,2.1-2,3.2c-0.6,1.3-1.6,2.1-3,1.7
		c-1.3-0.3-1.8-1.3-1.6-2.6c0.1-0.9,0-1.8,0.1-2.7c0.5-4.6,1.1-9.2-0.3-13.7c0.2,1.6-0.2,3.2-0.4,4.9c-0.4,3.2-0.6,6.3-1.2,9.5
		c-0.3,1.5-1.5,2.2-3,2.2c-1.4-3.1-1.2-2.5-1-6.1c0.2-4-1-7.9-0.4-11.8c0.2-1.8-0.5-3.7-1.7-5c-2.1-2.3-4-4.6-6-6.9
		c-0.7-0.8-1.3-0.7-2.1-0.2c-4.8,2.6-7.6,7.2-11.4,10.8c-2.3,2.2-4.4,4.6-6.1,7.2c-3.5,5.3-7.5,10.3-11.5,15.3
		c-5.1,6.3-10,12.7-14.5,19.5c-3,4.5-5.9,9-9,13.4c-2.5,3.5-4.4,7.3-6.3,11c-1.3,2.6-2.8,5.2-3.3,8.2c-0.5,0-1,0.2-1.6-0.2
		c-0.1-0.6-0.1-1.3-0.2-2c-0.1,0-0.2,0-0.3,0c-0.5,1.3-1.1,2.7-1.6,4.1c-0.6,0-1.2-0.1-1.8-0.1c-0.3-0.6-0.3-1.1-0.2-1.5
		c1-2.6,2-5.2,3.8-7.2c2.3-2.4,4.6-4.7,5.8-8c0.3-0.7,0.5-1.1,0-1.9c-1.1-1.5-1.8-3.2-1.7-5.2c0-1.1-0.5-1.9-1.8-2.1
		c-3.1-0.5-6.2-0.5-9.3,0.1c0,2.7-0.5,5.1-0.5,7.7c0.1,5.4-0.1,10.8,0.4,16.2c0.1,1.5-0.2,3.2,0.2,4.4c0.6,1.8,0.5,3.7,0.8,5.5
		c1,5.5,2.4,10.8,4.2,16c0.6,1.9,2.1,3.4,3,5.1c1.8,3.3,3.5,6.4,7,8.3c3.9,2.1,7.8,4.5,12.4,4.2c2.5-0.2,4.9-0.2,7.4-0.3
		c0.4,0,0.7-0.1,1.1-0.2c3.7-0.8,7.1-2.7,10.5-3.6c1.4-3.3,1.5-6.7,2.4-9.9c0.8-3.2,1.2-6.6,1.6-9.9c0.3-2.7,1-5.4,1.2-8.2
		c0.2-2.9,0.6-5.9,0.8-8.8c0.3-4.2,1.1-8.3,1.3-12.5c0.1-3.1,0.7-6.1,1.1-9.2c0.7-5.4,2-10.7,3.3-15.9c1.5-5.6,3.7-10.9,5.8-16.2
		c1.8-4.5,3.9-8.9,5.2-13.6c0.3-1.1,1-1.5,2.1-1.2c0.2,0.7,0.1,1.4,0,2c-0.2,2.6-1.6,4.8-2.5,7.3c-0.3,1-0.2,1.5,0.5,2.2
		c1.2,1.3,2.9,1.6,4.4,2.3c4.2,1.8,8.6,3,13.2,2.5c1.4-0.2,3.3,0.2,4-1.3C155.2,208.8,156.3,206.9,156.8,204.4z M102.3,120.9
		c-0.8,0.7-1.8,1.1-2.6,1.7c-2.5,1.6-4.5,3.8-6.8,5.7c-5.4,4.6-9.3,10.1-12.1,16.5c-2.7,6.4-4.3,13.1-6.2,19.8
		c-0.7,2.4-1.7,4.7-2.1,7.1c-0.4,2.8-1,5.5-1.3,8.3c-0.4,3.2-1.3,6.3-2,9.5c-0.7,3.3-0.8,6.7-1.7,9.9c-1.2,4.4-1.5,8.9-2.1,13.5
		c-0.3,2.5,0.5,5-0.3,7.5c-0.2,0.7-0.2,1.3-0.3,1.9c-0.4,4.3-0.8,8.7-1.3,13.2c3.1,0.2,6.2-0.5,9.5,0.1c0.1-4.4,0.6-8.5,0.5-12.6
		c-0.1-1.2-0.2-2.5,0.1-3.6c1.4-5,1.1-10.1,1.7-15.1c0.4-2.9,0.2-5.9,1-8.8c0.7-3,1.1-6,1.2-9.1c0.1-2.5,0.4-5,0.8-7.5
		c0.6-3.7,0.4-7.2-0.8-10.7c-0.4-1.2-1.5-2.8,1.1-2.9c0.1,0,0.3-0.2,0.3-0.4c0.2-1,0.7-1.7,1.7-1.4c1.2,0.3,1,1.4,1,2.2
		c0,3.7-0.3,7.3-0.6,11c-0.5,6.1-1.7,12.1-1.7,18.3c1.4,0,2.8,0.7,4.4,0.4c2.7-0.4,5.5-0.7,8.2,0.1c2.3,0.7,4.4-0.1,6.4-1
		c0.8-0.3,1.3-0.9,1.2-2c-0.2-2.5,0.6-5,1-7.5c0.5-3.3,1.4-6.5,2.1-9.8c0.6-3,1.2-6,2-8.9c1.3-4.9,2.2-9.8,2.2-14.9
		c0-2.3,0-4.6-0.3-6.9c-0.3-2.6-1.2-5-2.2-7.3c-0.9-1.9-2.7-3.1-3.7-4.8c-0.4-0.7-0.5-1.3,0.2-1.8c0.5-0.3,1.2-0.4,1.8,0.2
		c2.8,2.8,5.1,6,5.9,9.9c0.7,3.1,1,6.3,0.9,9.5c-0.1,5.3-0.5,10.6-2,15.8c-1.7,6.1-2.9,12.4-4.1,18.7c-0.6,3-1.6,5.9-1,9.2
		c0.6-0.7,1.2-1.3,1.6-2c3.2-5.1,7.1-9.6,10.5-14.5c3.1-4.5,6.8-8.6,10.6-12.5c3-3.1,6.7-4,10.8-4.2c0.1-0.4,0-1.1-0.1-1.7
		c-0.3-2.9-0.4-5.8,0-8.7c0.2-1.4,0.8-1.5,2-1c0,2.5,0,5,0,7.5c0.1,4.1,0.1,4.3,3.9,5.1c4.1,0.8,7.7,2.7,11.1,5c1,0.7,1.6,2,3.2,2.1
		c0.4-1.1,1.1-2.1,2.1-3.1c-7.7-6.8-14-14.6-17.1-24.5c-3.9,0-4,0.2-3.8-1.4c0.9-0.1,2,0.8,2.7-0.2c-1-3.9-4-6.3-6.2-9.5
		c-0.3,0.4-0.5,0.6-0.6,0.8c-3.2,4.5-7.3,5.1-11.8,3.9c-3.3-0.8-6.7-1.9-9.5-4c-1.9-1.4-4.1-2.4-5.7-4.3
		C104.5,125.1,103.4,123,102.3,120.9z M134.5,109.5c1.6-2.3,1.8-5.1,2.9-7.6c1.1-2.5,1.2-5.3,2.6-7.8c2.2-4.1,5.7-7.2,7.6-11.4
		c0.7-1.5,2-2.5,3.8-2.1c1.7,0.4,3.3,1.1,3.3,3.4c0,0.4,0.2,0.9,0.5,1.1c2.4,1.7,4.7,3.4,7.9,3.5c3.8,0.1,7.5-0.7,11-1.7
		c6.3-1.8,12.5-4.3,17.2-9.1c1.1-1.1,2.4-2.5,1.2-4.4c-0.3-0.4-0.3-1-0.4-1.5c-1.4-5.2-2.3-10.4-5.4-15c-3.8-5.7-8.3-10.4-14.2-13.8
		c-2.3-1.3-4.8-2.2-7-3.5c-3.4-2.1-7-2.8-10.8-2.8c-3.8,0-7.5,0.4-11.1,1.7c-2.8,1-5.6,2.1-7.8,4c-7.2,6.1-11.8,14-14.2,23.1
		c-0.8,3.1-1.4,6.2-1.1,9.4c0.3,3.1,0.4,6.2,0.7,9.3c0.2,3-0.8,5.6-1.4,8.5c1.2-1,1.9-2,2.6-3.2c0.4-0.8,0.8-1.7,2-1.5
		c1.2,0.2,1.2,1.4,1.2,2.1c0,2.4,0.9,4.9,0.1,7.4c-0.4,1.2-0.2,2.6-0.3,3.9c0.8-0.1,1.1-0.6,1.3-1.2c1-2.1,2.3-4.2,2.5-6.6
		c0.1-0.9,0.6-1.4,1.6-1.2c1,0.2,1.1,0.7,0.8,1.6c-0.6,1.9-0.6,3.8-0.6,5.7c0,1.7,0.2,3.4-0.1,5.2c0.1-1.4,2.2-0.8,2.2-2.3
		c0-1.7,1-1.6,2.4-1.3C135.1,103.9,134.4,106.6,134.5,109.5z M191.2,81.3c-1.6,1.8-3.9,2.5-5.8,3.6c-5,2.8-10.4,4.5-16.1,5.2
		c-3.2,0.3-6.4,1.5-9.6,0.1c-0.6-0.2-1.4-0.2-2,0.3c-3.1,2.5-5.1,5.6-6,9.5c-0.3,1.4-0.1,3-0.9,4.4c-0.4,0.7-0.4,1.5-1.4,1.4
		c-1.2-0.1-1.4-0.9-1.3-1.9c0.1-2.6,0-5.2,0-7.9c-1.2,0.1-2.2,0.7-3.2,0.2c-0.9-0.5-1.2-1.6-1.3-2.6c-2.7,2.5-2.8,5.9-3.8,9
		c-1.1,3.7-2.4,7.4-4.5,10.6c-0.9,1.4-2.1,2.5-3.2,3.7c-1.1,1.1-1.8,0.8-2.3-0.6c-0.3-1-0.2-1.8,0.4-2.7c1.2-1.9,1.7-4.1,2-6.4
		c-0.6,0.6-1,1.4-1.5,2c-0.8,1-2,1.7-3.1,1.2c-1.2-0.6-0.7-1.9-0.3-2.9c0.1-0.2,0.2-0.5,0.2-0.7c0.3-1.6,1.6-3.1,1.2-5.1
		c-1.3,1.8-3.3,2.3-4.7,3.9c-0.9,1.1-2,0.7-2.9-0.8c-4.4,4.9-9.8,8.7-14.6,13.2c1.3,2.8,3,5.1,5.1,7.1c3.2,3,7,4.5,11.1,5.5
		c2.9,0.7,5.8,1.1,8.3-1.2c3.5-3,7.1-5.9,11-8.4c2.1-1.4,2.1-1.4,0.6-3.5c-1.3-1.8-2.1-3.7-2.2-6c0-0.6,0.2-1.1,0.9-1.2
		c0.5-0.1,0.9,0.2,1,0.6c0.8,3.7,3,6.5,5.8,8.9c2.2,1.9,3.8,4.4,6.7,5.4c2.8,0.9,5,1.2,6.4-1.7c1-2,2.5-2.7,4.6-2.8
		c-0.9-1-1.9-1.8-1.1-3.1c1.2,0,1.2,0,2.3,0.7c1.8,1.3,2.7,0.9,3.4-1.2c0.3-0.8,0.1-1.7,0.5-2.5c1.2-0.1,2.4,0.2,3.5,0.7
		c1.2,0.6,1.8-0.1,2.1-1.1c0.3-1,0.4-2,0.4-3c-0.1-4.7,1-9,3.6-12.9c-1.1-0.9-1.6-2.3-3.1-2.7c0.3-0.7,0.9-0.9,1.2-0.6
		c0.9,0.9,2.5,0.9,3,2.2C186.1,92.8,190,87.9,191.2,81.3z M130.3,209c-1.8,4.7-3.7,8.9-5,13.3c-1.5,4.9-3,9.8-3.7,14.9
		c-0.3,2.4-1.3,4.6-1.4,7c-0.5,6.1-1.1,12.2-1.8,18.3c-0.7,6-0.9,12-1.9,17.9c-0.7,3.9-1.2,7.8-1.8,11.7c-0.5,2.8-1,5.6-1.7,8.4
		c-0.2,0.9,0,1.4,0.8,1.7c1.2,0.5,2.3,1.2,3.1,2.2c1.1,1.3,2.5,1,3.7,1.4c2.5,0.8,1.7-1.6,2.5-2.5c0.1-0.1,0.1-0.2,0.2-0.3
		c2.3-1.8,2-4.2,2-6.7c0-4.3,0.7-8.6,2.2-12.6c1.3-3.4,2.1-7,3.3-10.4c1.6-4.6,3.2-9.2,5.3-13.5c1.8-3.9,3-8,4.6-12
		c1.5-3.8,2.4-7.9,3.8-11.7c2.2-5.9,4.7-11.8,6.9-17.7c0.4-1.1,1.5-2.2,1.1-3.8c-3.9,0.6-7.6,0.5-11.3-0.6
		C137.2,212.5,133.6,211.6,130.3,209z M181.2,208.6c-3.8-0.4-7.2-1.7-10.7-2.3c-3.7-0.7-6.9-2.5-9.5-5.4c-0.7,1-0.6,2-1,2.9
		c-2.4,5.3-4.6,10.6-6.7,16c-2,5.2-4.2,10.2-6.1,15.4c-1.8,4.9-3.3,9.9-5,14.9c-1.8,5.3-3.8,10.6-6.1,15.6c-1.2,2.6-2.3,5.3-2.1,8.3
		c0.1,1.6,0,3.2-0.2,4.8c-0.7,5.1-1.1,10.3-2.3,15.3c-0.1,0.5-0.2,0.9,0.5,1.2c1.4,0.6,2.4,1.8,3.2,3.1c0.3,0.4,0.6,1.2,1.2,0.8
		c0.9-0.6,2.5,0.3,3-1.2c0.9-2.7,2.9-4.1,5.5-5.2c-0.4-0.8-0.2-1.7-0.3-2.6c-0.2-3.3,1.1-6.2,1.8-9.3c1.5-6.5,3.8-12.6,6.6-18.6
		c1.5-3.2,2.7-6.5,4.5-9.6c2-3.5,4-7,5.5-10.7c2.1-4.8,4.7-9.2,7.3-13.7c1.5-2.6,3.3-5.1,4.8-7.7
		C176.9,216.7,178.9,212.8,181.2,208.6z M85.4,220.4c-0.8,0.7-1.6,1.6-2.5,0.5c-0.8-1,0.2-1.7,0.9-2.4c0.2-0.2,0.5-0.3,0.7-0.5
		c1.9-1.6,4.5-2.6,5.3-5.3c0.6-2,1.9-3.6,3.1-5.2c1.8-2.4,2.4-5.1,3.1-8.3c-6.1,2-11.9,3.6-17.9-0.4c0.4,1.8-0.2,3-0.3,4.3
		c-0.2,2.4-0.2,4.8-0.4,7.1c-0.6,5.7-1.9,11.3-1.6,17c0.1,3-0.4,6-0.1,9c0.3,2.6,0.7,5.2,2.1,7.5c1.1-0.7,1.2-1.9,1.8-2.8
		c4.1-5.9,8.4-11.7,12.2-17.8c3.7-5.9,8.2-11.1,12.4-16.5c2.9-3.7,5.8-7.3,8.5-11.1c3.7-5.4,8.3-10,12.7-14.9c2.2-2.5,4.6-4.8,8-6.5
		c-1.5-0.5-2.1-1.4-1.5-2.3c0.5-0.8,0.4-1.3,0.1-1.9c-0.3-0.8-0.4-1.6-0.1-2.4c0.8,0,1.8-0.4,2,0.7c0.6,3,2.5,5.3,4.3,7.6
		c1.2,1.5,2.4,3.2,3.8,4.6c2.5,2.3,4.2,5,3.9,8.4c-0.1,1.4-0.1,2.9,0.1,4.2c0.3,1.5,0,3.1,1,5c-0.3-2.7,0.5-4.8,0.3-7.1
		c-0.2-2.2,0.6-4.4,0.8-6.6c0-0.5,0.3-1.2,1.1-1.1c0.8,0.1,1,0.5,1.1,1.2c0.1,0.8,0.4,1.5,0.7,2.2c1.9,4,2.1,8.1,1.5,12.5
		c-0.3,2.3-0.3,4.6-0.5,7.1c0.8-0.7,0.9-1.4,1-2.1c0.7-2.7,0.3-5.5,0.6-8.3c0.3-2.8,0.6-5.7-0.2-8.6c-0.4-1.4-0.5-2.8-0.7-4.2
		c-0.1-0.6,0.1-1.1,0.8-1.3c0.4-0.1,0.9-0.2,1.1,0.3c1.2,2.8,1.8,5.9,1.7,8.9c0,1.5-0.1,3.1-0.1,4.7c0.7-1.9,2-3.6,1.6-5.6
		c-0.7-3.5-0.5-7-1.4-10.5c-0.2-1-0.3-2.3,1.4-2.3c-1.5-3.5-3.6-6.3-6.6-8.3c-2.5-1.7-5-3.7-8.1-4.4c-1.9-0.5-3.9-0.7-5.8-1.2
		c-3.7-1-7.1-0.1-9.8,2.2c-3.9,3.3-7.2,7.3-10.1,11.5c-3.5,5-7.3,9.9-10.8,15c-4,5.8-8.1,11.6-12.2,17.3c-2.6,3.6-4.3,7.7-6.3,11.6
		c-0.4,0.8-0.8,1.5-1.8,1.5C85.3,222.3,85.8,221.2,85.4,220.4z M260.7,270.4c0.4-0.9,0.1-1.4-0.3-2.2c-1.6-3.1-4.1-5.8-4.8-9.4
		c-0.1-0.8-0.1-1.4,0.5-1.9c0.7-0.7,1.5-0.6,2.2-0.2c2.1,1.3,4.5,1.9,6.8,2.4c4,0.9,7.8,1.8,11.5,3.5c1.4,0.7,3,1.4,4.7,1.5
		c-2.7-1.5-5.4-2.7-8-4.3c-1.4-0.9-2.6-2.2-4.3-2.7c-1.1-0.3-3-0.3-3.1-1.7c-0.2-1.9-1.5-2.5-2.8-3.4c-5.8-4.2-11.5-8.6-17.5-12.5
		c-4.9-3.1-9.5-6.6-14.5-9.6c-5.9-3.6-11.8-7.3-17.4-11.4c-1.1-0.8-2.2-1.8-3.5-2.5c-2.7-1.5-5.3-3.3-7.7-5.3
		c-4.2-3.5-8-7.3-11.7-11.3c-0.4-0.4-0.8-0.7-1.3-1.2c-0.5,0.9-0.9,1.7-1.3,2.5c-1.6,3.4-2.5,7.1-5.2,9.9c-1.5,1.6-1.6,3.1-0.2,4.3
		c2.2,1.9,4.5,3.8,7,5.2c2.9,1.6,5.6,3.5,8.3,5.3c3.1,2.1,6.6,3.4,9.5,5.9c1.9,1.6,4.4,2.3,6.6,3.5c4,2.1,7.8,4.5,12.2,5.7
		c1.6,0.4,3.2,0.8,4.5,1.6c2.9,1.8,6.2,2.7,9.2,4.3c3.4,1.7,5.7,4.2,8,6.8c3.7,4.2,5.9,9.5,9.5,13.8
		C258.7,268.2,258.9,270.1,260.7,270.4z M162.5,196.5c-1.1,0.8-0.9,1.6-0.1,2.4c0.8,0.8,1.5,1.7,2.5,2.3c4.6,3.1,10,3.6,15.3,4.7
		c1.9,0.4,3.2-0.4,3.9-2.1c2.4-5.2,4.9-10.3,6.2-16c1-4.3,1.2-8.6,0.3-12.9c-0.8-3.6-2.8-6.5-6.4-7.6c-2.4-0.8-4.9-0.8-7.6-0.2
		c-6.7,1.7-11.1,6-15.2,10.9c3,3.7,3,8.3,4.8,12.2c1.3-0.4,1.7-2.6,3.6-2.1c0.8,1.9-0.7,2.8-1.7,3.9c-0.6,0.7-1.4,1.2-0.8,2.3
		c0.8,1.5,0.5,3.2,0.5,4.8c0,0.9-0.4,1.6-1.2,1.7c-0.9,0.2-1.7,0.2-2.3-0.9C163.5,198.8,163.4,197.4,162.5,196.5z M112.2,304.5
		c-0.5,1.2-0.9,2.2-1.4,3.3c-1.2,2.8-1.7,5.8-1.8,8.9c0,0.5,0,1.1,0.4,1.5c1.5,1.8,3.3,3.1,5.5,4.1c1.9,0.9,3.8,0.8,5.7,1.2
		c4.4,0.9,8.5,2.6,12.9,3.3c4.3,0.7,8.6,1.5,13,1.2c2-0.1,4-0.4,6,0c1.2,0.3,2.1,0,2.9-1.1c0.7-0.9,1.4-1.9,2.6-2.8
		c-5.3-3.8-11-6.5-16.6-9.6c-1,1.3-2.4,2.1-3.6,3c-1.7,1.2-2.6-0.2-3.6-0.9c-1-0.8-0.1-1.7,0.5-2.3c0.9-0.9,2-1.7,3-2.6
		c-0.1-0.1-0.3-0.3-0.4-0.4c-1.8,0.8-3.3,2.1-4.9,3.2c-1,0.8-2.2,0.8-3.1,0c-1-0.9-0.4-2,0.2-2.9c0.6-0.9,1.6-1.1,2.6-1.9
		c-2.2,0.2-3.6,1.4-4.8,2.8c-0.7,0.8-1.6,0.8-2.5,0.6c-0.6-0.2-1-0.8-1.1-1.5c-0.2-2.3-1.1-3.2-3.4-3.5c-2.3-0.3-4.4-1-6-2.8
		C113.6,304.8,113,304.5,112.2,304.5z M130.5,296c-1.6,2.6-1.5,2.7,0.3,4.7c0.8,0.9,1.5,2,2.4,2.8c1.5,1.4,2.2,3.6,4.5,4.1
		c0.3,0.1,0.4,0.2,0.5,0.4c1.5,2.5,4.1,3.4,6.6,4.2c2.7,0.8,5.5,1.7,8.3,2.2c5.8,1,11.6,2.1,17.5,1.9c1.7-0.1,3.5-0.3,5.1-1.5
		c-3.5-4.8-9.2-6.1-13.6-8.9c-1.7,1-1.5,3.9-4,3.6c-1.8-0.3-3.4-1.3-4.5-3.1c-1.1,1.6-2.1,1.7-3.2,0.2c-0.2-0.3-0.6-0.5-1-0.7
		c-1.9-1-4-1.4-5.6-3.2c-1-1.1-2.7-1.8-4.6-1.6c-1.6,0.2-3.7,0.7-4.5-1.3C133.8,297.9,132.1,297.2,130.5,296z M191.4,89.1
		c-1.6,1.9-3,3.9-4.6,5.8c-1.9,2.3-4.2,4.1-5.7,6.7c-0.5,0.9-1.3,1.7-1.3,2.7c0.1,3.4,1.2,6.6,1.9,9.9c0.1-0.3,0.1-0.6,0.1-0.9
		c0.1-0.8,0.2-1.6,1.3-1.5c1.2,0.2,1,1.1,0.9,1.8c-0.2,2.3,0.1,4.5,1,6.6C184.2,109.3,187.4,99.1,191.4,89.1z M131,304.8
		c-0.4-1.2-1.4-1.8-2-2.7c-0.2-0.3-0.8-0.6-1.4-0.5c-2.5,0.5-3.9,4.6-2.2,6.7C127.2,307.1,129,306,131,304.8z M144.4,300.3
		c1.2-1.4,2.2-3.1,4.1-3.7c-1.6-1.7-1.6-1.8-3.7-1.3c-1.4,0.3-2.9,1.2-3.1,2.6c-0.2,1.2,1.3,1.6,2.3,2.1
		C144.1,300.1,144.2,300.2,144.4,300.3z M131.2,280c-1.8,3.9-4.2,13.6-3.3,15.6C130.2,290.8,130.2,285.6,131.2,280z M159,179
		c0.2,1.1,0.7,2.2,0.7,3.4c0,1.8,0.4,3.4,1.6,4.9c1.6,2,1.9,4.6,3.1,6.8C162.6,189.1,162,183.7,159,179z M161.7,169.7
		c-3.6,3.8-3.4,3.8-1.4,5.6c0.9-1.5,2.2-2.7,3.4-3.9C163.2,170.4,162.3,170.3,161.7,169.7z M148.1,302.5c1.2,1.5,1.9,1.5,2.9,0.2
		c0.5-0.6,1-1.2,1.4-1.8c0.7-0.8,0.6-1.5-0.5-1.9C150.8,300.4,149.1,301,148.1,302.5z M160.7,192c-1.3,3.7-2.8,7.3-3.3,11.1
		C158.7,199.5,160.6,196,160.7,192z M158,303.2c-2.1-0.3-2.6,1.3-3.7,2C156.4,306.1,156.8,304.4,158,303.2z M154.4,87.9
		c0.1,1.2-1.4,1.4-1.1,2.8c0.7-0.9,1.8-1.2,2.5-1.8C155.6,88.3,155.1,88.2,154.4,87.9z"/>
	<path d="M300.1,270.8c1.4-0.3,2.9-0.3,4.1-0.9c2.1-0.9,4.3-0.6,6.4-0.9c2.7-0.4,5.5-0.4,8.3-0.1c1.2,0.2,2.4-0.5,3.6-0.4
		c4.7,0.4,9.2,1.1,13.8,2c1.6,0.3,3,0.6,3.4,2.5c0.2,0.9,0,1.6-0.8,2c-3,1.6-5.6,4-9.1,4.8c-3.1,0.8-6.1,2.1-9.3,2.2
		c-2.6,0.1-5.2,0.7-7.9,0.4c-0.1,0.1-0.2,0.3-0.2,0.4c1.8,1.7,3.5,3.5,5.4,4.9c6.8,4.9,14.5,7.2,22.7,8.5c5.9,1,11.6,2.6,16.9,5.4
		c4.6,2.4,8.4,5.5,11.4,9.8c3.3,4.7,3,9.7,1.5,14.9c-0.4,1.4-1,2.7-1.4,4c2.7,0.6,3.9,1.9,3.4,4.1c-0.4,2.2-2.5,4.1-6,3.2
		c-0.4,1,0,2.1-0.5,3.2c-1.5,3.4-4.5,3.9-7.6,4.3c-3.2,0.4-6.4,0.4-9.6,0c-5.2-0.5-10.1,0.8-15,2.2c-3.2,0.9-6.5,2-9.9,0.7
		c-2.1-0.8-2.9-3.6-1.4-5.2c0.5-0.6,1-1.2,1.5-1.8c1.1-1.4,2.4-2.2,4.2-2.6c-1.9-0.7-3.7-0.5-5.6-0.4c-3.5,0.2-7.1,0.7-10.5-1
		c-2.1-1.1-2.4-3.8-0.6-5.4c0.5-0.4,0.8-1,1.2-1.5c0.4-0.6,1.4,0.1,1.8-0.9c-3.8-2.2-7.6-4.6-10.3-8.4c-0.8,0.9-0.9,2-1.4,3
		c-2.6,4.9-6.4,8.6-11,11.6c-3.4,2.1-6.7,4.2-10.1,6.4c-1,0.6-2,1-3.1,1.4c-2.8,0.9-5.7-2.1-5.2-4.9c0.4-2.4,2-3.9,3.7-5.1
		c2.8-1.9,5.4-4.1,8.1-6.2c1.6-1.3,2.9-3,3.7-5.1c-2.8,0.5-5.4,1.3-8.1,1.9c-2.8,0.7-5.5-0.1-8.2-0.3c-1.6-0.1-3.2-0.1-4.9-0.2
		c-0.6,0-1.5,0-1.5-0.7c0-1-1.2-2.2-0.1-3.1c1.1-0.9,2.3-1.7,3.8-1.8c5.7-0.1,11-1.7,15.3-5.6c1.3-1.1,2.4-2.6,3-4.2
		c0.7-1.9,2.1-3.1,3.5-3.8c1.6-0.8,1.8-1.8,1.6-3.5c-2.3,0.1-4.6-0.5-6.2,2c-0.6,1-1.9,0.6-2.8,0.3c-0.9-0.3-1.8-0.5-2.9-0.5
		c-2.8,0.1-5.9-2.6-6.2-5.3c-0.3-3.1,0.3-6,1.5-8.9c1.2-2.8,2.4-5.6,3.6-8.3c1.6-3.8,4.7-5.9,7.8-8c0.1-0.1,0.2-0.1,0.3-0.1
		c1.5-0.7,2.7-1.3,2.1-3.6c-0.7-2.7,0.5-5.6,0.7-8.4c0.2-2.8,0.6-5.8,1.4-8.4c0.9-3,1.3-6.3,3.1-9c0.5-0.7,0.6-1.6,1-2.3
		c0.6-1,1.5-1.6,2.7-1.3c1.1,0.3,1.4,1.2,1.6,2.2c1,4.9,1.2,9.8,1.1,14.7c-0.1,3.5-0.8,6.8-2,10.1
		C299.3,267.4,298.6,269,300.1,270.8z M306.5,314.8c0.3,1.3-0.9,2.3-1.2,3.4c-0.1,0.5-0.7,0.8-0.1,1.4c0.7,0.7,1.3,1.6,2,2.3
		c2.8,3.2,6.6,4.9,10.4,6.5c2,0.8,3.9,1.8,6.2,1.3c0-0.1,0-0.3-0.1-0.5c-0.5-2.4-0.6-4.7,0.3-7.1c0.4-1.2,1.3-2.2,1.7-3.4
		c1.5-4.1,5.1-6,8.8-6.7c5.1-0.9,10.2,0.4,15.1,2.1c1,0.3,1.9,1.1,1.1,2.4c-0.4,0-0.7,0.1-1,0c-2.3-1.3-4.9-1.8-7.5-2.2
		c-2.5-0.5-5.1-0.7-7.4-0.1c-4.8,1.3-8.5,4.3-9.4,9.6c-0.4,2.1-0.8,4.2,0.7,6.2c3.2,4.2,7.4,6.3,12.5,6.6c2,0.1,4-0.2,5.9,0.4
		c1.3,0.4,2.3,1.1,1.6,3.2c-4.1-2-8.5-1.5-12.8-1.3c-2.4,0.1-4.9,0.8-6.9,2.4c0.5,0,1.1,0.1,1.6,0.1c0.1,0.6,0.2,1.3-0.3,1.6
		c-0.5,0.2-1.1,0.2-1.6,0.2c-0.5,0-1,0.1-1.3,0.6c0.7,0.9,1.6,0.3,2.5,0.7c0.5,2.3-2,0.6-2.4,1.9c1.4,0.5,3,0.2,4.1-0.1
		c3-0.8,6-1.9,9.1-2.5c3.6-0.7,7.2-0.9,11-0.6c4.1,0.3,8.4,1,12.4-1.2c2.8-1.5,3-2.8,0.7-5.1c-0.9-0.9-3-1.2-2.2-3.3
		c0.9-0.4,1.7-0.1,2.4,0.4c2.7,2.1,5.1,2.1,7.5-0.1c-0.7-0.9-1.5-1.4-2.7-1.6c-2.1-0.4-3.4-2-3.1-3.5c0.9-0.5,1.5,0.4,2.4,0.4
		c0.8-1.9,2.1-3.6,2.1-5.9c0-1.1,0-2.1,0.3-3.2c0.4-1.2,0-2.6-0.5-3.7c-1.6-3.6-4.1-6.5-7-9.2c-2.9-2.8-6.7-4.5-10.4-5.9
		c-4.3-1.7-8.9-2.9-13.7-3.3c-2.2-0.2-4.6-0.7-6.5-1.4c-3.3-1.2-6.5-2.7-9.7-4.2c-4.9-2.2-8.6-5.7-11.7-9.9
		c-0.4-0.5-0.9-0.5-1.4-0.6c-2.4-0.4-4.8-1-7.2-1.3c-1.4-0.2-1.2-0.9-1.1-2c3.9,0.3,7.6,1.3,11.5,1.4c2.7,0.1,5.4,0,8-0.2
		c5.2-0.4,9.9-2.4,14.6-4.7c1.2-0.6,2.1-1.4,2.9-2.6c-1.6,0.9-2.7-0.4-4.1-0.5c-4.5-0.4-8.9-1.8-13.5-1.2c-2.7,0.4-5.5-0.1-8.3,0.1
		c-3.3,0.2-6.6,0.4-9.6,1.7c-1.4,0.6-2.9,1.2-4.3,1.8c-0.9,0.4-1.6,0-1.9-0.8c-0.3-0.8,0.2-1.1,1-1.3c0.7-0.2,1.4-0.6,1.8-1.3
		c-1-0.1-1.8,0.3-2.7,0.4c-4.9,0.5-9,2.8-12,6.8c-3.1,4.1-4.7,8.9-6.1,13.8c-0.7,2.2-0.8,4.4,0.4,6.8c0.8-1.5,1.1-3.2,3.1-2.8
		c0.5,1-0.3,1.5-0.5,2.1c-0.3,0.7-1.2,1.3-0.2,2.2c1.1,0.9,1.5-0.1,2.1-0.7c0.5-0.5,0.9-1.1,1.4-1.7c0.4-0.4,0.8-0.8,1.4-0.4
		c0.6,0.4,0.6,0.8,0.2,1.4c-0.4,0.6-0.7,1.3-1,1.9c0.6,0.4,1.2,0.7,1.6-0.2c0.7-1.6,1.9-2.1,3.6-1.9c0.7,0.1,1.5,0,2.2,0
		c3.1,0.1,5.4-1.3,7.1-3.9c0.6-0.9,0.7-1.9,1.2-2.8c0.3-0.7,0.8-0.7,1.3-0.5c0.6,0.2,0.7,0.7,0.5,1.3c-1,3-2.7,5.4-5.7,6.7
		c-0.6,0.3-1.1,0.7-1,1.5c0.3,3.2-2.4,5.4-2.8,8.4c-0.1,0.6-0.6,0.7-1.1,0.6c-0.6-0.1-0.7-0.5-0.8-1c-0.1-0.5,0.5-0.9,0.1-1.5
		c-3.9,9-11.6,11.6-20.4,12.1c-0.1,0.6-0.1,1.1-0.2,1.6c3.2,0.1,6.3,0.6,9.5,0.5c1.2-0.1,2.1-1.2,2.8-1c1.8,0.4,3.3-0.4,4.8-0.8
		c2.5-0.7,4.7-1.7,5.2-4.6c0.1-0.7,0.6-1.3,0.7-2c0-0.6,0.1-1.5,1-1.4c0.9,0.1,0.8,0.9,0.8,1.6c0,0.7-0.1,1.4-0.4,2.1
		c-1,3.1-2.7,5.7-4.3,8.5c-1.7,3-4.1,5.1-6.8,7.1c-2.5,1.8-5.1,3.3-7.2,5.7c0.5,0.1,1,0.1,1.3,0.1c1.1,1.6-1.4,1.6-1.1,2.9
		c1.9-1.2,2.6-1.1,3,0.5c0.2,0,0.4-0.1,0.5-0.2c4.6-2.9,9.2-5.8,13.5-9c1-0.7,2-1.6,2.8-2.5c2.7-3.2,5.2-6.5,6.6-10.5
		c0.4-1.2,1.5-2.3,2.3-3.4C305.3,314.5,305.8,314.5,306.5,314.8z M292.7,269.6c3.3,0,3.4-0.1,4.5-2.7c1.2-2.9,2.1-5.9,2.3-8.9
		c0.4-4.2,0.2-8.4,0.1-12.6c0-1.3-0.6-2.6-1-4c-0.2,0-0.4,0-0.6,0C294.3,250.5,292.9,259.9,292.7,269.6z M327.7,335.8
		c-0.5-1-1.1-1.4-1.5-2c-0.4-0.6-0.5-1.6-1.3-1.6c-2.9,0.1-5.7-0.4-8.6-0.9c0.1,1,0.6,2-0.3,2.5c-0.8,0.5-0.7,1.1-0.5,1.7
		c0.2,0.7,0.9,0.6,1.5,0.6C320.5,336.1,323.9,335.4,327.7,335.8z"/>
	<path d="M172.4,98.3c1,0.8,1.7,1.7,2.9,2.1c0.6-0.5,1.3-1,1.9-1.6c0.4-0.4,0.7-0.5,1-0.2c0.3,0.3,0.2,0.7-0.1,1
		c-0.4,0.5-0.9,1-1.5,1.2c-0.1,0.8,1.6,0.7,0.8,1.6c-0.7,0.9-1.4-0.3-2.2,0c-0.4,1-1.1,0.8-2,0.2C171.7,101.5,171.4,99.9,172.4,98.3
		z"/>
	<path d="M149.5,91.8c-0.5,0-1.1,0.6-1.5-0.3c-0.4-0.8-0.3-1.4,0.3-2.1c0.5-0.6,1-1.1,1.6-0.8c1,0.5,0.3,0.9-0.3,1.2
		c-0.2,0.1-0.2,0.3-0.4,0.4C149.1,90.8,149.8,91.3,149.5,91.8C149.4,91.9,149.5,91.8,149.5,91.8z"/>
	<path d="M299.8,275.7c2.2-0.3,4.4,0,6.6,0.3c1,0.2,1.2,0.6,0.8,1.8c-2.1-1.1-4.4-1.6-6.7-1C300,276.9,300,276.8,299.8,275.7z"/>
	<path d="M288.1,288.1c1.9,0.5,3.8,0.2,5.7-0.2C291.7,289.7,289.8,289.8,288.1,288.1z"/>
	<path class="st0" d="M303.7,319.5c2.2,2.2,4.1,4.7,6.7,6.4c4.1,2.6,8,5.6,13.3,5.1c0.4,0,0.7-0.1,1.1-0.2"/>
	<path class="st0" d="M160.8,199.4c1.9,1.1,3.1,3,5.1,4c3.1,1.6,6.6,1.9,9.8,3c2.3,0.8,4.8,0.3,6.9,1.4"/>
	<path class="st0" d="M256.5,258c2.7,0.4,5.3,1.2,7.9,2.1c2,0.6,4.1,0.8,6.2,1.3c2.3,0.6,4.1,2.3,6.4,3.1c2.2,0.8,4.2,2.4,6.8,2.3
		c0.4,0,0.7,0.2,0.9,0.7c0.7,1.8,2.2,2.3,4,2"/>
	<path class="st0" d="M192.9,79.5c-0.9,0-1.7,0-2.6,0.7c-4.6,4-10.2,6.3-16,7.8c-3.3,0.8-6.6,1.4-10,1.6c-2.9,0.1-5.5-0.2-7.9-2
		c-0.8-0.6-1.7-1.2-2.9-1.1"/>
	<path class="st0" d="M104.3,119.6c-1.1-0.3-1.9-0.1-2.9,0.5c-5,3-9.2,7-13.2,11c-2.8,2.8-5.3,6.2-7,9.7c-2.2,4.8-3.9,9.9-5.3,15.1
		c-1.3,4.9-2.5,9.8-4.1,14.6c-0.8,2.3-0.9,4.8-1.2,7.3c-0.5,4.1-1.6,8-2.5,12c-0.9,4.4-1.3,8.9-2.4,13.3c-1,3.9-0.7,7.9-1.4,11.9"/>
	<path class="st0" d="M133.1,168.8c0.5,3.1,1.9,5.8,4.4,7.9c2.2,1.9,3.6,4.6,5.9,6.5c1.1,1,0.9,2.6,1.8,3.6"/>
	<path class="st0" d="M192.3,183c-0.3,4.8-1.5,9.5-3.4,13.8c-1.7,3.7-2.9,7.7-5.8,10.9c-0.7,0.8-1.2,2.1-1.7,3.2
		c-2.2,4.6-4.7,9-7.5,13.3c-2.9,4.3-5.5,8.8-7.9,13.4c-2.5,4.9-4.9,10-7.4,14.9c-2.5,4.7-4.7,9.5-6.7,14.4c-2.7,6.9-5.1,14-6.4,21.3
		c-0.4,2.3-0.1,4.5,2.1,6c1.2,0.8,2.4,1.8,2.7,3.4"/>
	<path class="st0" d="M193,182.8c-1,0.2-0.7-0.6-0.7-1.1c-0.2-2.9,0-5.9-1.1-8.7c-1.6-3.9-4.2-6.5-8.6-7.1c-5.5-0.9-10,1.2-14.4,4
		c-2.7,1.7-5,3.8-6.9,6.2c-0.3,0.4-0.8,0.6-1.3,0.9"/>
	<path class="st0" d="M118.3,243.3c1.4,0.1,0.7,1.3,0.7,1.8c-0.2,1.8-0.9,3.6-0.8,5.3c0.2,3.3-0.6,6.4-0.9,9.7
		c-0.4,4.3-0.9,8.5-1.3,12.8c-0.3,4.4-1.3,8.7-1.8,13.1c-0.5,4.8-2.1,9.5-2.7,14.2c-0.5,4.3-2.8,8-3.2,12.2
		c-0.1,1.2-0.4,2.4-0.4,3.6c-0.3,4.8,2.1,7,6.2,8.4c2.6,0.9,5.4,1,8,1.6c2.7,0.6,5.4,1.7,8,2.5c2.1,0.7,4.5,0.6,6.7,1
		c6.1,0.9,12.2,0.4,18.2,0.5c0.9,0,3.9-3.1,4.2-4.2c0.4-1.6-0.5-2.5-1.6-3.3c-0.7-0.5-1.3-1.1-2.2-1.5c-1.5-0.6-2.3-1.8-2.6-3.4"/>
	<path class="st0" d="M154.8,306.4c2.6,1.1,2.9,1.1,4.5-1.1c0.8-1.1,1.8-1.2,2.8-0.7c3.8,2.1,7.9,3.8,11.5,6.2
		c1.1,0.7,2.1,1.6,2.8,2.9c1.1,1.9,0.9,2.8-1.1,3.7c-3.1,1.3-6.3,1.2-9.5,1c-4.3-0.2-8.4-1.2-12.8-1c-2.1,0.1-4.3-1.5-6.4-2.4
		c-1.5-0.6-3.1-1.3-4.6-2c-1.1-0.5-2-0.6-2.9,0.4c-1.3,1.4-2.8,2.4-4.7,2.6"/>
	<path class="st0" d="M300.8,251.3c0.1-3.5-0.2-6.9-1.1-10.2c-0.1-0.5-0.3-1.1-1.1-1.1c-1-0.1-1.1,0.7-1.5,1.3
		c-1.8,3.1-2.5,6.6-3.3,10c-1.2,5.2-2.1,10.5-2.3,15.9c-0.1,1.2,0,2.4,0.5,3.5"/>
	<path class="st0" d="M305.9,315.4c-1.6,1.9-2.6,4.1-3.6,6.3c-2.2,5.1-6,8.9-10.3,12.1c-3.6,2.7-7.5,4.7-11.2,7.2
		c-1.5,1-3,0.8-4.4,0.6c-1.3-0.1-1.8-1.2-1.9-2.7c-0.1-2.9,1.9-4.1,3.7-5.5c2.9-2.3,6.1-4.2,8.8-6.9c1.3-1.4,1.9-3.2,3-4.6
		c0.2-0.2-0.1-0.7-0.2-1.1"/>
	<path class="st0" d="M165.4,118.7c0.9,0.6,1.3,2,2.8,1.8c1.8-0.2,2.7-0.8,3-2.8c0.2-1.6,1.3-2,2.9-1.3c1.8,0.7,3,0,3.3-1.8
		c0.2-1.6,0.1-3.2,0.4-4.7c1.1-4.4,1.3-9,5.1-12.5c3-2.7,5.3-6.1,7.5-9.5c1.3-2,2.6-3.7,2.7-6.1c0.1-2,0-4,1.1-5.8
		c0.1-0.2-0.1-0.7-0.2-1.1c-1.1-4.3-2.3-8.6-3.5-12.9c-0.6-2.3-2-4.4-3.3-6.3c-2.9-4-5.6-8.1-9.9-10.8c-3.5-2.2-6.8-4.6-10.7-6.1
		c-2.3-0.8-4.3-2.3-6.8-2.7c-2.7-0.3-5.3-0.7-8-0.4c-2.6,0.3-5.1,0.5-7.7,1.2c-3.3,0.9-6.3,2.3-8.8,4.2c-4.8,3.6-8.4,8.3-11,13.8
		c-1.9,4-3.8,8-4.5,12.4c-0.6,3.5-0.5,7.1-0.2,10.7c0.4,4.6,0.9,9.3-1,13.8c-0.3,0.8-0.4,1.6,0,2.4"/>
	<path class="st0" d="M149.5,104.6c0.3-3.8-0.2-7.7,2.2-11.1c0.2-0.3,0.3-0.7,0.3-1.3c-0.3-1.7,0-3.3,0.9-5c0.7-1.3,1.3-3.2,0.2-4.4
		c-1.5-1.7-3.3-1.9-4.8,0.9c-1.1,2-2.5,3.8-3.3,5.8c-0.7,1.7-2.3,2.6-3.3,4.1c-1.3,2-1.9,4.1-2.5,6.3c-0.7,2.6-1.7,5.2-2.5,7.8
		c-0.5,1.6-1.5,2.8-2.9,3.9c-1.4,1.2-2.4,2.9-3,4.7"/>
	<path class="st0" d="M124,88.9c-0.7,1.2,0.6,2,0.6,3.1c0.2,3,0.1,5.9-1,8.8c-0.2,0.6-0.1,1.3-0.2,2"/>
	<path class="st0" d="M63.6,214.9c1.5,1,0.7,2.6,0.7,3.8c-0.3,3.8-0.8,7.7-1.2,11.5c-0.2,1.5-0.5,3-0.5,4.6c0,3.5-1.1,6.8-0.8,10.4
		c0.3,3.7-0.2,7.4,0,11.1c0.1,2.4,0.4,4.7,0.5,7.1c0.1,3.6,0.6,7.2,1.3,10.7c0.8,3.8,1.9,7.6,2.9,11.3c1.3,5,4.5,8.9,7,13.2
		c1.3,2.4,4.1,3.5,6.5,4.7c2.8,1.4,5.8,3.1,9.1,3c5.6-0.2,11.3,0.3,16.6-2.5c3.3-1.8,6.8-2,9.8,1c2,2,4.7,2,7.3,2.2"/>
	<path class="st0" d="M299.7,272.1c-1.2-2.2-1.2-2.2-4.7-1.6c-5.5,0.8-9.7,3.8-12.9,8.1c-1.7,2.2-2.7,5-3.7,7.6
		c-0.7,1.9-1.6,3.7-2.1,5.8c-0.4,1.7-0.4,3.4-0.3,5.1c0.1,1.3,0.5,2.6,2.1,2.9c0.1,0,0.3,0.1,0.4,0.2c3.1,2.2,3.9,1.9,5.8-1.6"/>
	<path class="st0" d="M130.9,278.3c-0.9,0.5-1,1.4-1.3,2.2c-1.5,4.3-2.9,8.7-3.1,13.3c0,1.4-0.4,2.7,0.6,4.1c0.5,0.7,0.3,2-0.8,2.9
		c-1,0.8-2,1.7-2.6,2.9c-1.3,2.8-0.9,4.3,1.6,6.6"/>
	<path class="st0" d="M311.2,280.5c-0.4,2.3,0.9,3.6,2.3,5.1c5,5.3,11.6,7.8,18.1,10.1c4.1,1.4,8.5,1.9,12.7,2.6
		c6.3,1.2,12,3.6,17.1,7.3c3.7,2.7,6.6,6.2,8.3,10.4c1,2.4,0.4,5.1,0.2,7.6c-0.2,2.6-1.7,4.8-2.6,7.1"/>
	<path class="st0" d="M157.3,171c-2.1-0.3-3.6-1.6-5.1-2.9c-3.4-2.7-7.1-4.5-11.5-5.2c-2.4-0.4-4.8-1.3-7.3-0.9
		c-4.1,0.6-7.2,3-9.9,6.1c-6.1,6.8-11.2,14.3-16.6,21.7c-0.6,0.8-1.2,1.7-1.8,2.5c-1.2,1.7-2.1,3.6-4.5,4.1c-0.8,0.2-1.6,1-1.8,2.1
		c-0.8,3.5-2.6,6.6-4.6,9.5c-1.4,2-2.7,4.1-3.8,6.2c-0.7,1.4-1.4,2.8-2.7,3.9c-1.1,0.8-0.2,2.3-0.9,3.3"/>
	<path class="st0" d="M180.5,214.2c4.7,4.5,10.3,7.8,15.7,11.3c7.7,5.1,15.7,9.7,23.9,14c2.8,1.5,6,2.4,9.1,3.4
		c3.2,1.1,6.4,2.5,9.5,4c5.6,2.7,9.2,7.4,12.4,12.5c2.2,3.5,4.6,6.9,6.9,10.4c0.2,0.3,0.5,0.5,0.7,0.7c0.8,1.1,1.9,1.3,2.9,0.7
		c1.1-0.8,0.9-2.2,0.2-3.2c-1.5-2.1-2.4-4.6-4.1-6.6c-0.6-0.8-1-2-0.2-3.1"/>
	<path class="st0" d="M189.2,196.8c1.8,1.1,3.3,2.6,4.7,4.2c5.9,6.5,12.8,11.7,20.1,16.4c5,3.3,9.8,6.8,15,9.8
		c3.5,2,6.9,4.3,10.2,6.5c8.8,5.8,17.6,11.6,25.8,18.1c4,3.2,8.1,6.1,12.5,8.8c0.8,0.5,1.7,0.8,2.5,1.1c2.3,0.8,3.6,2.2,3.6,4.7"/>
	<path class="st0" d="M159.3,177.5c-1.5,0.7-1.7,1.8-1.1,3.3c0.8,2.2,0.1,4.7,1.3,6.9c0.5,0.8,0.7,1.8,1.5,2.3
		c0.8,0.6,1.3,1.4,1.2,2.2c-0.2,2.5,1.3,3.5,3.2,4.4"/>
	<path class="st0" d="M154.1,182.6c0,1.7,0.5,3.4,1,4.9c0.8,2.8-0.1,5.5,0.2,8.2c0.1,1-0.3,2.2,1.1,2.6"/>
	<path class="st0" d="M149.6,184.1c0,1.7,0,3.2,1.2,4.8c1.2,1.6,1.3,4,1.2,6.1c-0.2,3-0.1,6.1-0.7,9.1c-0.1,0.6,0,1.3,0,2
		c0,0.8,0,1.6,0.9,1.8c1,0.3,1.3-0.6,1.6-1.3c1.2-2.5,2-5.2,2.2-8"/>
	<path class="st0" d="M350.3,316.1c-1.2-1.3-2.9-1.7-4.5-1.9c-2.7-0.5-5.4-1.1-8.2-1c-5.2,0.1-9.1,2.3-11.5,7
		c-1.7,3.2-2.4,6.5-1.1,10c0.6,1.7,2.1,2.9,3.3,4.1c1.1,1.1,1.7,2.2,1.7,3.7"/>
	<path class="st0" d="M364.8,337c0.9,2.4,0.1,4.5-1.7,5.7c-1.3,0.9-3.1,1.4-4.8,1.6c-3.1,0.3-6.2,0.3-9.3,0
		c-5.3-0.5-10.3,0.5-15.3,2c-1.5,0.5-3,0.9-4.6,1.3c-0.4,0.1-1.3,0.3-1.1-0.7"/>
	<path class="st0" d="M101.2,131.5c3.3,2.8,5.6,6.5,6.3,10.7c0.7,4.2,0.8,8.5,0.5,12.7c-0.4,6.2-2.5,12-3.7,18
		c-1.1,5.8-2.7,11.4-3.3,17.3c-0.2,1.9-0.3,3.9-0.4,5.8"/>
	<path class="st0" d="M134.9,174.6c-3,2.1-5.9,4.2-8.4,6.9c-6,6.6-11.7,13.4-16.8,20.7c-4,5.7-8.6,10.8-12.9,16.3
		c-2,2.6-3.6,5.5-5.5,8.2c-3.5,4.8-6.5,9.8-10,14.6c-2,2.8-4.2,5.6-5.3,8.9c-0.4,1.2-1.3,2.3-2.2,3.3c-2.1,2.2-2.7,4.8-2.5,7.7"/>
	<path class="st0" d="M330.1,337c3.9,0.7,7.8,0.9,11.7,0.9c1.4,0,2.7,0.3,3.8,1.1"/>
	<path class="st0" d="M133.7,196.5c-0.8,3-1.8,6-3.1,8.8c-0.4,0.9-0.5,2.2,1,3.1c3.7,2.4,7.8,3.5,12.1,4.6c2.8,0.7,5.5,0.4,8.2,0.1
		c0.5-0.1,1.1,0.1,1.6,0.2"/>
	<path class="st0" d="M80.5,164c-0.9,3.2-0.2,6.4-0.3,9.7c-0.2,3.8-0.8,7.7-1.2,11.5c-0.2,2.1-0.5,4.1-0.5,6.2
		c0,1.8-1.1,3.5-0.2,5.3c0.1,0.1,0.1,0.2,0.2,0.4"/>
	<path class="st0" d="M338.3,273.9c-4.7,3.8-10.2,5.6-15.9,6.9c-1.3,0.3-2.6,0.7-4,0.2"/>
	<path class="st0" d="M162.2,194.5c-1,1.3-1.5,2.7-1.7,4.4c-0.2,1.6-1.2,3-1.9,4.5c-1,2.4-1.6,4.9-3,7.1c-2.5,4-3.5,8.7-5.3,13
		c-1.8,4.2-3.5,8.5-5,12.9c-2.2,6.3-4.2,12.7-6.4,18.9c-1.4,3.8-3.2,7.5-4.7,11.3c-1.2,2.9-2.2,5.9-2.2,9.1c0,0.7-0.5,1.5-0.7,2.2"
		/>
	<path class="st0" d="M192.1,86.8c0.4,1,0.3,2,0.1,3.1c-0.9,3.9-2.9,7.3-3.9,11.1c-1.7,6.3-2.7,12.7-2.2,19.3
		c0.1,0.9,0.1,1.9-0.7,2.6"/>
	<path class="st0" d="M338.9,273.7c-0.7,0.2-0.5-0.4-0.5-0.6c0-0.9-0.5-1.2-1.3-1.3c-4.3-0.6-8.5-1.4-12.8-2
		c-2.2-0.3-4.5,0.3-6.7,0.3c-2.9,0-5.8,0-8.8,0.3c-2.7,0.3-5.4,1-8,1.5c-0.9,0.2-1.8,0.6-2.5,1.1c-0.8,0.5-1.5,0.6-2.4,0.5"/>
	<path class="st0" d="M98.6,197.8c-2.6-1-5.2,0-7.8,0.1c-3.8,0.1-7.5,0.7-11.1-0.8c-0.9-0.4-2-0.1-2.2,1.4c-0.2,2.3-0.7,4.5-0.9,6.7
		c-0.4,4.9-0.6,9.9-1.6,14.8c-0.4,2-0.2,4-0.2,6c0.1,3.5-0.6,6.9-0.3,10.4c0.1,1.8,1.1,3.5,1.3,5.3c0.2,1.6,0.9,2.7,2.1,3.6"/>
	<path class="st0" d="M266.3,320.3c0.3,0.5,1.2,0,1.3,1c0.1,0.6,1,1.1,1.6,1.1c3.5-0.1,7,1.1,10.6,0.4c2.3-0.5,4.6-0.9,6.9-1.5
		c1-0.2,1.8-0.7,2.9-0.6c0.9,0.1,1.7-0.8,1.9-1.4c0.8-2.2,2.4-4.2,2.1-6.7"/>
	<path class="st0" d="M130.3,207.6c-1.4,1.1-2,2.8-2.5,4.4c-0.8,2.8-2.3,5.4-3.2,8.2c-1.5,5.1-3.4,10.1-4.1,15.5
		c-0.3,2.6-1.2,5.1-1.8,7.7"/>
	<path class="st0" d="M365,329.6c1.2,0.9,2.5,1.5,3.9,2c1.3,0.4,2.4,1.1,2.3,2.6c-0.1,1.2-1.9,2.5-3.2,2.6c-2.6,0-5-0.2-6.8-2.4"/>
	<path class="st0" d="M315.7,329.9c-0.7,0.7-1.3,1.5-1.9,2.3c-0.7,0.9-1.5,1.7-0.8,2.9c0.7,1.3,2,1.9,3.4,2c2.5,0.2,5-0.3,7.5-0.3
		c1.9-0.1,3.9,0,5.8,0"/>
	<path class="st0" d="M132.2,281.1c-0.8,3.6-0.8,7.4-1.7,10.9c-0.5,2-0.9,4-2.5,5.5"/>
	<path class="st0" d="M141.3,111c-0.1,1.9,0.9,3.3,1.6,4.9c0.6,1.3,1.5,2.4,2.3,3.6c0.6,0.9,1.8,1.4,2.7,2.2
		c2.4,2.2,4.6,4.9,8.3,5.2c3,0.2,5.1-0.5,6.2-3.2c0.7-1.7,1.9-1.9,3.3-1.8c0.6,0,0.3,0.5,0.4,0.7"/>
	<path class="st0" d="M74,236.8c-3.8-0.3-7.5-0.3-11.3,0"/>
	<path class="st0" d="M329.2,338.7c-0.7,0.7-1.4,1.3-2.5,1.5c-1.8,0.2-1.8,2.1-2.8,3.2c-0.7,0.7-1.2,1.2-2.1,1.4"/>
	<path class="st0" d="M300.2,251.3c0.9-0.1,0.7,0.6,0.7,1.1c0,5.3-1,10.4-2.8,15.3c-0.3,0.7,0,1.4-0.5,2"/>
	<path class="st0" d="M145.1,120.1c-2.6,1.7-5.1,3.5-7.5,5.4c-1.9,1.5-4,3.1-5.5,4.9c-2.6,3.1-6,3.4-9.2,2.7
		c-6.5-1.4-12.4-4.2-16.4-9.9c-0.3-0.4-0.5-0.7-0.7-1.1c-1.8-2.9-1.7-3.8,0.9-6c4.7-3.9,9.5-7.7,13.6-12.3c0.9-1,2-0.5,2.9-0.9"/>
	<path class="st0" d="M123.8,90c-2,2.2-4.4,4-6.6,6c-0.2,0.2-0.3,0.6-0.5,0.9"/>
	<path class="st0" d="M134,129c3.8,4,7,8.5,8.9,13.7c1.4,3.9,3.5,7.4,5.7,10.9c2.5,4,6.1,7,9.3,10.4c0.5,0.5,1.1,0.9,1.4,1.5
		c0.5,0.9,1.1,1.9,0,2.9c-0.5,0.5-0.9,1.1-1.3,1.6c-1.1,1.4-1.1,3-0.1,4.3c1.4,2,2.5,4.1,3.6,6.2c1.6,3,1.9,6.6,3.3,9.7
		c1,2.1,1.1,4.2,0.7,6.4c-0.2,1,0.4,1.8,0.5,2.7"/>
	<path class="st0" d="M145.6,186.8c-0.3,0-0.7-0.1-0.7,0.4c0.1,2.6,0,5.2,0.3,7.8c0.3,3.3,2,6.6,1,10c-0.1,0.3-0.2,0.6-0.3,0.9"/>
	<path class="st0" d="M293.8,300.2c0.5,3.4-0.3,4.7-3.3,6.2c-0.7,0.4-1.3,1-1.7,1.9c-1.4,3.2-3.8,5.6-6.8,7.3
		c-3.7,2.1-7.7,2.9-11.9,3.1c-1.5,0-1.9,1.2-2.6,2"/>
	<path class="st0" d="M280.4,296.8c-1.2,0.7-1.3,2.1-1.8,3.2"/>
	<path class="st0" d="M160,167.9c2.4,0.3,3.8,1.8,5.2,3.6"/>
	<path class="st0" d="M157.5,88.8c-1.5,1.7-3.2,3.1-5.3,4"/>
	<path class="st0" d="M293.7,288.2c-1.6,0.3-3.1,1.2-4.7,0.4"/>
	<path class="st0" d="M134.2,102.1c-0.2,1.5-0.5,2.9-2.3,3.5c-1.7,0.6-2.9,2.2-3.9,3.8"/>
	<path class="st0" d="M143.8,91.5c0.6,0.5,0.8,1.3,0.9,2c0.2,1.7,1,2.1,2.4,1.3"/>
	<path class="st0" d="M177.7,99c-0.5,1-1.9,1.1-2.2,2.4"/>
	<path class="st0" d="M136.9,150c-0.4,4-0.2,7.9,0.4,11.8"/>
	<path class="st0" d="M149.7,188.1c-1.7,1.6-0.6,3.8-1.1,5.7c-0.3,1.3-0.3,2.8-0.4,4.2c0,0.8-0.4,1.2-0.9,1.6"/>
	<path class="st0" d="M130.2,313.3c1.5-1,3.1-1.9,4.2-3.4c0.8-1,2.2-0.8,3.2-0.2c1,0.7,1.6,1.7,2,2.9"/>
	<path class="st0" d="M323.2,344.5c1,0.5-0.1,1.5,0.7,2.2c1.2,1.1,2.5,1,3.9,0.9"/>
	<path class="st0" d="M130,294.9c1.9,1.3,3.9,2.2,5,4.5c0.8,1.6,2.6,0.5,3.9,0.5c1.1,0,1.3-0.9,1.5-1.9c0.4-2,2.1-3.1,3.8-3.7
		c0.8-0.3,1.4-0.8,2.2-1"/>
	<path class="st0" d="M179.4,96.6c-0.4-0.9-1.2-1-2-0.9"/>
	<path class="st0" d="M140.4,299.3c1.5,1.2,3.2,2.2,5.1,2.5c0.3,0.1,0.6,0.1,0.7,0.4c1.1,2.3,3.3,2.6,5.5,2.9"/>
	<path class="st0" d="M179,108.3c1.1,1.3,1,2.9,1.3,4.4c0.2,1.3,0.1,2.6,1.3,3.5"/>
	<path class="st0" d="M301.3,292.5c-1,0-0.9,1-1,1.5c-0.8,2.5-4.2,5.9-8.1,5.8c-1.2,0-2.4,0.2-3.6,0.1c-0.8,0-1.2,0.5-1.6,0.9
		c-1.7,1.9-1.9,2-4,0.2"/>
	<path class="st0" d="M71.1,257.7c-2.3,0.5-2.4,2.6-3.2,4.2c-0.1,0.3-0.4,0.5-0.4,0.9"/>
	<path class="st0" d="M318.5,280.5c-1.2,1.5-2.9,1-4.4,1c-4.5,0.2-8.8-1-13.1-1.8"/>
	<path class="st0" d="M160,189.7c-1.1,1.9-1.2,4.2-2.1,6.2c-0.3,0.7-0.6,1.4-1.2,2"/>
	<path class="st0" d="M172.6,99.5c0.5,2.3,2.9,1.6,4.2,2.6"/>
	<path class="st0" d="M129.1,99.7c1,1.2,1,2.7,0.6,4c-0.3,1.1-0.3,2.1-0.1,3.1"/>
	<path class="st0" d="M141.5,140c-1.2,0.8-2.4,1.4-3.8,0.5"/>
	<path class="st0" d="M293.7,251.2c-0.5,0.1-1,0.1-1.5,0.2"/>
	<path class="st0" d="M131.1,93.1c-0.5,0-0.9,0-0.9,0.7c0,1.1-0.5,2.2-0.7,3.3c-0.5,3.7-2.8,5.3-6.2,5.8"/>
	<path class="st0" d="M306.8,276.9c-2-0.7-4.1-0.9-6.2-0.7c-0.7,0.1-0.2,0.5-0.4,0.7"/>
	<path class="st0" d="M155.1,301.3c2.1,0.2,4,0.7,4.7,3.1"/>
	<path class="st0" d="M132.9,105.4c0.5,1.1,0.8,2,0.3,3.3c-0.4,0.9-0.3,2.1,0.3,3.1"/>
	<path class="st0" d="M134.7,309.3c-1.2-1.2-1.7-2.6-2.3-4.2c-0.8-2.4-2.6-4.3-5-5.5"/>
	<path class="st0" d="M151.8,307.1c-0.2-2,0.6-3.6,2.2-4.7c1.3-0.9,1-2.1,0.3-2.9c-1-1-2.1-2.6-3.7-1.8c-1.8,0.9-3.5,2.2-4.6,4.1"/>
	<path class="st0" d="M183.1,112.6c-0.3,2.7-1.6,5.5,0.3,8.2c0.1,0.2-0.1,0.6,0.2,0.7c2.7,1.4,2.6,4.3,3.6,6.6"/>
</g>
</svg>
