<?xml version="1.0" encoding="utf-8"?>
<!-- Generator: Adobe Illustrator 27.5.0, SVG Export Plug-In . SVG Version: 6.00 Build 0)  -->
<svg version="1.1" id="Layer_1" xmlns="http://www.w3.org/2000/svg" xmlns:xlink="http://www.w3.org/1999/xlink" x="0px" y="0px"
	 viewBox="0 0 59.5 59.5" style="enable-background:new 0 0 59.5 59.5;" xml:space="preserve">
<style type="text/css">
	.st0{stroke:#000000;stroke-width:0.25;stroke-miterlimit:10;}
	.st1{fill:none;stroke:#000000;stroke-width:0.25;stroke-miterlimit:10;}
</style>
<g>
	<path d="M41.5,12.8l-5,2.2v-4l8.8-4.2l0.6,0.4v17.7h2.7v4H37.9v-4h3.5V12.8z"/>
</g>
<path d="M113.2,37.5c1.1-0.1,2.7-0.7,2.8-1.2c0-0.1-4.5,0.4-4.5,0c1,0.3,5.8-1.9,4.8-2.8c-0.7,0.5-4.1,1.8-4.6,1.6
	c0.3,0.3,5.8-3.6,3.9-3.5c-0.3,0.4-3.9,2.4-4.3,2.4c0.3-0.3,5.6-4,4.1-4.1c-2.3,1.5-7.3,4.9-10.7,5.4c-0.1-1-0.2-1.9,0.2-2.5
	c0.3,0.1,0.8,0.1,1-0.1c-0.1,0.1-0.8-1-0.6-1c0.2,0.7,1.7,1.2,1.3,2c1.4-0.7,0.7-2.8-1.2-3.1c-1.5-1.8-4.6-0.6-4,1.5
	c0,0,0.1,1.4-0.2,2c-2.8,5.7-2.7,9.2-2.8,9.6c-0.9,1.5-3.2,4.5-4.1,6.1c-0.6,1.1,2,0,3-0.5c0.4-0.3,2-4.1,2.1-4.2
	c-0.1-0.1,0,1.7,0.5,1.7l0,3.1c0,0-0.8,0-1.1,0.3c-0.3,0.3-0.4,0.5-0.1,0.3c0.3-0.2,0.7-0.3,1.1-0.3c0.4,0,1-0.1,1.5,0.1
	c0.5,0.2,1,0.7,0.8,0.2c-0.2-0.4-0.4-0.6-0.9-0.7c0.4-0.1,1.1,0,1.6,0.2c0.5,0.2,1,0.6,0.7,0.1c-2.3-1.8-1.8,0.7-1.8-3.4
	c0.1-0.2,0.2-0.3,0.3-0.6c0.2-1.1,0.2-1.2,0.2-1.2c0.6-0.4,1.7-1.5,2-2.4c0.5,0.9,1.3,2,1.8,2.1c0.6,0.3-0.9-1.7-0.7-2.1
	c0.1,0.3,2.3,2.9,2.5,2.5c-0.2-0.7-0.8-2-0.8-2c0.2,0.3,4.3,3.9,3.6,2.5c-0.4-0.4-2.1-2.4-2.1-2.4c0.9,0.5,3.9,2.7,5.2,2.5
	c0-0.4-3.1-2.2-3.5-2.7c0,0,4.1,2,5.3,1.5c0.2-0.2-4-1.8-4.1-2.1c0.1,0.4,5.4,0.7,4.7,0c-3.8-0.6-7.8-1.6-10.9-4.2
	c1.2,0.2,6.3,1.5,6.3,1c-1.2-0.6-1.7-0.9-1.7-0.9c0.2,0.1,4.9,0.5,4.5,0c-1.3-0.2-3.2-0.8-3.2-0.8S112.1,37.6,113.2,37.5"/>
<path d="M101.1,49.6c0,0-0.6,0-1,0.2l0-3c0.4-0.3,0.5-1.6,0.5-1.6s0,0.9,0.2,1.3c0.1,0.1,0.2,0.2,0.3,0.3L101.1,49.6z"/>
<path d="M103.9,31.2c0.1-0.3,0.4-0.4,0.6-0.3c0.3,0.1,0.4,0.4,0.3,0.6c-0.1,0.3-0.4,0.4-0.6,0.3C103.9,31.7,103.8,31.4,103.9,31.2"
	/>
<g>
	<path d="M111.2,16.9c0,0,0,0.1,0.1,0.8c0.1,0.4,0.1,0.9,0,1.3c0.4,0.4,0.7,0.8,0.9,1.1c0.1,0.1,0.1,0.2,0.2,0.3
		c0.1,0,0.3,0,0.4,0.1c0.3,0.2,0.3,0.5,0.2,0.7c-0.1,0.2-0.5,0.2-0.7,0.1c-0.1-0.1-0.2-0.1-0.2-0.2c-0.1,0.1-0.3,0.1-0.4,0.1
		c-0.4,0-1,0-1.8-0.3c-0.1,0-0.5-0.1-0.9-0.2c-0.4-0.1-0.7-0.4-0.7-0.4c0,0,0.2,0.4,0.5,0.5c0.4,0.2,0.7,0.3,0.7,0.3
		c-0.3,0.2-0.6,0.3-1,0.4c-0.2,0-0.5,0.1-0.7,0.1c0.4,0.5,0.4,0.4,0.8,0.8c0.8,0.8,2,2,2.5,2c0.4,0,0.9,0.2,0.8,0.5
		c-0.1,0.4-0.7,0.6-1.1,0.6c-0.3-0.1-1.6-0.7-2.1-1c-0.5-0.4-2.2-1.4-2.2-1.4s-1.4,1.1-1.7,1.3l0.7,1.3c0,0,0.9,1.6,1,2
		c0.1,0.5,0.3,1.1-0.2,1.5c-0.5,0.4-0.7-0.1-0.7-0.5c0-0.4-0.2-0.7-0.6-1.2c-1-1.2-1.8-2.3-2.8-2.6c-1-0.3-3.6-1.8-4.7-2.6
		c-1.1-0.8-2.5-2.1-3.1-2.8c-0.5-0.6-0.9-1.2-1.7-1.9c-0.7-0.7-2.3-2.1-2.8-2.4c-0.6-0.3-1.2,0.2-1.5-0.2c-0.2-0.3,0-0.6,0.4-0.9
		c0.5-0.2,1-0.2,1.6,0c0.8,0.3,4,1.9,4,1.9s0.1-0.3,0.3-0.7c-0.1-0.1-0.2-0.3-0.2-0.4c-0.1-0.6,0.6-0.9,1-0.5
		c0.4-0.3,0.7-0.6,0.7-0.6s-0.9-1.9-1.1-2.7c-0.3-1.1-0.4-1.9-0.2-2.4c0.5-1.2,1.4-0.6,1.3-0.1c-0.2,0.6-0.3,0.8-0.1,1.2
		c0.2,0.5,0.6,1.5,1,2c1.3,1.5,4.3,3.4,6,5.3c0.2,0.2,0.4,0.5,0.7,0.7c0.1-0.1,0.1-0.2,0.2-0.2c-0.3-0.3-0.2-0.9,0.3-1.1
		c0.3-0.1,0.5,0,0.7,0.1c0.3-0.2,0.6-0.5,1-0.6c2.6-1.2,4,0,4,0s0.6-0.6,1.1,0C111.8,16.3,111.2,16.9,111.2,16.9z M107,19.3
		c0.1,0.2,0.3,0.3,0.5,0.2c0.2-0.1,0.3-0.3,0.2-0.5c-0.1-0.2-0.3-0.3-0.5-0.2C107,18.9,106.9,19.1,107,19.3 M109.5,17.7
		c0.1,0.2,0.3,0.3,0.5,0.2c0.2-0.1,0.3-0.3,0.2-0.5c-0.1-0.2-0.3-0.3-0.5-0.2C109.5,17.3,109.4,17.5,109.5,17.7"/>
</g>
<g>
	<path d="M136.9,31c-0.2,0.4-0.8,0.8-1.2,1c-0.3,0.2-1.1,0.5-1.1,0.5s0.4,0.1,1.2,0.2c0.6,0.1-0.1,0.5-0.8,0.6c-0.7,0-1.7,0-1.7,0
		s0.5,0.3,1,0.6c0.5,0.3,0.2,0.4-0.5,0.4c-0.8-0.1-2.2-0.4-2.2-0.4s0.8,0.5,1.2,0.8c0.3,0.2-0.8,0.1-1.3-0.1
		c-0.5-0.2-1.4-0.5-1.4-0.5s1,0.9,0.8,0.9c-0.8,0.1-2.2-1.3-2.2-1.3s0.7,1.2,0.4,1.2c-0.5,0-2.2-2-2.2-2s0,0.4-0.3,1.2
		c-0.3,0.9-0.7,1.2-0.5,1.9c0.1,0.6,0.5,2.6,0.7,3.2c0.2,0.6,0.2,1.2,0,1.8c-0.2,0.8-1,0.9-0.9,0c0.2-0.9-0.1-1.4-0.3-2
		c-0.2-0.6-1.3-3.2-1.3-3.2c-1.3,0.2-2.1,0-2.1,0s-0.9,2.2-1.5,3.2c-0.6,1-0.9,1.7-1.5,2c-0.5,0.4-1.1,0.4-1.3,0.2
		c-0.2-0.2,0-0.6,0.4-0.6c0.4-0.1,0.8-0.9,1.1-1.6c0.5-0.9,0.7-1.7,1-2.9c0.1-0.7,0-2.5-0.1-3.1c-0.2-1.2-0.3-1.2-0.4-3
		c-0.1-1.4-0.1-3.8-0.1-3.8s-2.4,0.1-3.2-0.9c-0.5-0.6-1.3-2.4-1.6-2.8c-0.4-0.7-0.9-0.8-1.2-1c-0.2-0.2-0.3-0.6,0.2-0.7
		c0.5-0.1,0.9,0.2,1.3,0.6c0.5,0.6,0.9,1.3,1.3,2c0.6,0.9,0.9,1.3,1.5,1.3c0.5,0,1.8,0,2-0.8c0.1-0.3,0.3-1.4,0.3-1.4s-0.8,0-1.3,0
		c0,0,0.2-0.1,0.5-0.4c0.2-0.3,0.3-0.4,0.3-0.5c0,0-0.1,0.2-0.5,0.5c-0.4,0.3-0.7,0.4-0.7,0.4c-0.5-0.1-1.1-0.2-1.3-0.3
		c-0.2-0.1-0.3-0.4-0.3-0.6c-0.3,0-0.5-0.2-0.5-0.4c0-0.2,0.3-0.4,0.6-0.4c0.1,0,0.2,0,0.3,0c0.3-0.1,0.6-0.3,1-0.4
		c0.9-0.3,1.2-0.4,1.6-0.9c0.5-0.5,0.9-0.9,0.9-0.9s-0.2-0.6,0-1.2c0.2-0.6,0.3-1.1,0.5-1c0.2,0.2,0.4,0.6,0.5,1.1
		c0.2,0.5,0.1,0.8,0.1,0.8s1-0.2,1.7,0.4c0,0,0.4-0.3,0.7-0.5c1-0.5,1.8-0.2,1.6,0.1c-0.4,0.4-1.5,1.3-1.5,1.3s0.4,1.1,0.6,1.8
		c0.2,0.8,0.2,1.6,0.5,2.2c0.3,0.5,1.4,1.5,2,1.9c0.6,0.4,1.4,1,1.6,1.8c0.2,0.8,0.3,2.2,0.4,2.8c0.1,0.5-0.1,1.5-0.5,1.8
		c-0.4,0.4-0.9,0-0.6-0.4c0.2-0.4,0.2-0.5,0.2-1.4c-0.1-0.9-0.2-2.2-0.6-2.6c-0.4-0.4-1.9-1-1.9-1s0.5,1.1,0.5,2.3
		c0.1,0.9,0,3.3,0,3.3s0.8,0.4,1.6,0.5c0.7,0,2-0.1,3-0.5c0.8-0.3,2.2-1.4,2.9-1.9c0.5-0.5,1.5-1.8,1.8-1.8c0.5,0-0.9,2-0.9,2
		s1.5-0.9,1.3-0.5c-0.1,0.4-0.6,0.9-1,1.2c-0.4,0.3-0.7,0.6-0.7,0.6S137.1,30.6,136.9,31z M120.8,20c-0.1,0.2,0,0.5,0.3,0.6
		c0.2,0.1,0.5,0,0.6-0.3c0.1-0.2,0-0.5-0.3-0.6C121.1,19.6,120.9,19.7,120.8,20"/>
</g>
<path d="M112.9,53.2c-0.1,2.5-1.7,4.1-4,4c-2.1,0-3.7-1.6-3.6-3.9c0.1-2.6,1.8-4.1,4-4.1C111.5,49.3,113,51,112.9,53.2z M106.9,53.1
	c0,2.1,0.8,3.5,2.1,3.6c1.3,0,2.2-1.3,2.3-3.2c0.1-2.2-0.8-3.6-2.1-3.6C107.9,49.9,107,51.2,106.9,53.1z"/>
<path d="M118.2,55.5l0,0.2c0,0,0,0.1,0,0.1l-2.8,0.9c0,0-0.1,0-0.1,0l-0.1-0.2c0.7-0.5,0.7-0.5,0.6-0.7l-1.9-6.1
	c0-0.1-0.1-0.2-0.9-0.2l0-0.2c0,0,0-0.1,0-0.1l3-1c1.7-0.6,3,0.1,3.4,1.3c0.4,1.3-0.2,2.5-1.8,3c-0.3,0.1-0.7,0.2-1.2,0.3l0.8,2.5
	C117.2,55.6,117.3,55.6,118.2,55.5z M116.2,52.4c0.2,0,0.3-0.1,0.5-0.1c1-0.3,1.5-1.1,1.2-2.1c-0.3-1.1-1.1-1.5-2.2-1.2
	c-0.2,0.1-0.4,0.1-0.5,0.2L116.2,52.4z"/>
<path d="M120.2,47.2c-0.9,0.7-1.2,1-0.9,1.9l-0.2,0.1c0,0-0.1,0-0.1,0l-0.8-1.4l5.2-3.6l1.1,1.3c0,0,0,0.1,0,0.1l-0.2,0.2
	c-0.7-0.7-1.1-0.5-2.1,0.1l-0.4,0.3l3.6,5.2c0.1,0.1,0.1,0.2,0.9-0.1l0.1,0.2c0,0,0,0.1,0,0.1l-2.4,1.6c0,0-0.1,0-0.1,0l-0.1-0.1
	c0.5-0.6,0.5-0.7,0.4-0.8l-3.6-5.3L120.2,47.2z"/>
<path d="M116.7,11.1l-0.1,0.1c0,0-0.1,0-0.1,0l-1.9-0.9c0,0-0.1-0.1,0-0.1l0-0.2c0.8,0.1,0.9,0.1,0.9,0l2-4.4c0.7-1.4,2.3-1.6,3.6-1
	c1.3,0.6,2.3,1.9,1.6,3.3l-2,4.4c-0.1,0.1-0.1,0.2,0.6,0.7l-0.1,0.1c0,0,0,0.1-0.1,0l-2.6-1.2c0,0,0-0.1,0-0.1l0-0.2
	c0.8,0.1,0.9,0.1,0.9,0l1.9-4.2c0.5-1-0.1-1.9-0.9-2.3c-0.9-0.4-1.8-0.3-2.4,0.9l-1.9,4.2C116.1,10.5,116.1,10.6,116.7,11.1z"/>
<path d="M112.2,6c0.3,0.1,0.5,0.1,0.8,0.1l0.2-2.8c0-0.2,0-0.2-0.8-0.5l0-0.2c0,0,0-0.1,0.1-0.1l2.9,0.2c0,0,0.1,0,0.1,0.1l0,0.2
	c-0.8,0.2-0.8,0.2-0.8,0.4l-0.5,6.3c0,0.2,0,0.2,0.8,0.5l0,0.2c0,0,0,0.1-0.1,0.1l-3.4-0.3c-1.8-0.2-2.6-1-2.5-2.2
	c0.1-1.1,1-1.8,2.2-1.8c-0.8-0.2-1.5-0.9-2.6-3.4c-0.1-0.1-0.1-0.2-0.6-0.4l0-0.2c0,0,0-0.1,0.1-0.1l1.9,0.2c0.1,0,0.2,0.1,0.2,0.1
	C111,5.1,111.6,5.9,112.2,6z M112.9,6.6c-0.2,0-0.3-0.1-0.5-0.1c-1.2-0.1-1.9,0.4-2,1.4c-0.1,1.1,0.4,1.7,1.6,1.8c0.2,0,0.4,0,0.6,0
	L112.9,6.6z"/>
<path d="M106.6,4.4c0,0,0,0.1,0,0.1l-0.2,0.1c-0.3-1.1-1.1-1.5-2.1-1.2c-1,0.2-1.5,0.8-1.3,1.5c0.4,1.7,3.9,0.7,4.4,3
	c0.3,1.3-0.5,2.5-2.1,2.8c-0.8,0.2-1.3,0.2-1.8,0L103,9.2c0,0,0-0.1,0-0.1l0.2-0.1c0.3,1,0.9,1.4,1.9,1.2c0.8-0.2,1.2-0.8,1-1.3
	c-0.4-1.7-3.9-0.6-4.4-3.1c-0.3-1.4,0.6-2.5,2.3-2.9c0.9-0.2,1.8-0.3,2.2-0.1L106.6,4.4z"/>
<path d="M83.9,21.7c2-0.1,4.5-0.4,6.6-0.7l-5.6-1.8c-0.1,0-0.2,0-0.7,0.7l-0.2-0.1c0,0-0.1,0,0-0.1l0.6-2c0,0,0.1-0.1,0.1-0.1l0.2,0
	c0,0.8,0.1,0.8,0.2,0.9c2,0.7,4,1.3,6.1,1.9c0.1,0,0.2,0,0.7-0.7l0.2,0.1c0,0,0.1,0,0,0.1l-0.7,2.4c-1.9,0.3-3.7,0.5-5.6,0.6
	c1.4,1.2,3,2.3,4.4,3.5l-0.6,2.3c0,0-0.1,0.1-0.1,0.1l-0.2,0c0-0.8-0.1-0.9-0.2-0.9c-2-0.6-4.1-1.1-6.2-1.6c-0.2,0-0.2,0-0.7,0.7
	l-0.2-0.1c0,0-0.1,0,0-0.1l0.8-2.8c0,0,0.1-0.1,0.1-0.1l0.2,0c0,0.8,0.1,0.9,0.2,0.9l5.7,1.5c-1.7-1.3-3.5-2.7-5.3-4.1L83.9,21.7z"
	/>
<path d="M90.1,33.5l0.2,0c0,0,0.1,0,0.1,0.1l0.3,2.1c0,0,0,0.1-0.1,0.1l-0.2,0.1c-0.3-0.8-0.4-0.8-0.5-0.7l-4.8,0.6
	c-1.6,0.2-2.5-1.1-2.7-2.5c-0.2-1.4,0.4-2.9,2-3.1l4.8-0.6c0.1,0,0.2,0,0.3-0.9l0.2,0c0,0,0.1,0,0.1,0.1l0.3,2.8c0,0,0,0.1-0.1,0.1
	l-0.2,0.1c-0.3-0.8-0.4-0.8-0.5-0.7l-4.6,0.6c-1.1,0.1-1.6,1.1-1.5,1.9c0.1,0.9,0.7,1.7,2,1.6l4.5-0.6C89.9,34.4,90,34.3,90.1,33.5z
	"/>
<path d="M86.7,44.6c-0.2,0.1-0.4-0.6-0.5-0.6c1.4-2.3,2.6-4.4,3.7-6.6l-5,2.5c-0.1,0.1-0.2,0.1,0,0.9c-0.1,0-0.2,0.1-0.3,0
	c0-0.2-1.3-2-0.8-2.1c0.6,0.6,0.6,0.6,0.7,0.5l5.7-2.9c0.1-0.1,0.2-0.1,0-0.9c0.3-0.4,1.1,1.8,1.2,1.9c-1,2-2,3.7-3.1,5.5l4.1-2.1
	c0.1-0.1,0.2-0.1,0-0.9c0.4-0.4,1.1,1.8,1.2,1.8c0,0.1-0.1,0.2-0.2,0.2c-0.6-0.6-0.6-0.6-0.7-0.5L86.7,44.6z"/>
<g>
	<path class="st0" d="M12.1,47.5c-0.1-0.5-0.2-1-0.1-1.5c0.1-0.5,0.2-1,0.4-1.5c-0.8,0.3-1.5,0.5-2.3,0.6c-1.2,0.1-2-0.4-2.9-1
		c-0.2-0.2-0.3-0.5-0.4-0.7c-0.1-0.1-0.2-0.3-0.3-0.4c-0.4-0.7-0.5-1.4-0.7-2.2c-0.2-0.6-0.2-1.3-0.3-2c0-0.3-0.1-0.6-0.1-0.9
		c0-0.3-0.1-0.6,0-1c0.1-0.2,0-0.5,0-0.7c-0.1-0.5,0.1-0.9,0.1-1.4c0-0.3,0.1-0.7,0.1-1c0.1-0.4,0.1-0.7,0.1-1.1
		c0.1-1,0.1-2.1,0.3-3.1c0.1-0.5,0.2-1,0.2-1.4c0-0.3,0.1-0.6,0.2-0.8c0.1-0.5,0.1-1.1,0.3-1.6c0.1-0.6,0.3-1.2,0.5-1.8
		c0.1-0.4,0.2-0.9,0.4-1.3c0.1-0.3,0.2-0.6,0.3-0.9c0.3-0.8,0.9-1.5,1.5-2.2c0.6-0.5,1.2-1,1.8-1.4c0.7-0.5,1.3-1,1.9-1.5
		c0.3-0.3,0.6-0.6,0.9-0.8c0.4-0.4,0.3-0.9,0.3-1.3c-0.3,0.3-0.6,0.7-1,0.9c-0.1-0.4,0.1-0.6,0.2-0.9c0.3-0.6,0.2-1.2,0.1-1.8
		c0-0.4,0-0.9,0-1.3c0-0.4,0.1-0.8,0.2-1.1c0.2-0.5,0.4-0.9,0.6-1.4C14.8,8.4,15,8,15.4,7.7c0.5-0.5,1-0.8,1.6-1.1
		c0.3-0.1,0.7-0.2,1-0.2c0.4,0,0.9-0.1,1.3,0c0.4,0.1,0.8,0.1,1.1,0.4c0,0,0.1,0.1,0.1,0.1c0.7,0.2,1.2,0.6,1.7,1
		c0.4,0.2,0.6,0.6,0.9,0.9c0.3,0.3,0.5,0.7,0.7,1.1c0.2,0.3,0.2,0.7,0.3,1c0.1,0.3,0.2,0.6,0.2,0.9c0.3,0.9,0.1,1.7-0.2,2.5
		c-0.3,1-0.7,2-0.8,3c-0.1,0.8,0,1.5,0.2,2.3c0,0.1,0,0.2,0,0.3c-0.2,0.1-0.3,0-0.4-0.2c-0.1-0.2-0.2-0.5-0.4-0.7
		c-0.2-0.2-0.3-0.5-0.4-0.8c-0.1-0.3-0.1-0.7-0.2-1c0,0.2,0,0.5-0.1,0.7c-0.1,0.3-0.3,0.5-0.6,0.4c-0.2-0.1-0.2,0-0.3,0.2
		c0,0.2-0.1,0.3-0.3,0.4c-0.1,0-0.2,0.1-0.3,0.2c-0.1,0.1-0.2,0.1-0.3,0.1c-0.2-0.1-0.3,0-0.4,0.2c-0.2,0.4-0.7,0.5-1.1,0.5
		c-0.5-0.1-0.8-0.4-1.1-0.8c-0.2-0.2-0.3-0.1-0.4-0.1c-0.4,0.2-0.7,0.6-1.1,0.9c-0.1,0.1-0.1,0.1,0,0.2c0.6,0.6,1,1.3,1.3,2.1
		c0.2,0.6,0.6,1.1,1,1.6c0.4,0.5,0.9,1,1.4,1.4c0.2,0.1,0.3,0.3,0.4,0.5c0.1,0.1,0.2,0.1,0.3,0c0.5-0.4,1.1-0.6,1.8-0.7
		c0.7-0.1,1.6,0.5,1.8,1.2c0.3,0.9,0.2,1.8,0,2.7c0,0.1-0.1,0.3-0.2,0.4c-0.1,0.2,0,0.3,0.1,0.4c0.5,0.4,0.9,0.9,1.3,1.3
		c0.4,0.4,0.9,0.7,1.3,1c0.6,0.4,1.2,0.8,1.8,1.2c0.3,0.2,0.7,0.4,1.1,0.7c0.4,0.3,0.9,0.5,1.3,0.9c0.3,0.3,0.7,0.5,1.1,0.7
		c0.6,0.4,1.2,0.8,1.8,1.2c0.3,0.2,0.6,0.4,0.9,0.6c0.4,0.3,0.8,0.5,1.1,0.8c0.3,0.3,0.8,0.5,1.2,0.7c0.3,0.2,0.5,0.4,0.8,0.5
		c0.1,0,0.1,0.1,0.1,0.2c0,0.1,0,0.2,0.1,0.3c0.1,0.1,0,0.2,0,0.3c-0.1,0.1-0.2,0.2-0.4,0.2c-0.4-0.1-0.6-0.4-1-0.6
		c-0.4-0.2-0.8-0.6-1.3-0.7c-0.5-0.2-1.1-0.3-1.6-0.4c0,0.1,0,0.2,0.1,0.3c0.3,0.3,0.4,0.6,0.6,0.9c0.1,0.2,0.1,0.5-0.1,0.6
		c-0.2,0.1-0.5,0.1-0.6-0.1c-0.3-0.4-0.6-0.8-0.9-1.3c-0.4-0.5-0.7-1.1-1.1-1.5c-0.4-0.3-0.8-0.6-1.2-0.8c-0.7-0.3-1.4-0.5-2.1-0.8
		c-0.4-0.2-0.8-0.5-1.3-0.7c-0.6-0.3-1.2-0.7-1.8-1.1c-0.6-0.4-1.3-0.8-1.9-1.3c-0.2-0.2-0.5-0.3-0.7-0.5c-0.1,0.1-0.1,0.1-0.2,0.2
		c-0.3,0.6-0.7,1.2-1.1,1.8c-0.3,0.5-0.6,1-0.8,1.5c-0.4,0.8-0.8,1.5-1.1,2.2c-0.3,0.6-0.6,1.2-0.8,1.8c-0.1,0.5-0.4,1-0.6,1.6
		c-0.1,0.4-0.1,0.7-0.2,1.1c-0.2,0.6,0.2,0.9,0.5,1.2c0.4,0.3,0.7,0.5,1.1,0.8c0.6,0.4,1.2,0.7,1.8,1.1c0.3,0.2,0.6,0.4,0.9,0.7
		c0.2,0.4,0.2,0.6-0.3,0.8c-0.5,0.2-1.1,0.2-1.6,0.1c-0.3,0-0.6,0-0.9-0.1c-0.1,0-0.3,0-0.4,0c0.3,0.2,0.6,0.4,0.9,0.8
		c0.1,0.1,0.1,0.3,0,0.4c-0.3,0.4-0.5,0.7-1.1,0.6c-0.5,0-1,0-1.5,0c-0.6,0-1.2-0.1-1.8-0.2c-0.3-0.1-0.7-0.3-1-0.4
		c-0.3-0.1-0.7-0.1-1-0.2c-0.3-0.1-0.7-0.1-1-0.3C12.2,47.5,12.1,47.6,12.1,47.5z M18,14.5c0.1-0.1,0.1-0.3,0.2-0.4
		c0-0.2,0-0.5,0.2-0.7c-0.2-0.2-0.3-0.2-0.4,0.1c-0.1,0.2-0.3,0.4-0.3,0.7c-0.1,0.2-0.3,0.5-0.1,0.7c0.1,0,0.2-0.1,0.3,0.1
		C17.9,14.7,18,14.6,18,14.5L18,14.5z M19.1,30.5c-0.2,0.1-0.2,0.3-0.3,0.5c-0.1,0.2-0.2,0.3-0.4,0.2c-0.2,0-0.2-0.2-0.2-0.4
		c0-0.1,0-0.3,0-0.4c0.1-0.7,0.1-1.3,0-1.9c0,0.2,0,0.5-0.1,0.7c0,0.4-0.1,0.9-0.2,1.3c0,0.2-0.2,0.3-0.4,0.3
		c-0.2-0.4-0.2-0.3-0.1-0.9c0-0.6-0.1-1.1-0.1-1.7c0-0.3-0.1-0.5-0.2-0.7c-0.3-0.3-0.6-0.7-0.9-1c-0.1-0.1-0.2-0.1-0.3,0
		c-0.7,0.4-1.1,1-1.6,1.5c-0.3,0.3-0.6,0.7-0.9,1c-0.5,0.8-1.1,1.5-1.6,2.2c-0.7,0.9-1.4,1.8-2.1,2.8c-0.4,0.6-0.8,1.3-1.3,1.9
		c-0.4,0.5-0.6,1-0.9,1.6c-0.2,0.4-0.4,0.7-0.5,1.2c-0.1,0-0.1,0-0.2,0c0-0.1,0-0.2,0-0.3c0,0,0,0,0,0c-0.1,0.2-0.2,0.4-0.2,0.6
		c-0.1,0-0.2,0-0.3,0c0-0.1,0-0.2,0-0.2c0.1-0.4,0.3-0.7,0.5-1c0.3-0.3,0.7-0.7,0.8-1.1c0-0.1,0.1-0.2,0-0.3
		c-0.2-0.2-0.3-0.5-0.2-0.7c0-0.2-0.1-0.3-0.3-0.3c-0.4-0.1-0.9-0.1-1.3,0c0,0.4-0.1,0.7-0.1,1.1c0,0.8,0,1.5,0.1,2.3
		c0,0.2,0,0.5,0,0.6c0.1,0.3,0.1,0.5,0.1,0.8c0.1,0.8,0.3,1.5,0.6,2.3c0.1,0.3,0.3,0.5,0.4,0.7c0.3,0.5,0.5,0.9,1,1.2
		c0.6,0.3,1.1,0.6,1.8,0.6c0.4,0,0.7,0,1.1,0c0.1,0,0.1,0,0.2,0c0.5-0.1,1-0.4,1.5-0.5c0.2-0.5,0.2-0.9,0.3-1.4
		c0.1-0.5,0.2-0.9,0.2-1.4c0-0.4,0.1-0.8,0.2-1.2c0-0.4,0.1-0.8,0.1-1.2c0-0.6,0.2-1.2,0.2-1.8c0-0.4,0.1-0.9,0.2-1.3
		c0.1-0.8,0.3-1.5,0.5-2.3c0.2-0.8,0.5-1.5,0.8-2.3c0.3-0.6,0.6-1.3,0.7-1.9c0-0.2,0.1-0.2,0.3-0.2c0,0.1,0,0.2,0,0.3
		c0,0.4-0.2,0.7-0.3,1c0,0.1,0,0.2,0.1,0.3c0.2,0.2,0.4,0.2,0.6,0.3c0.6,0.3,1.2,0.4,1.9,0.4c0.2,0,0.5,0,0.6-0.2
		C18.8,31.1,19,30.8,19.1,30.5z M11.3,18.6c-0.1,0.1-0.3,0.2-0.4,0.2c-0.4,0.2-0.6,0.5-1,0.8c-0.8,0.6-1.3,1.4-1.7,2.3
		c-0.4,0.9-0.6,1.9-0.9,2.8c-0.1,0.3-0.2,0.7-0.3,1C7.1,26.2,7,26.6,6.9,27c-0.1,0.5-0.2,0.9-0.3,1.3c-0.1,0.5-0.1,1-0.2,1.4
		c-0.2,0.6-0.2,1.3-0.3,1.9c0,0.4,0.1,0.7,0,1.1c0,0.1,0,0.2,0,0.3c-0.1,0.6-0.1,1.2-0.2,1.9c0.4,0,0.9-0.1,1.3,0
		c0-0.6,0.1-1.2,0.1-1.8c0-0.2,0-0.4,0-0.5c0.2-0.7,0.2-1.4,0.2-2.1c0.1-0.4,0-0.8,0.1-1.2c0.1-0.4,0.2-0.9,0.2-1.3
		c0-0.4,0.1-0.7,0.1-1.1c0.1-0.5,0.1-1-0.1-1.5c-0.1-0.2-0.2-0.4,0.2-0.4c0,0,0,0,0-0.1c0-0.1,0.1-0.2,0.2-0.2
		c0.2,0,0.1,0.2,0.1,0.3c0,0.5,0,1-0.1,1.6c-0.1,0.9-0.2,1.7-0.2,2.6c0.2,0,0.4,0.1,0.6,0.1c0.4-0.1,0.8-0.1,1.2,0
		c0.3,0.1,0.6,0,0.9-0.1c0.1,0,0.2-0.1,0.2-0.3c0-0.4,0.1-0.7,0.1-1.1c0.1-0.5,0.2-0.9,0.3-1.4c0.1-0.4,0.2-0.8,0.3-1.3
		c0.2-0.7,0.3-1.4,0.3-2.1c0-0.3,0-0.7,0-1c0-0.4-0.2-0.7-0.3-1c-0.1-0.3-0.4-0.4-0.5-0.7c-0.1-0.1-0.1-0.2,0-0.2
		c0.1,0,0.2-0.1,0.3,0c0.4,0.4,0.7,0.8,0.8,1.4c0.1,0.4,0.1,0.9,0.1,1.3c0,0.8-0.1,1.5-0.3,2.2c-0.2,0.9-0.4,1.8-0.6,2.7
		c-0.1,0.4-0.2,0.8-0.1,1.3c0.1-0.1,0.2-0.2,0.2-0.3c0.5-0.7,1-1.4,1.5-2.1c0.4-0.6,1-1.2,1.5-1.8c0.4-0.4,0.9-0.6,1.5-0.6
		c0-0.1,0-0.2,0-0.2c0-0.4-0.1-0.8,0-1.2c0-0.2,0.1-0.2,0.3-0.1c0,0.4,0,0.7,0,1.1c0,0.6,0,0.6,0.6,0.7c0.6,0.1,1.1,0.4,1.6,0.7
		c0.1,0.1,0.2,0.3,0.5,0.3c0.1-0.2,0.2-0.3,0.3-0.4c-1.1-1-2-2.1-2.4-3.5c-0.6,0-0.6,0-0.5-0.2c0.1,0,0.3,0.1,0.4,0
		c-0.1-0.6-0.6-0.9-0.9-1.3c0,0.1-0.1,0.1-0.1,0.1c-0.5,0.6-1,0.7-1.7,0.6c-0.5-0.1-0.9-0.3-1.3-0.6c-0.3-0.2-0.6-0.3-0.8-0.6
		C11.7,19.2,11.5,18.9,11.3,18.6z M15.9,17c0.2-0.3,0.3-0.7,0.4-1.1c0.2-0.4,0.2-0.8,0.4-1.1c0.3-0.6,0.8-1,1.1-1.6
		c0.1-0.2,0.3-0.4,0.5-0.3c0.2,0.1,0.5,0.2,0.5,0.5c0,0.1,0,0.1,0.1,0.2c0.3,0.2,0.7,0.5,1.1,0.5c0.5,0,1.1-0.1,1.6-0.2
		c0.9-0.3,1.8-0.6,2.4-1.3c0.2-0.2,0.3-0.4,0.2-0.6c0-0.1,0-0.1-0.1-0.2c-0.2-0.7-0.3-1.5-0.8-2.1c-0.5-0.8-1.2-1.5-2-2
		c-0.3-0.2-0.7-0.3-1-0.5c-0.5-0.3-1-0.4-1.5-0.4c-0.5,0-1.1,0-1.6,0.2c-0.4,0.1-0.8,0.3-1.1,0.6c-1,0.9-1.7,2-2,3.3
		c-0.1,0.4-0.2,0.9-0.2,1.3c0,0.4,0.1,0.9,0.1,1.3c0,0.4-0.1,0.8-0.2,1.2c0.2-0.1,0.3-0.3,0.4-0.5c0.1-0.1,0.1-0.2,0.3-0.2
		c0.2,0,0.2,0.2,0.2,0.3c0,0.3,0.1,0.7,0,1c-0.1,0.2,0,0.4,0,0.6c0.1,0,0.2-0.1,0.2-0.2c0.1-0.3,0.3-0.6,0.4-0.9
		c0-0.1,0.1-0.2,0.2-0.2c0.1,0,0.2,0.1,0.1,0.2c-0.1,0.3-0.1,0.5-0.1,0.8c0,0.2,0,0.5,0,0.7c0-0.2,0.3-0.1,0.3-0.3
		c0-0.2,0.1-0.2,0.3-0.2C16,16.2,15.9,16.6,15.9,17z M24,13c-0.2,0.2-0.5,0.4-0.8,0.5c-0.7,0.4-1.5,0.6-2.3,0.7
		c-0.5,0-0.9,0.2-1.4,0c-0.1,0-0.2,0-0.3,0c-0.4,0.3-0.7,0.8-0.9,1.3c0,0.2,0,0.4-0.1,0.6c-0.1,0.1-0.1,0.2-0.2,0.2
		c-0.2,0-0.2-0.1-0.2-0.3c0-0.4,0-0.7,0-1.1c-0.2,0-0.3,0.1-0.5,0c-0.1-0.1-0.2-0.2-0.2-0.4c-0.4,0.4-0.4,0.8-0.5,1.3
		c-0.2,0.5-0.3,1-0.6,1.5c-0.1,0.2-0.3,0.4-0.5,0.5c-0.2,0.2-0.3,0.1-0.3-0.1c0-0.1,0-0.3,0.1-0.4c0.2-0.3,0.2-0.6,0.3-0.9
		c-0.1,0.1-0.1,0.2-0.2,0.3c-0.1,0.1-0.3,0.2-0.4,0.2c-0.2-0.1-0.1-0.3,0-0.4c0,0,0-0.1,0-0.1c0-0.2,0.2-0.4,0.2-0.7
		c-0.2,0.2-0.5,0.3-0.7,0.6c-0.1,0.2-0.3,0.1-0.4-0.1c-0.6,0.7-1.4,1.2-2.1,1.9c0.2,0.4,0.4,0.7,0.7,1c0.4,0.4,1,0.6,1.6,0.8
		c0.4,0.1,0.8,0.1,1.2-0.2c0.5-0.4,1-0.8,1.6-1.2c0.3-0.2,0.3-0.2,0.1-0.5c-0.2-0.2-0.3-0.5-0.3-0.8c0-0.1,0-0.2,0.1-0.2
		c0.1,0,0.1,0,0.1,0.1c0.1,0.5,0.4,0.9,0.8,1.3c0.3,0.3,0.5,0.6,1,0.8c0.4,0.1,0.7,0.2,0.9-0.2c0.1-0.3,0.4-0.4,0.7-0.4
		c-0.1-0.1-0.3-0.3-0.2-0.4c0.2,0,0.2,0,0.3,0.1c0.3,0.2,0.4,0.1,0.5-0.2c0-0.1,0-0.2,0.1-0.4c0.2,0,0.3,0,0.5,0.1
		c0.2,0.1,0.3,0,0.3-0.2c0-0.1,0.1-0.3,0.1-0.4c0-0.7,0.1-1.3,0.5-1.8c-0.2-0.1-0.2-0.3-0.4-0.4c0-0.1,0.1-0.1,0.2-0.1
		c0.1,0.1,0.4,0.1,0.4,0.3C23.2,14.6,23.8,13.9,24,13z M15.3,31.1c-0.3,0.7-0.5,1.3-0.7,1.9c-0.2,0.7-0.4,1.4-0.5,2.1
		c0,0.3-0.2,0.7-0.2,1c-0.1,0.9-0.2,1.7-0.3,2.6c-0.1,0.8-0.1,1.7-0.3,2.5c-0.1,0.6-0.2,1.1-0.3,1.7c-0.1,0.4-0.1,0.8-0.2,1.2
		c0,0.1,0,0.2,0.1,0.2c0.2,0.1,0.3,0.2,0.4,0.3c0.1,0.2,0.4,0.1,0.5,0.2c0.4,0.1,0.2-0.2,0.4-0.4c0,0,0,0,0,0c0.3-0.3,0.3-0.6,0.3-1
		c0-0.6,0.1-1.2,0.3-1.8c0.2-0.5,0.3-1,0.5-1.5c0.2-0.7,0.5-1.3,0.7-1.9c0.3-0.6,0.4-1.1,0.6-1.7c0.2-0.5,0.3-1.1,0.5-1.7
		c0.3-0.8,0.7-1.7,1-2.5c0.1-0.2,0.2-0.3,0.2-0.5c-0.5,0.1-1.1,0.1-1.6-0.1C16.3,31.6,15.8,31.5,15.3,31.1z M22.5,31.1
		c-0.5-0.1-1-0.2-1.5-0.3c-0.5-0.1-1-0.4-1.4-0.8c-0.1,0.1-0.1,0.3-0.1,0.4c-0.3,0.7-0.7,1.5-1,2.3c-0.3,0.7-0.6,1.5-0.9,2.2
		c-0.3,0.7-0.5,1.4-0.7,2.1c-0.3,0.8-0.5,1.5-0.9,2.2c-0.2,0.4-0.3,0.8-0.3,1.2c0,0.2,0,0.5,0,0.7c-0.1,0.7-0.1,1.5-0.3,2.2
		c0,0.1,0,0.1,0.1,0.2c0.2,0.1,0.3,0.3,0.5,0.4c0,0.1,0.1,0.2,0.2,0.1c0.1-0.1,0.4,0,0.4-0.2c0.1-0.4,0.4-0.6,0.8-0.7
		c-0.1-0.1,0-0.2,0-0.4c0-0.5,0.1-0.9,0.3-1.3c0.2-0.9,0.5-1.8,0.9-2.6c0.2-0.5,0.4-0.9,0.6-1.4c0.3-0.5,0.6-1,0.8-1.5
		c0.3-0.7,0.7-1.3,1-1.9c0.2-0.4,0.5-0.7,0.7-1.1C21.9,32.2,22.2,31.7,22.5,31.1z M8.9,32.8c-0.1,0.1-0.2,0.2-0.4,0.1
		c-0.1-0.1,0-0.2,0.1-0.3c0,0,0.1,0,0.1-0.1c0.3-0.2,0.6-0.4,0.8-0.8c0.1-0.3,0.3-0.5,0.4-0.7c0.3-0.3,0.3-0.7,0.4-1.2
		c-0.9,0.3-1.7,0.5-2.5-0.1c0.1,0.3,0,0.4,0,0.6c0,0.3,0,0.7-0.1,1c-0.1,0.8-0.3,1.6-0.2,2.4c0,0.4-0.1,0.9,0,1.3
		c0,0.4,0.1,0.7,0.3,1.1C8,36,8,35.8,8.1,35.7c0.6-0.8,1.2-1.7,1.7-2.5c0.5-0.8,1.2-1.6,1.8-2.3c0.4-0.5,0.8-1,1.2-1.6
		c0.5-0.8,1.2-1.4,1.8-2.1c0.3-0.4,0.7-0.7,1.1-0.9c-0.2-0.1-0.3-0.2-0.2-0.3c0.1-0.1,0.1-0.2,0-0.3c0-0.1-0.1-0.2,0-0.3
		c0.1,0,0.3-0.1,0.3,0.1c0.1,0.4,0.4,0.8,0.6,1.1c0.2,0.2,0.3,0.5,0.5,0.6c0.4,0.3,0.6,0.7,0.5,1.2c0,0.2,0,0.4,0,0.6
		c0,0.2,0,0.4,0.1,0.7c0-0.4,0.1-0.7,0-1c0-0.3,0.1-0.6,0.1-0.9c0-0.1,0-0.2,0.2-0.2c0.1,0,0.1,0.1,0.2,0.2c0,0.1,0.1,0.2,0.1,0.3
		c0.3,0.6,0.3,1.2,0.2,1.8c0,0.3,0,0.7-0.1,1c0.1-0.1,0.1-0.2,0.1-0.3c0.1-0.4,0-0.8,0.1-1.2c0-0.4,0.1-0.8,0-1.2
		c-0.1-0.2-0.1-0.4-0.1-0.6c0-0.1,0-0.2,0.1-0.2c0.1,0,0.1,0,0.2,0c0.2,0.4,0.3,0.8,0.2,1.3c0,0.2,0,0.4,0,0.7
		c0.1-0.3,0.3-0.5,0.2-0.8c-0.1-0.5-0.1-1-0.2-1.5c0-0.1,0-0.3,0.2-0.3c-0.2-0.5-0.5-0.9-0.9-1.2c-0.4-0.2-0.7-0.5-1.2-0.6
		c-0.3-0.1-0.6-0.1-0.8-0.2c-0.5-0.1-1,0-1.4,0.3c-0.6,0.5-1,1-1.4,1.6c-0.5,0.7-1,1.4-1.5,2.1c-0.6,0.8-1.1,1.6-1.7,2.5
		c-0.4,0.5-0.6,1.1-0.9,1.6C9.3,32.9,9.3,33,9.1,33C8.9,33,9,32.9,8.9,32.8z M33.8,39.9c0.1-0.1,0-0.2,0-0.3
		c-0.2-0.4-0.6-0.8-0.7-1.3c0-0.1,0-0.2,0.1-0.3c0.1-0.1,0.2-0.1,0.3,0c0.3,0.2,0.6,0.3,1,0.3c0.6,0.1,1.1,0.3,1.6,0.5
		c0.2,0.1,0.4,0.2,0.7,0.2c-0.4-0.2-0.8-0.4-1.1-0.6C35.4,38.2,35.3,38,35,38c-0.2,0-0.4,0-0.4-0.2c0-0.3-0.2-0.4-0.4-0.5
		c-0.8-0.6-1.6-1.2-2.5-1.8c-0.7-0.4-1.4-0.9-2.1-1.4c-0.8-0.5-1.7-1-2.5-1.6c-0.2-0.1-0.3-0.3-0.5-0.4c-0.4-0.2-0.7-0.5-1.1-0.8
		c-0.6-0.5-1.1-1-1.7-1.6c-0.1-0.1-0.1-0.1-0.2-0.2c-0.1,0.1-0.1,0.2-0.2,0.4c-0.2,0.5-0.4,1-0.7,1.4c-0.2,0.2-0.2,0.4,0,0.6
		c0.3,0.3,0.6,0.5,1,0.7c0.4,0.2,0.8,0.5,1.2,0.8c0.4,0.3,0.9,0.5,1.4,0.8c0.3,0.2,0.6,0.3,0.9,0.5c0.6,0.3,1.1,0.6,1.7,0.8
		c0.2,0.1,0.5,0.1,0.6,0.2c0.4,0.3,0.9,0.4,1.3,0.6c0.5,0.2,0.8,0.6,1.1,1c0.5,0.6,0.8,1.3,1.3,2C33.6,39.5,33.6,39.8,33.8,39.9z
		 M19.9,29.4c-0.2,0.1-0.1,0.2,0,0.3c0.1,0.1,0.2,0.2,0.4,0.3c0.7,0.4,1.4,0.5,2.2,0.7c0.3,0.1,0.4-0.1,0.6-0.3
		c0.3-0.7,0.7-1.5,0.9-2.3c0.1-0.6,0.2-1.2,0-1.8c-0.1-0.5-0.4-0.9-0.9-1.1c-0.3-0.1-0.7-0.1-1.1,0c-0.9,0.2-1.6,0.9-2.2,1.5
		c0.4,0.5,0.4,1.2,0.7,1.7c0.2-0.1,0.2-0.4,0.5-0.3c0.1,0.3-0.1,0.4-0.2,0.5c-0.1,0.1-0.2,0.2-0.1,0.3c0.1,0.2,0.1,0.5,0.1,0.7
		c0,0.1-0.1,0.2-0.2,0.2c-0.1,0-0.2,0-0.3-0.1C20,29.7,20,29.5,19.9,29.4z M12.7,44.7c-0.1,0.2-0.1,0.3-0.2,0.5
		c-0.2,0.4-0.2,0.8-0.3,1.3c0,0.1,0,0.2,0.1,0.2c0.2,0.3,0.5,0.4,0.8,0.6c0.3,0.1,0.5,0.1,0.8,0.2c0.6,0.1,1.2,0.4,1.8,0.5
		c0.6,0.1,1.2,0.2,1.8,0.2c0.3,0,0.6-0.1,0.8,0c0.2,0,0.3,0,0.4-0.2c0.1-0.1,0.2-0.3,0.4-0.4c-0.7-0.5-1.6-0.9-2.4-1.4
		c-0.1,0.2-0.3,0.3-0.5,0.4c-0.2,0.2-0.4,0-0.5-0.1c-0.1-0.1,0-0.2,0.1-0.3c0.1-0.1,0.3-0.2,0.4-0.4c0,0,0,0-0.1-0.1
		c-0.3,0.1-0.5,0.3-0.7,0.5c-0.1,0.1-0.3,0.1-0.4,0c-0.1-0.1-0.1-0.3,0-0.4c0.1-0.1,0.2-0.2,0.4-0.3c-0.3,0-0.5,0.2-0.7,0.4
		c-0.1,0.1-0.2,0.1-0.4,0.1c-0.1,0-0.1-0.1-0.1-0.2c0-0.3-0.2-0.4-0.5-0.5c-0.3,0-0.6-0.1-0.9-0.4C12.9,44.7,12.9,44.7,12.7,44.7z
		 M15.3,43.5c-0.2,0.4-0.2,0.4,0,0.7c0.1,0.1,0.2,0.3,0.3,0.4c0.2,0.2,0.3,0.5,0.6,0.6c0,0,0.1,0,0.1,0.1c0.2,0.4,0.6,0.5,0.9,0.6
		c0.4,0.1,0.8,0.2,1.2,0.3c0.8,0.1,1.6,0.3,2.5,0.3c0.2,0,0.5,0,0.7-0.2c-0.5-0.7-1.3-0.9-1.9-1.3c-0.2,0.1-0.2,0.6-0.6,0.5
		c-0.3,0-0.5-0.2-0.6-0.4c-0.2,0.2-0.3,0.2-0.5,0c0,0-0.1-0.1-0.1-0.1c-0.3-0.1-0.6-0.2-0.8-0.5c-0.1-0.2-0.4-0.3-0.7-0.2
		c-0.2,0-0.5,0.1-0.6-0.2C15.8,43.8,15.6,43.7,15.3,43.5z M24,14.1c-0.2,0.3-0.4,0.6-0.6,0.8c-0.3,0.3-0.6,0.6-0.8,1
		c-0.1,0.1-0.2,0.2-0.2,0.4c0,0.5,0.2,0.9,0.3,1.4c0,0,0-0.1,0-0.1c0-0.1,0-0.2,0.2-0.2c0.2,0,0.1,0.2,0.1,0.3c0,0.3,0,0.6,0.1,0.9
		C23,17,23.4,15.5,24,14.1z M15.4,44.7c-0.1-0.2-0.2-0.3-0.3-0.4c0,0-0.1-0.1-0.2-0.1c-0.4,0.1-0.6,0.7-0.3,0.9
		C14.9,45.1,15.1,44.9,15.4,44.7z M17.3,44.1c0.2-0.2,0.3-0.4,0.6-0.5c-0.2-0.2-0.2-0.3-0.5-0.2c-0.2,0-0.4,0.2-0.4,0.4
		C16.9,43.9,17.1,44,17.3,44.1C17.3,44.1,17.3,44.1,17.3,44.1z M15.4,41.2c-0.3,0.6-0.6,1.9-0.5,2.2C15.3,42.8,15.3,42,15.4,41.2z
		 M19.4,26.9c0,0.2,0.1,0.3,0.1,0.5c0,0.3,0.1,0.5,0.2,0.7c0.2,0.3,0.3,0.7,0.4,1C19.9,28.3,19.8,27.5,19.4,26.9z M19.8,25.5
		c-0.5,0.5-0.5,0.5-0.2,0.8c0.1-0.2,0.3-0.4,0.5-0.6C20,25.7,19.9,25.6,19.8,25.5z M17.8,44.4c0.2,0.2,0.3,0.2,0.4,0
		c0.1-0.1,0.1-0.2,0.2-0.3c0.1-0.1,0.1-0.2-0.1-0.3C18.2,44.1,18,44.2,17.8,44.4z M19.6,28.7c-0.2,0.5-0.4,1-0.5,1.6
		C19.3,29.8,19.6,29.3,19.6,28.7z M19.2,44.5c-0.3,0-0.4,0.2-0.5,0.3C19,44.9,19.1,44.7,19.2,44.5z M18.7,13.9
		c0,0.2-0.2,0.2-0.2,0.4c0.1-0.1,0.3-0.2,0.4-0.3C18.9,14,18.8,14,18.7,13.9z"/>
	<path class="st0" d="M39.4,39.9c0.2,0,0.4,0,0.6-0.1c0.3-0.1,0.6-0.1,0.9-0.1c0.4-0.1,0.8-0.1,1.2,0c0.2,0,0.3-0.1,0.5-0.1
		c0.7,0.1,1.3,0.2,2,0.3c0.2,0,0.4,0.1,0.5,0.4c0,0.1,0,0.2-0.1,0.3c-0.4,0.2-0.8,0.6-1.3,0.7c-0.4,0.1-0.9,0.3-1.3,0.3
		c-0.4,0-0.7,0.1-1.1,0.1c0,0,0,0,0,0.1c0.3,0.2,0.5,0.5,0.8,0.7c1,0.7,2.1,1,3.2,1.2c0.8,0.1,1.6,0.4,2.4,0.8
		c0.6,0.3,1.2,0.8,1.6,1.4c0.5,0.7,0.4,1.4,0.2,2.1c-0.1,0.2-0.1,0.4-0.2,0.6c0.4,0.1,0.5,0.3,0.5,0.6c-0.1,0.3-0.4,0.6-0.9,0.5
		c-0.1,0.1,0,0.3-0.1,0.5c-0.2,0.5-0.6,0.6-1.1,0.6c-0.5,0.1-0.9,0.1-1.4,0c-0.7-0.1-1.4,0.1-2.1,0.3c-0.5,0.1-0.9,0.3-1.4,0.1
		c-0.3-0.1-0.4-0.5-0.2-0.7c0.1-0.1,0.1-0.2,0.2-0.3c0.2-0.2,0.3-0.3,0.6-0.4c-0.3-0.1-0.5-0.1-0.8-0.1c-0.5,0-1,0.1-1.5-0.1
		c-0.3-0.2-0.3-0.5-0.1-0.8c0.1-0.1,0.1-0.1,0.2-0.2c0.1-0.1,0.2,0,0.3-0.1c-0.5-0.3-1.1-0.7-1.5-1.2c-0.1,0.1-0.1,0.3-0.2,0.4
		c-0.4,0.7-0.9,1.2-1.6,1.6c-0.5,0.3-1,0.6-1.4,0.9c-0.1,0.1-0.3,0.1-0.4,0.2c-0.4,0.1-0.8-0.3-0.7-0.7c0.1-0.3,0.3-0.6,0.5-0.7
		c0.4-0.3,0.8-0.6,1.1-0.9c0.2-0.2,0.4-0.4,0.5-0.7c-0.4,0.1-0.8,0.2-1.2,0.3c-0.4,0.1-0.8,0-1.2,0c-0.2,0-0.5,0-0.7,0
		c-0.1,0-0.2,0-0.2-0.1c0-0.1-0.2-0.3,0-0.4c0.2-0.1,0.3-0.2,0.5-0.3c0.8,0,1.6-0.2,2.2-0.8c0.2-0.2,0.3-0.4,0.4-0.6
		c0.1-0.3,0.3-0.4,0.5-0.5c0.2-0.1,0.3-0.3,0.2-0.5c-0.3,0-0.7-0.1-0.9,0.3c-0.1,0.1-0.3,0.1-0.4,0c-0.1,0-0.3-0.1-0.4-0.1
		c-0.4,0-0.8-0.4-0.9-0.8c0-0.4,0-0.9,0.2-1.3c0.2-0.4,0.3-0.8,0.5-1.2c0.2-0.5,0.7-0.8,1.1-1.1c0,0,0,0,0,0
		c0.2-0.1,0.4-0.2,0.3-0.5c-0.1-0.4,0.1-0.8,0.1-1.2c0-0.4,0.1-0.8,0.2-1.2c0.1-0.4,0.2-0.9,0.4-1.3c0.1-0.1,0.1-0.2,0.1-0.3
		c0.1-0.1,0.2-0.2,0.4-0.2c0.2,0,0.2,0.2,0.2,0.3c0.1,0.7,0.2,1.4,0.2,2.1c0,0.5-0.1,1-0.3,1.4C39.3,39.4,39.2,39.7,39.4,39.9z
		 M40.3,46.2c0,0.2-0.1,0.3-0.2,0.5c0,0.1-0.1,0.1,0,0.2c0.1,0.1,0.2,0.2,0.3,0.3c0.4,0.5,0.9,0.7,1.5,0.9c0.3,0.1,0.6,0.3,0.9,0.2
		c0,0,0,0,0-0.1c-0.1-0.3-0.1-0.7,0-1c0.1-0.2,0.2-0.3,0.2-0.5c0.2-0.6,0.7-0.9,1.2-0.9c0.7-0.1,1.5,0.1,2.2,0.3
		c0.1,0,0.3,0.2,0.2,0.3c-0.1,0-0.1,0-0.1,0c-0.3-0.2-0.7-0.2-1.1-0.3c-0.4-0.1-0.7-0.1-1,0c-0.7,0.2-1.2,0.6-1.3,1.4
		c-0.1,0.3-0.1,0.6,0.1,0.9c0.5,0.6,1.1,0.9,1.8,0.9c0.3,0,0.6,0,0.8,0.1c0.2,0.1,0.3,0.2,0.2,0.5c-0.6-0.3-1.2-0.2-1.8-0.2
		c-0.3,0-0.7,0.1-1,0.3c0.1,0,0.2,0,0.2,0c0,0.1,0,0.2,0,0.2c-0.1,0-0.1,0-0.2,0c-0.1,0-0.1,0-0.2,0.1c0.1,0.1,0.2,0,0.4,0.1
		c0.1,0.3-0.3,0.1-0.3,0.3c0.2,0.1,0.4,0,0.6,0c0.4-0.1,0.8-0.3,1.3-0.4c0.5-0.1,1-0.1,1.6-0.1c0.6,0,1.2,0.1,1.8-0.2
		c0.4-0.2,0.4-0.4,0.1-0.7c-0.1-0.1-0.4-0.2-0.3-0.5c0.1-0.1,0.2,0,0.3,0.1c0.4,0.3,0.7,0.3,1.1,0c-0.1-0.1-0.2-0.2-0.4-0.2
		c-0.3-0.1-0.5-0.3-0.4-0.5c0.1-0.1,0.2,0.1,0.3,0.1c0.1-0.3,0.3-0.5,0.3-0.8c0-0.2,0-0.3,0-0.5c0.1-0.2,0-0.4-0.1-0.5
		c-0.2-0.5-0.6-0.9-1-1.3c-0.4-0.4-1-0.6-1.5-0.8c-0.6-0.2-1.3-0.4-1.9-0.5c-0.3,0-0.6-0.1-0.9-0.2c-0.5-0.2-0.9-0.4-1.4-0.6
		c-0.7-0.3-1.2-0.8-1.7-1.4c-0.1-0.1-0.1-0.1-0.2-0.1c-0.3-0.1-0.7-0.1-1-0.2c-0.2,0-0.2-0.1-0.2-0.3c0.6,0,1.1,0.2,1.6,0.2
		c0.4,0,0.8,0,1.1,0c0.7-0.1,1.4-0.3,2.1-0.7c0.2-0.1,0.3-0.2,0.4-0.4c-0.2,0.1-0.4-0.1-0.6-0.1c-0.6-0.1-1.3-0.3-1.9-0.2
		c-0.4,0.1-0.8,0-1.2,0c-0.5,0-0.9,0.1-1.4,0.2c-0.2,0.1-0.4,0.2-0.6,0.3c-0.1,0.1-0.2,0-0.3-0.1c0-0.1,0-0.2,0.1-0.2
		c0.1,0,0.2-0.1,0.3-0.2c-0.1,0-0.3,0-0.4,0.1c-0.7,0.1-1.3,0.4-1.7,1c-0.4,0.6-0.7,1.3-0.9,2c-0.1,0.3-0.1,0.6,0.1,1
		c0.1-0.2,0.2-0.5,0.4-0.4c0.1,0.1,0,0.2-0.1,0.3c0,0.1-0.2,0.2,0,0.3c0.2,0.1,0.2,0,0.3-0.1c0.1-0.1,0.1-0.2,0.2-0.2
		c0.1-0.1,0.1-0.1,0.2-0.1c0.1,0.1,0.1,0.1,0,0.2c-0.1,0.1-0.1,0.2-0.1,0.3c0.1,0.1,0.2,0.1,0.2,0c0.1-0.2,0.3-0.3,0.5-0.3
		c0.1,0,0.2,0,0.3,0c0.4,0,0.8-0.2,1-0.6c0.1-0.1,0.1-0.3,0.2-0.4c0-0.1,0.1-0.1,0.2-0.1c0.1,0,0.1,0.1,0.1,0.2
		c-0.1,0.4-0.4,0.8-0.8,0.9c-0.1,0-0.2,0.1-0.1,0.2c0,0.5-0.3,0.8-0.4,1.2c0,0.1-0.1,0.1-0.2,0.1c-0.1,0-0.1-0.1-0.1-0.1
		c0-0.1,0.1-0.1,0-0.2c-0.6,1.3-1.6,1.6-2.9,1.7c0,0.1,0,0.2,0,0.2c0.5,0,0.9,0.1,1.4,0.1c0.2,0,0.3-0.2,0.4-0.1
		c0.3,0.1,0.5-0.1,0.7-0.1c0.4-0.1,0.7-0.2,0.7-0.7c0-0.1,0.1-0.2,0.1-0.3c0-0.1,0-0.2,0.1-0.2c0.1,0,0.1,0.1,0.1,0.2
		c0,0.1,0,0.2-0.1,0.3c-0.1,0.4-0.4,0.8-0.6,1.2c-0.2,0.4-0.6,0.7-1,1c-0.3,0.3-0.7,0.5-1,0.8c0.1,0,0.1,0,0.2,0
		c0.2,0.2-0.2,0.2-0.2,0.4c0.3-0.2,0.4-0.2,0.4,0.1c0,0,0.1,0,0.1,0c0.7-0.4,1.3-0.8,1.9-1.3c0.1-0.1,0.3-0.2,0.4-0.4
		c0.4-0.5,0.7-0.9,0.9-1.5c0.1-0.2,0.2-0.3,0.3-0.5C40.2,46.1,40.2,46.1,40.3,46.2z M38.4,39.7c0.5,0,0.5,0,0.6-0.4
		c0.2-0.4,0.3-0.8,0.3-1.3c0.1-0.6,0-1.2,0-1.8c0-0.2-0.1-0.4-0.1-0.6c0,0-0.1,0-0.1,0C38.6,37,38.4,38.4,38.4,39.7z M43.3,49.1
		c-0.1-0.1-0.2-0.2-0.2-0.3c-0.1-0.1-0.1-0.2-0.2-0.2c-0.4,0-0.8-0.1-1.2-0.1c0,0.1,0.1,0.3,0,0.4c-0.1,0.1-0.1,0.2-0.1,0.2
		c0,0.1,0.1,0.1,0.2,0.1C42.3,49.2,42.8,49.1,43.3,49.1z"/>
	<path class="st0" d="M21.3,15.4c0.1,0.1,0.2,0.2,0.4,0.3c0.1-0.1,0.2-0.1,0.3-0.2c0.1-0.1,0.1-0.1,0.1,0c0,0,0,0.1,0,0.1
		c-0.1,0.1-0.1,0.1-0.2,0.2c0,0.1,0.2,0.1,0.1,0.2c-0.1,0.1-0.2,0-0.3,0c-0.1,0.1-0.2,0.1-0.3,0C21.2,15.9,21.1,15.6,21.3,15.4z"/>
	<path class="st0" d="M18,14.5c-0.1,0-0.1,0.1-0.2,0c-0.1-0.1,0-0.2,0-0.3c0.1-0.1,0.1-0.2,0.2-0.1c0.1,0.1,0,0.1,0,0.2
		c0,0,0,0-0.1,0.1C18,14.3,18.1,14.4,18,14.5C18,14.5,18,14.5,18,14.5z"/>
	<path class="st0" d="M39.4,40.6c0.3,0,0.6,0,0.9,0c0.1,0,0.2,0.1,0.1,0.3c-0.3-0.2-0.6-0.2-1-0.1C39.4,40.8,39.4,40.8,39.4,40.6z"
		/>
	<path class="st0" d="M37.7,42.4c0.3,0.1,0.5,0,0.8,0C38.2,42.6,38,42.6,37.7,42.4z"/>
	<path class="st1" d="M39.9,46.8c0.3,0.3,0.6,0.7,1,0.9c0.6,0.4,1.1,0.8,1.9,0.7c0.1,0,0.1,0,0.2,0"/>
	<path class="st1" d="M19.6,29.8c0.3,0.2,0.4,0.4,0.7,0.6c0.4,0.2,0.9,0.3,1.4,0.4c0.3,0.1,0.7,0,1,0.2"/>
	<path class="st1" d="M33.2,38.1c0.4,0.1,0.7,0.2,1.1,0.3c0.3,0.1,0.6,0.1,0.9,0.2c0.3,0.1,0.6,0.3,0.9,0.4c0.3,0.1,0.6,0.3,1,0.3
		c0.1,0,0.1,0,0.1,0.1c0.1,0.3,0.3,0.3,0.6,0.3"/>
	<path class="st1" d="M24.2,12.7c-0.1,0-0.2,0-0.4,0.1c-0.7,0.6-1.4,0.9-2.3,1.1c-0.5,0.1-0.9,0.2-1.4,0.2c-0.4,0-0.8,0-1.1-0.3
		c-0.1-0.1-0.2-0.2-0.4-0.2"/>
	<path class="st1" d="M11.6,18.4c-0.2,0-0.3,0-0.4,0.1c-0.7,0.4-1.3,1-1.9,1.6c-0.4,0.4-0.8,0.9-1,1.4c-0.3,0.7-0.5,1.4-0.7,2.1
		C7.4,24.3,7.2,25,7,25.7c-0.1,0.3-0.1,0.7-0.2,1c-0.1,0.6-0.2,1.1-0.4,1.7c-0.1,0.6-0.2,1.3-0.3,1.9C6,30.8,6,31.4,5.9,32"/>
	<path class="st1" d="M15.7,25.4c0.1,0.4,0.3,0.8,0.6,1.1c0.3,0.3,0.5,0.7,0.8,0.9c0.2,0.1,0.1,0.4,0.3,0.5"/>
	<path class="st1" d="M24.1,27.4c0,0.7-0.2,1.4-0.5,2c-0.2,0.5-0.4,1.1-0.8,1.5c-0.1,0.1-0.2,0.3-0.2,0.5c-0.3,0.7-0.7,1.3-1.1,1.9
		c-0.4,0.6-0.8,1.3-1.1,1.9c-0.4,0.7-0.7,1.4-1.1,2.1c-0.3,0.7-0.7,1.4-0.9,2c-0.4,1-0.7,2-0.9,3c-0.1,0.3,0,0.6,0.3,0.9
		c0.2,0.1,0.3,0.3,0.4,0.5"/>
	<path class="st1" d="M24.2,27.4c-0.1,0-0.1-0.1-0.1-0.2c0-0.4,0-0.8-0.2-1.2c-0.2-0.6-0.6-0.9-1.2-1c-0.8-0.1-1.4,0.2-2.1,0.6
		c-0.4,0.2-0.7,0.5-1,0.9c0,0.1-0.1,0.1-0.2,0.1"/>
	<path class="st1" d="M13.6,36c0.2,0,0.1,0.2,0.1,0.3c0,0.3-0.1,0.5-0.1,0.8c0,0.5-0.1,0.9-0.1,1.4c-0.1,0.6-0.1,1.2-0.2,1.8
		c0,0.6-0.2,1.2-0.3,1.9c-0.1,0.7-0.3,1.3-0.4,2c-0.1,0.6-0.4,1.1-0.5,1.7c0,0.2-0.1,0.3-0.1,0.5c0,0.7,0.3,1,0.9,1.2
		c0.4,0.1,0.8,0.1,1.1,0.2c0.4,0.1,0.8,0.2,1.1,0.4c0.3,0.1,0.6,0.1,1,0.1c0.9,0.1,1.7,0.1,2.6,0.1c0.1,0,0.6-0.4,0.6-0.6
		c0.1-0.2-0.1-0.3-0.2-0.5c-0.1-0.1-0.2-0.2-0.3-0.2c-0.2-0.1-0.3-0.3-0.4-0.5"/>
	<path class="st1" d="M18.8,45c0.4,0.2,0.4,0.2,0.6-0.2c0.1-0.2,0.3-0.2,0.4-0.1c0.5,0.3,1.1,0.5,1.6,0.9c0.2,0.1,0.3,0.2,0.4,0.4
		c0.2,0.3,0.1,0.4-0.2,0.5c-0.4,0.2-0.9,0.2-1.3,0.1c-0.6,0-1.2-0.2-1.8-0.1c-0.3,0-0.6-0.2-0.9-0.3c-0.2-0.1-0.4-0.2-0.6-0.3
		c-0.2-0.1-0.3-0.1-0.4,0.1c-0.2,0.2-0.4,0.3-0.7,0.4"/>
	<path class="st1" d="M39.5,37.2c0-0.5,0-1-0.2-1.4c0-0.1,0-0.2-0.2-0.2c-0.1,0-0.2,0.1-0.2,0.2c-0.3,0.4-0.4,0.9-0.5,1.4
		c-0.2,0.7-0.3,1.5-0.3,2.3c0,0.2,0,0.3,0.1,0.5"/>
	<path class="st1" d="M40.2,46.3c-0.2,0.3-0.4,0.6-0.5,0.9c-0.3,0.7-0.9,1.3-1.5,1.7c-0.5,0.4-1.1,0.7-1.6,1
		C36.5,50,36.3,50,36.1,50c-0.2,0-0.3-0.2-0.3-0.4c0-0.4,0.3-0.6,0.5-0.8c0.4-0.3,0.9-0.6,1.2-1c0.2-0.2,0.3-0.4,0.4-0.7
		c0,0,0-0.1,0-0.2"/>
	<path class="st1" d="M20.3,18.3c0.1,0.1,0.2,0.3,0.4,0.3c0.2,0,0.4-0.1,0.4-0.4c0-0.2,0.2-0.3,0.4-0.2c0.3,0.1,0.4,0,0.5-0.3
		c0-0.2,0-0.5,0.1-0.7c0.1-0.6,0.2-1.3,0.7-1.8c0.4-0.4,0.7-0.9,1.1-1.3c0.2-0.3,0.4-0.5,0.4-0.9c0-0.3,0-0.6,0.2-0.8
		c0,0,0-0.1,0-0.2c-0.2-0.6-0.3-1.2-0.5-1.8c-0.1-0.3-0.3-0.6-0.5-0.9C23,8.8,22.6,8.2,22,7.8c-0.5-0.3-1-0.7-1.5-0.9
		c-0.3-0.1-0.6-0.3-1-0.4c-0.4,0-0.8-0.1-1.1-0.1c-0.4,0-0.7,0.1-1.1,0.2C16.8,6.8,16.4,7,16,7.3c-0.7,0.5-1.2,1.2-1.6,2
		c-0.3,0.6-0.5,1.1-0.6,1.8c-0.1,0.5-0.1,1,0,1.5c0.1,0.7,0.1,1.3-0.1,2c0,0.1-0.1,0.2,0,0.3"/>
	<path class="st1" d="M18,16.3c0-0.5,0-1.1,0.3-1.6c0,0,0-0.1,0-0.2c0-0.2,0-0.5,0.1-0.7c0.1-0.2,0.2-0.5,0-0.6
		c-0.2-0.2-0.5-0.3-0.7,0.1c-0.2,0.3-0.4,0.5-0.5,0.8c-0.1,0.2-0.3,0.4-0.5,0.6c-0.2,0.3-0.3,0.6-0.4,0.9c-0.1,0.4-0.2,0.7-0.4,1.1
		c-0.1,0.2-0.2,0.4-0.4,0.6c-0.2,0.2-0.3,0.4-0.4,0.7"/>
	<path class="st1" d="M14.4,14.1c-0.1,0.2,0.1,0.3,0.1,0.4c0,0.4,0,0.8-0.1,1.2c0,0.1,0,0.2,0,0.3"/>
	<path class="st1" d="M5.8,32c0.2,0.1,0.1,0.4,0.1,0.5c0,0.5-0.1,1.1-0.2,1.6c0,0.2-0.1,0.4-0.1,0.6c0,0.5-0.2,1-0.1,1.5
		c0,0.5,0,1.1,0,1.6c0,0.3,0.1,0.7,0.1,1c0,0.5,0.1,1,0.2,1.5c0.1,0.5,0.3,1.1,0.4,1.6c0.2,0.7,0.6,1.3,1,1.9
		c0.2,0.3,0.6,0.5,0.9,0.7C8.5,44.8,9,45,9.4,45c0.8,0,1.6,0,2.4-0.4c0.5-0.2,1-0.3,1.4,0.1c0.3,0.3,0.7,0.3,1,0.3"/>
	<path class="st1" d="M39.4,40.1c-0.2-0.3-0.2-0.3-0.7-0.2c-0.8,0.1-1.4,0.5-1.8,1.1c-0.2,0.3-0.4,0.7-0.5,1.1
		c-0.1,0.3-0.2,0.5-0.3,0.8c-0.1,0.2-0.1,0.5,0,0.7c0,0.2,0.1,0.4,0.3,0.4c0,0,0,0,0.1,0c0.4,0.3,0.6,0.3,0.8-0.2"/>
	<path class="st1" d="M15.4,41c-0.1,0.1-0.1,0.2-0.2,0.3c-0.2,0.6-0.4,1.2-0.4,1.9c0,0.2-0.1,0.4,0.1,0.6c0.1,0.1,0,0.3-0.1,0.4
		c-0.1,0.1-0.3,0.2-0.4,0.4c-0.2,0.4-0.1,0.6,0.2,0.9"/>
	<path class="st1" d="M41,41.3c-0.1,0.3,0.1,0.5,0.3,0.7c0.7,0.7,1.6,1.1,2.6,1.4c0.6,0.2,1.2,0.3,1.8,0.4c0.9,0.2,1.7,0.5,2.4,1
		c0.5,0.4,0.9,0.9,1.2,1.5c0.1,0.3,0.1,0.7,0,1.1c0,0.4-0.2,0.7-0.4,1"/>
	<path class="st1" d="M19.1,25.7c-0.3,0-0.5-0.2-0.7-0.4c-0.5-0.4-1-0.6-1.6-0.7c-0.3-0.1-0.7-0.2-1-0.1c-0.6,0.1-1,0.4-1.4,0.9
		c-0.9,1-1.6,2-2.4,3.1c-0.1,0.1-0.2,0.2-0.3,0.4c-0.2,0.2-0.3,0.5-0.6,0.6c-0.1,0-0.2,0.1-0.3,0.3c-0.1,0.5-0.4,0.9-0.6,1.3
		c-0.2,0.3-0.4,0.6-0.5,0.9c-0.1,0.2-0.2,0.4-0.4,0.5c-0.2,0.1,0,0.3-0.1,0.5"/>
	<path class="st1" d="M22.4,31.9c0.7,0.6,1.5,1.1,2.2,1.6c1.1,0.7,2.2,1.4,3.4,2c0.4,0.2,0.9,0.3,1.3,0.5c0.5,0.2,0.9,0.4,1.3,0.6
		c0.8,0.4,1.3,1.1,1.8,1.8c0.3,0.5,0.7,1,1,1.5c0,0,0.1,0.1,0.1,0.1c0.1,0.2,0.3,0.2,0.4,0.1c0.2-0.1,0.1-0.3,0-0.5
		c-0.2-0.3-0.3-0.7-0.6-0.9c-0.1-0.1-0.1-0.3,0-0.4"/>
	<path class="st1" d="M23.7,29.4c0.3,0.2,0.5,0.4,0.7,0.6c0.8,0.9,1.8,1.7,2.8,2.3c0.7,0.5,1.4,1,2.1,1.4c0.5,0.3,1,0.6,1.5,0.9
		c1.2,0.8,2.5,1.6,3.7,2.6c0.6,0.5,1.2,0.9,1.8,1.3c0.1,0.1,0.2,0.1,0.4,0.2c0.3,0.1,0.5,0.3,0.5,0.7"/>
	<path class="st1" d="M19.4,26.7c-0.2,0.1-0.2,0.2-0.2,0.5c0.1,0.3,0,0.7,0.2,1c0.1,0.1,0.1,0.3,0.2,0.3c0.1,0.1,0.2,0.2,0.2,0.3
		c0,0.4,0.2,0.5,0.4,0.6"/>
	<path class="st1" d="M18.7,27.4c0,0.2,0.1,0.5,0.1,0.7c0.1,0.4,0,0.8,0,1.2c0,0.1,0,0.3,0.2,0.4"/>
	<path class="st1" d="M18,27.6c0,0.2,0,0.5,0.2,0.7c0.2,0.2,0.2,0.6,0.2,0.9c0,0.4,0,0.9-0.1,1.3c0,0.1,0,0.2,0,0.3
		c0,0.1,0,0.2,0.1,0.3c0.1,0,0.2-0.1,0.2-0.2c0.2-0.4,0.3-0.7,0.3-1.1"/>
	<path class="st1" d="M46.6,46.3c-0.2-0.2-0.4-0.2-0.6-0.3c-0.4-0.1-0.8-0.1-1.2-0.1c-0.7,0-1.3,0.3-1.6,1c-0.2,0.5-0.3,0.9-0.2,1.4
		c0.1,0.2,0.3,0.4,0.5,0.6c0.2,0.2,0.2,0.3,0.2,0.5"/>
	<path class="st1" d="M48.6,49.3c0.1,0.3,0,0.6-0.2,0.8c-0.2,0.1-0.4,0.2-0.7,0.2c-0.4,0-0.9,0-1.3,0c-0.8-0.1-1.5,0.1-2.2,0.3
		c-0.2,0.1-0.4,0.1-0.6,0.2c-0.1,0-0.2,0-0.2-0.1"/>
	<path class="st1" d="M11.2,20.1c0.5,0.4,0.8,0.9,0.9,1.5c0.1,0.6,0.1,1.2,0.1,1.8c-0.1,0.9-0.4,1.7-0.5,2.6
		c-0.2,0.8-0.4,1.6-0.5,2.5c0,0.3,0,0.6-0.1,0.8"/>
	<path class="st1" d="M16,26.3c-0.4,0.3-0.8,0.6-1.2,1c-0.9,0.9-1.7,1.9-2.4,2.9c-0.6,0.8-1.2,1.5-1.8,2.3c-0.3,0.4-0.5,0.8-0.8,1.2
		c-0.5,0.7-0.9,1.4-1.4,2.1c-0.3,0.4-0.6,0.8-0.8,1.3c-0.1,0.2-0.2,0.3-0.3,0.5c-0.3,0.3-0.4,0.7-0.4,1.1"/>
	<path class="st1" d="M43.7,49.3c0.5,0.1,1.1,0.1,1.7,0.1c0.2,0,0.4,0,0.5,0.2"/>
	<path class="st1" d="M15.8,29.4c-0.1,0.4-0.2,0.8-0.4,1.2c-0.1,0.1-0.1,0.3,0.1,0.4c0.5,0.3,1.1,0.5,1.7,0.6c0.4,0.1,0.8,0.1,1.2,0
		c0.1,0,0.2,0,0.2,0"/>
	<path class="st1" d="M8.2,24.8c-0.1,0.5,0,0.9,0,1.4c0,0.5-0.1,1.1-0.2,1.6c0,0.3-0.1,0.6-0.1,0.9c0,0.3-0.2,0.5,0,0.8
		c0,0,0,0,0,0.1"/>
	<path class="st1" d="M44.9,40.4c-0.7,0.5-1.4,0.8-2.3,1c-0.2,0-0.4,0.1-0.6,0"/>
	<path class="st1" d="M19.8,29.1c-0.1,0.2-0.2,0.4-0.2,0.6c0,0.2-0.2,0.4-0.3,0.6c-0.1,0.3-0.2,0.7-0.4,1c-0.4,0.6-0.5,1.2-0.8,1.8
		c-0.3,0.6-0.5,1.2-0.7,1.8c-0.3,0.9-0.6,1.8-0.9,2.7c-0.2,0.5-0.4,1.1-0.7,1.6c-0.2,0.4-0.3,0.8-0.3,1.3c0,0.1-0.1,0.2-0.1,0.3"/>
	<path class="st1" d="M24.1,13.8c0.1,0.1,0,0.3,0,0.4c-0.1,0.5-0.4,1-0.6,1.6c-0.2,0.9-0.4,1.8-0.3,2.7c0,0.1,0,0.3-0.1,0.4"/>
	<path class="st1" d="M44.9,40.3C44.8,40.4,44.9,40.3,44.9,40.3c-0.1-0.2-0.1-0.3-0.3-0.3c-0.6-0.1-1.2-0.2-1.8-0.3
		c-0.3,0-0.6,0-1,0c-0.4,0-0.8,0-1.2,0c-0.4,0-0.8,0.1-1.1,0.2c-0.1,0-0.3,0.1-0.4,0.2c-0.1,0.1-0.2,0.1-0.3,0.1"/>
	<path class="st1" d="M10.8,29.5c-0.4-0.1-0.7,0-1.1,0c-0.5,0-1.1,0.1-1.6-0.1c-0.1-0.1-0.3,0-0.3,0.2c0,0.3-0.1,0.6-0.1,1
		c-0.1,0.7-0.1,1.4-0.2,2.1c-0.1,0.3,0,0.6,0,0.9c0,0.5-0.1,1,0,1.5c0,0.3,0.2,0.5,0.2,0.8c0,0.2,0.1,0.4,0.3,0.5"/>
	<path class="st1" d="M34.6,47c0,0.1,0.2,0,0.2,0.1c0,0.1,0.1,0.2,0.2,0.1c0.5,0,1,0.2,1.5,0.1c0.3-0.1,0.7-0.1,1-0.2
		c0.1,0,0.3-0.1,0.4-0.1c0.1,0,0.2-0.1,0.3-0.2c0.1-0.3,0.3-0.6,0.3-1"/>
	<path class="st1" d="M15.3,30.9c-0.2,0.2-0.3,0.4-0.4,0.6c-0.1,0.4-0.3,0.8-0.4,1.2c-0.2,0.7-0.5,1.4-0.6,2.2
		c0,0.4-0.2,0.7-0.3,1.1"/>
	<path class="st1" d="M48.7,48.3c0.2,0.1,0.4,0.2,0.6,0.3c0.2,0.1,0.3,0.2,0.3,0.4c0,0.2-0.3,0.4-0.5,0.4c-0.4,0-0.7,0-1-0.3"/>
	<path class="st1" d="M41.6,48.3c-0.1,0.1-0.2,0.2-0.3,0.3c-0.1,0.1-0.2,0.2-0.1,0.4c0.1,0.2,0.3,0.3,0.5,0.3c0.4,0,0.7,0,1.1,0
		c0.3,0,0.6,0,0.8,0"/>
	<path class="st1" d="M15.6,41.4c-0.1,0.5-0.1,1-0.2,1.6c-0.1,0.3-0.1,0.6-0.4,0.8"/>
	<path class="st1" d="M16.9,17.2c0,0.3,0.1,0.5,0.2,0.7c0.1,0.2,0.2,0.3,0.3,0.5c0.1,0.1,0.3,0.2,0.4,0.3c0.3,0.3,0.6,0.7,1.2,0.7
		c0.4,0,0.7-0.1,0.9-0.4c0.1-0.2,0.3-0.3,0.5-0.3c0.1,0,0,0.1,0.1,0.1"/>
	<path class="st1" d="M7.3,35.1c-0.5,0-1.1,0-1.6,0"/>
	<path class="st1" d="M43.6,49.6c-0.1,0.1-0.2,0.2-0.4,0.2c-0.3,0-0.3,0.3-0.4,0.4c-0.1,0.1-0.2,0.2-0.3,0.2"/>
	<path class="st1" d="M39.4,37.2c0.1,0,0.1,0.1,0.1,0.2c0,0.7-0.1,1.5-0.4,2.2c0,0.1,0,0.2-0.1,0.3"/>
	<path class="st1" d="M17.4,18.5c-0.4,0.2-0.7,0.5-1.1,0.8c-0.3,0.2-0.6,0.4-0.8,0.7c-0.4,0.4-0.8,0.5-1.3,0.4
		c-0.9-0.2-1.8-0.6-2.3-1.4c0-0.1-0.1-0.1-0.1-0.2c-0.3-0.4-0.2-0.5,0.1-0.9c0.7-0.6,1.3-1.1,1.9-1.7c0.1-0.1,0.3-0.1,0.4-0.1"/>
	<path class="st1" d="M14.4,14.2c-0.3,0.3-0.6,0.6-0.9,0.9c0,0,0,0.1-0.1,0.1"/>
	<path class="st1" d="M15.8,19.8c0.5,0.6,1,1.2,1.3,1.9c0.2,0.6,0.5,1.1,0.8,1.6c0.4,0.6,0.9,1,1.3,1.5c0.1,0.1,0.2,0.1,0.2,0.2
		c0.1,0.1,0.2,0.3,0,0.4c-0.1,0.1-0.1,0.2-0.2,0.2c-0.2,0.2-0.2,0.4,0,0.6c0.2,0.3,0.4,0.6,0.5,0.9c0.2,0.4,0.3,0.9,0.5,1.4
		c0.1,0.3,0.2,0.6,0.1,0.9c0,0.1,0.1,0.3,0.1,0.4"/>
	<path class="st1" d="M17.5,28c0,0-0.1,0-0.1,0.1c0,0.4,0,0.7,0,1.1c0,0.5,0.3,0.9,0.1,1.4c0,0,0,0.1,0,0.1"/>
	<path class="st1" d="M38.5,44.1c0.1,0.5,0,0.7-0.5,0.9c-0.1,0.1-0.2,0.1-0.2,0.3c-0.2,0.5-0.5,0.8-1,1c-0.5,0.3-1.1,0.4-1.7,0.4
		c-0.2,0-0.3,0.2-0.4,0.3"/>
	<path class="st1" d="M36.6,43.6c-0.2,0.1-0.2,0.3-0.3,0.5"/>
	<path class="st1" d="M19.5,25.3c0.3,0,0.5,0.3,0.7,0.5"/>
	<path class="st1" d="M19.2,14.1c-0.2,0.2-0.4,0.4-0.8,0.6"/>
	<path class="st1" d="M38.5,42.4c-0.2,0-0.4,0.2-0.7,0.1"/>
	<path class="st1" d="M15.9,15.9c0,0.2-0.1,0.4-0.3,0.5c-0.2,0.1-0.4,0.3-0.5,0.5"/>
	<path class="st1" d="M17.2,14.4c0.1,0.1,0.1,0.2,0.1,0.3c0,0.2,0.1,0.3,0.3,0.2"/>
	<path class="st1" d="M22,15.5c-0.1,0.1-0.3,0.2-0.3,0.3"/>
	<path class="st1" d="M16.2,22.8c-0.1,0.6,0,1.1,0.1,1.7"/>
	<path class="st1" d="M18.1,28.2c-0.2,0.2-0.1,0.5-0.1,0.8c0,0.2,0,0.4-0.1,0.6c0,0.1-0.1,0.2-0.1,0.2"/>
	<path class="st1" d="M15.3,46c0.2-0.1,0.4-0.3,0.6-0.5c0.1-0.1,0.3-0.1,0.5,0c0.1,0.1,0.2,0.2,0.3,0.4"/>
	<path class="st1" d="M42.7,50.4c0.1,0.1,0,0.2,0.1,0.3c0.2,0.2,0.4,0.1,0.5,0.1"/>
	<path class="st1" d="M15.3,43.3c0.3,0.2,0.6,0.3,0.7,0.6c0.1,0.2,0.4,0.1,0.6,0.1c0.2,0,0.2-0.1,0.2-0.3c0.1-0.3,0.3-0.4,0.5-0.5
		c0.1,0,0.2-0.1,0.3-0.1"/>
	<path class="st1" d="M22.3,15.2C22.2,15,22.1,15,22,15"/>
	<path class="st1" d="M16.7,44c0.2,0.2,0.5,0.3,0.7,0.4c0,0,0.1,0,0.1,0.1c0.2,0.3,0.5,0.4,0.8,0.4"/>
	<path class="st1" d="M22.2,16.8c0.2,0.2,0.1,0.4,0.2,0.6c0,0.2,0,0.4,0.2,0.5"/>
	<path class="st1" d="M39.6,43c-0.1,0-0.1,0.1-0.1,0.2c-0.1,0.4-0.6,0.8-1.1,0.8c-0.2,0-0.3,0-0.5,0c-0.1,0-0.2,0.1-0.2,0.1
		c-0.2,0.3-0.3,0.3-0.6,0"/>
	<path class="st1" d="M6.9,38.1c-0.3,0.1-0.3,0.4-0.5,0.6c0,0-0.1,0.1-0.1,0.1"/>
	<path class="st1" d="M42,41.3c-0.2,0.2-0.4,0.1-0.6,0.1c-0.6,0-1.2-0.1-1.9-0.3"/>
	<path class="st1" d="M19.5,28.4c-0.2,0.3-0.2,0.6-0.3,0.9c0,0.1-0.1,0.2-0.2,0.3"/>
	<path class="st1" d="M21.3,15.6c0.1,0.3,0.4,0.2,0.6,0.4"/>
	<path class="st1" d="M15.1,15.6c0.1,0.2,0.1,0.4,0.1,0.6c0,0.2,0,0.3,0,0.4"/>
	<path class="st1" d="M16.9,21.3c-0.2,0.1-0.3,0.2-0.5,0.1"/>
	<path class="st1" d="M38.5,37.1c-0.1,0-0.1,0-0.2,0"/>
	<path class="st1" d="M15.4,14.7c-0.1,0-0.1,0-0.1,0.1c0,0.2-0.1,0.3-0.1,0.5c-0.1,0.5-0.4,0.8-0.9,0.8"/>
	<path class="st1" d="M40.4,40.8c-0.3-0.1-0.6-0.1-0.9-0.1c-0.1,0,0,0.1-0.1,0.1"/>
	<path class="st1" d="M18.8,44.2c0.3,0,0.6,0.1,0.7,0.4"/>
	<path class="st1" d="M15.7,16.4c0.1,0.2,0.1,0.3,0,0.5c-0.1,0.1,0,0.3,0,0.4"/>
	<path class="st1" d="M15.9,45.4c-0.2-0.2-0.2-0.4-0.3-0.6c-0.1-0.3-0.4-0.6-0.7-0.8"/>
	<path class="st1" d="M18.4,45.1c0-0.3,0.1-0.5,0.3-0.7c0.2-0.1,0.1-0.3,0-0.4c-0.1-0.1-0.3-0.4-0.5-0.3c-0.3,0.1-0.5,0.3-0.7,0.6"
		/>
	<path class="st1" d="M22.8,17.4c0,0.4-0.2,0.8,0,1.2c0,0,0,0.1,0,0.1c0.4,0.2,0.4,0.6,0.5,0.9"/>
</g>
</svg>
