<?xml version="1.0" encoding="utf-8"?>
<!-- Generator: Adobe Illustrator 27.5.0, SVG Export Plug-In . SVG Version: 6.00 Build 0)  -->
<svg version="1.1" id="Layer_1" xmlns="http://www.w3.org/2000/svg" xmlns:xlink="http://www.w3.org/1999/xlink" x="0px" y="0px"
	 viewBox="0 0 59.5 59.5" style="enable-background:new 0 0 59.5 59.5;" xml:space="preserve">
<style type="text/css">
	.st0{stroke:#000000;stroke-width:0.25;stroke-miterlimit:10;}
	.st1{fill:none;stroke:#000000;stroke-width:0.25;stroke-miterlimit:10;}
</style>
<path d="M33.6,37.5c1.1-0.1,2.7-0.7,2.8-1.2c0-0.1-4.5,0.4-4.5,0c1,0.3,5.8-1.9,4.8-2.8c-0.7,0.5-4.1,1.8-4.6,1.6
	c0.3,0.3,5.8-3.6,3.9-3.5c-0.3,0.4-3.9,2.4-4.3,2.4c0.3-0.3,5.6-4,4.1-4.1c-2.3,1.5-7.3,4.9-10.7,5.4c-0.1-1-0.2-1.9,0.2-2.5
	c0.3,0.1,0.8,0.1,1-0.1c-0.1,0.1-0.8-1-0.6-1c0.2,0.7,1.7,1.2,1.3,2c1.4-0.7,0.7-2.8-1.2-3.1c-1.5-1.8-4.6-0.6-4,1.5
	c0,0,0.1,1.4-0.2,2c-2.8,5.7-2.7,9.2-2.8,9.6c-0.9,1.5-3.2,4.5-4.1,6.1c-0.6,1.1,2,0,3-0.5c0.4-0.3,2-4.1,2.1-4.2
	c-0.1-0.1,0,1.7,0.5,1.7l0,3.1c0,0-0.8,0-1.1,0.3c-0.3,0.3-0.4,0.5-0.1,0.3c0.3-0.2,0.7-0.3,1.1-0.3c0.4,0,1-0.1,1.5,0.1
	c0.5,0.2,1,0.7,0.8,0.2c-0.2-0.4-0.4-0.6-0.9-0.7c0.4-0.1,1.1,0,1.6,0.2c0.5,0.2,1,0.6,0.7,0.1C21.5,48.5,22,51,22,46.9
	c0.1-0.2,0.2-0.3,0.3-0.6c0.2-1.1,0.2-1.2,0.2-1.2c0.6-0.4,1.7-1.5,2-2.4c0.5,0.9,1.3,2,1.8,2.1c0.6,0.3-0.9-1.7-0.7-2.1
	c0.1,0.3,2.3,2.9,2.5,2.5c-0.2-0.7-0.8-2-0.8-2c0.2,0.3,4.3,3.9,3.6,2.5c-0.4-0.4-2.1-2.4-2.1-2.4c0.9,0.5,3.9,2.7,5.2,2.5
	c0-0.4-3.1-2.2-3.5-2.7c0,0,4.1,2,5.3,1.5c0.2-0.2-4-1.8-4.1-2.1c0.1,0.4,5.4,0.7,4.7,0c-3.8-0.6-7.8-1.6-10.9-4.2
	c1.2,0.2,6.3,1.5,6.3,1c-1.2-0.6-1.7-0.9-1.7-0.9c0.2,0.1,4.9,0.5,4.5,0c-1.3-0.2-3.2-0.8-3.2-0.8S32.6,37.6,33.6,37.5"/>
<path d="M21.6,49.6c0,0-0.6,0-1,0.2l0-3c0.4-0.3,0.5-1.6,0.5-1.6s0,0.9,0.2,1.3c0.1,0.1,0.2,0.2,0.3,0.3L21.6,49.6z"/>
<path d="M24.4,31.2c0.1-0.3,0.4-0.4,0.6-0.3c0.3,0.1,0.4,0.4,0.3,0.6c-0.1,0.3-0.4,0.4-0.6,0.3C24.4,31.7,24.3,31.4,24.4,31.2"/>
<g>
	<path d="M31.7,16.9c0,0,0,0.1,0.1,0.8c0.1,0.4,0.1,0.9,0,1.3c0.4,0.4,0.7,0.8,0.9,1.1c0.1,0.1,0.1,0.2,0.2,0.3c0.1,0,0.3,0,0.4,0.1
		c0.3,0.2,0.3,0.5,0.2,0.7c-0.1,0.2-0.5,0.2-0.7,0.1c-0.1-0.1-0.2-0.1-0.2-0.2C32.4,21,32.3,21,32.1,21c-0.4,0-1,0-1.8-0.3
		c-0.1,0-0.5-0.1-0.9-0.2c-0.4-0.1-0.7-0.4-0.7-0.4c0,0,0.2,0.4,0.5,0.5c0.4,0.2,0.7,0.3,0.7,0.3c-0.3,0.2-0.6,0.3-1,0.4
		c-0.2,0-0.5,0.1-0.7,0.1c0.4,0.5,0.4,0.4,0.8,0.8c0.8,0.8,2,2,2.5,2c0.4,0,0.9,0.2,0.8,0.5c-0.1,0.4-0.7,0.6-1.1,0.6
		c-0.3-0.1-1.6-0.7-2.1-1c-0.5-0.4-2.2-1.4-2.2-1.4s-1.4,1.1-1.7,1.3l0.7,1.3c0,0,0.9,1.6,1,2c0.1,0.5,0.3,1.1-0.2,1.5
		c-0.5,0.4-0.7-0.1-0.7-0.5c0-0.4-0.2-0.7-0.6-1.2c-1-1.2-1.8-2.3-2.8-2.6c-1-0.3-3.6-1.8-4.7-2.6c-1.1-0.8-2.5-2.1-3.1-2.8
		c-0.5-0.6-0.9-1.2-1.7-1.9c-0.7-0.7-2.3-2.1-2.8-2.4c-0.6-0.3-1.2,0.2-1.5-0.2c-0.2-0.3,0-0.6,0.4-0.9c0.5-0.2,1-0.2,1.6,0
		c0.8,0.3,4,1.9,4,1.9s0.1-0.3,0.3-0.7c-0.1-0.1-0.2-0.3-0.2-0.4c-0.1-0.6,0.6-0.9,1-0.5c0.4-0.3,0.7-0.6,0.7-0.6s-0.9-1.9-1.1-2.7
		c-0.3-1.1-0.4-1.9-0.2-2.4c0.5-1.2,1.4-0.6,1.3-0.1c-0.2,0.6-0.3,0.8-0.1,1.2c0.2,0.5,0.6,1.5,1,2c1.3,1.5,4.3,3.4,6,5.3
		c0.2,0.2,0.4,0.5,0.7,0.7c0.1-0.1,0.1-0.2,0.2-0.2c-0.3-0.3-0.2-0.9,0.3-1.1c0.3-0.1,0.5,0,0.7,0.1c0.3-0.2,0.6-0.5,1-0.6
		c2.6-1.2,4,0,4,0s0.6-0.6,1.1,0C32.3,16.3,31.7,16.9,31.7,16.9z M27.4,19.3c0.1,0.2,0.3,0.3,0.5,0.2c0.2-0.1,0.3-0.3,0.2-0.5
		c-0.1-0.2-0.3-0.3-0.5-0.2C27.4,18.9,27.4,19.1,27.4,19.3 M29.9,17.7c0.1,0.2,0.3,0.3,0.5,0.2c0.2-0.1,0.3-0.3,0.2-0.5
		c-0.1-0.2-0.3-0.3-0.5-0.2C29.9,17.3,29.9,17.5,29.9,17.7"/>
</g>
<g>
	<path d="M57.3,31c-0.2,0.4-0.8,0.8-1.2,1c-0.3,0.2-1.1,0.5-1.1,0.5s0.4,0.1,1.2,0.2c0.6,0.1-0.1,0.5-0.8,0.6c-0.7,0-1.7,0-1.7,0
		s0.5,0.3,1,0.6c0.5,0.3,0.2,0.4-0.5,0.4c-0.8-0.1-2.2-0.4-2.2-0.4s0.8,0.5,1.2,0.8c0.3,0.2-0.8,0.1-1.3-0.1
		c-0.5-0.2-1.4-0.5-1.4-0.5s1,0.9,0.8,0.9c-0.8,0.1-2.2-1.3-2.2-1.3s0.7,1.2,0.4,1.2c-0.5,0-2.2-2-2.2-2s0,0.4-0.3,1.2
		c-0.3,0.9-0.7,1.2-0.5,1.9c0.1,0.6,0.5,2.6,0.7,3.2c0.2,0.6,0.2,1.2,0,1.8c-0.2,0.8-1,0.9-0.9,0c0.2-0.9-0.1-1.4-0.3-2
		c-0.2-0.6-1.3-3.2-1.3-3.2c-1.3,0.2-2.1,0-2.1,0S41.8,38,41.2,39c-0.6,1-0.9,1.7-1.5,2c-0.5,0.4-1.1,0.4-1.3,0.2
		c-0.2-0.2,0-0.6,0.4-0.6c0.4-0.1,0.8-0.9,1.1-1.6c0.5-0.9,0.7-1.7,1-2.9c0.1-0.7,0-2.5-0.1-3.1c-0.2-1.2-0.3-1.2-0.4-3
		c-0.1-1.4-0.1-3.8-0.1-3.8s-2.4,0.1-3.2-0.9c-0.5-0.6-1.3-2.4-1.6-2.8c-0.4-0.7-0.9-0.8-1.2-1c-0.2-0.2-0.3-0.6,0.2-0.7
		c0.5-0.1,0.9,0.2,1.3,0.6c0.5,0.6,0.9,1.3,1.3,2c0.6,0.9,0.9,1.3,1.5,1.3c0.5,0,1.8,0,2-0.8c0.1-0.3,0.3-1.4,0.3-1.4s-0.8,0-1.3,0
		c0,0,0.2-0.1,0.5-0.4c0.2-0.3,0.3-0.4,0.3-0.5c0,0-0.1,0.2-0.5,0.5c-0.4,0.3-0.7,0.4-0.7,0.4c-0.5-0.1-1.1-0.2-1.3-0.3
		c-0.2-0.1-0.3-0.4-0.3-0.6c-0.3,0-0.5-0.2-0.5-0.4c0-0.2,0.3-0.4,0.6-0.4c0.1,0,0.2,0,0.3,0c0.3-0.1,0.6-0.3,1-0.4
		c0.9-0.3,1.2-0.4,1.6-0.9c0.5-0.5,0.9-0.9,0.9-0.9s-0.2-0.6,0-1.2c0.2-0.6,0.3-1.1,0.5-1c0.2,0.2,0.4,0.6,0.5,1.1
		c0.2,0.5,0.1,0.8,0.1,0.8s1-0.2,1.7,0.4c0,0,0.4-0.3,0.7-0.5c1-0.5,1.8-0.2,1.6,0.1c-0.4,0.4-1.5,1.3-1.5,1.3s0.4,1.1,0.6,1.8
		c0.2,0.8,0.2,1.6,0.5,2.2c0.3,0.5,1.4,1.5,2,1.9c0.6,0.4,1.4,1,1.6,1.8c0.2,0.8,0.3,2.2,0.4,2.8c0.1,0.5-0.1,1.5-0.5,1.8
		c-0.4,0.4-0.9,0-0.6-0.4c0.2-0.4,0.2-0.5,0.2-1.4c-0.1-0.9-0.2-2.2-0.6-2.6c-0.4-0.4-1.9-1-1.9-1s0.5,1.1,0.5,2.3
		c0.1,0.9,0,3.3,0,3.3s0.8,0.4,1.6,0.5c0.7,0,2-0.1,3-0.5c0.8-0.3,2.2-1.4,2.9-1.9c0.5-0.5,1.5-1.8,1.8-1.8c0.5,0-0.9,2-0.9,2
		s1.5-0.9,1.3-0.5c-0.1,0.4-0.6,0.9-1,1.2c-0.4,0.3-0.7,0.6-0.7,0.6S57.5,30.6,57.3,31z M41.3,20c-0.1,0.2,0,0.5,0.3,0.6
		c0.2,0.1,0.5,0,0.6-0.3c0.1-0.2,0-0.5-0.3-0.6C41.6,19.6,41.4,19.7,41.3,20"/>
</g>
<path d="M33.4,53.2c-0.1,2.5-1.7,4.1-4,4c-2.1,0-3.7-1.6-3.6-3.9c0.1-2.6,1.8-4.1,4-4.1C32,49.3,33.5,51,33.4,53.2z M27.4,53.1
	c0,2.1,0.8,3.5,2.1,3.6c1.3,0,2.2-1.3,2.3-3.2c0.1-2.2-0.8-3.6-2.1-3.6C28.3,49.9,27.4,51.2,27.4,53.1z"/>
<path d="M38.7,55.5l0,0.2c0,0,0,0.1,0,0.1l-2.8,0.9c0,0-0.1,0-0.1,0l-0.1-0.2c0.7-0.5,0.7-0.5,0.6-0.7l-1.9-6.1
	c0-0.1-0.1-0.2-0.9-0.2l0-0.2c0,0,0-0.1,0-0.1l3-1c1.7-0.6,3,0.1,3.4,1.3c0.4,1.3-0.2,2.5-1.8,3c-0.3,0.1-0.7,0.2-1.2,0.3l0.8,2.5
	C37.7,55.6,37.7,55.6,38.7,55.5z M36.7,52.4c0.2,0,0.3-0.1,0.5-0.1c1-0.3,1.5-1.1,1.2-2.1c-0.3-1.1-1.1-1.5-2.2-1.2
	c-0.2,0.1-0.4,0.1-0.5,0.2L36.7,52.4z"/>
<path d="M40.6,47.2c-0.9,0.7-1.2,1-0.9,1.9l-0.2,0.1c0,0-0.1,0-0.1,0l-0.8-1.4l5.2-3.6l1.1,1.3c0,0,0,0.1,0,0.1l-0.2,0.2
	c-0.7-0.7-1.1-0.5-2.1,0.1l-0.4,0.3l3.6,5.2c0.1,0.1,0.1,0.2,0.9-0.1l0.1,0.2c0,0,0,0.1,0,0.1l-2.4,1.6c0,0-0.1,0-0.1,0L44.3,53
	c0.5-0.6,0.5-0.7,0.4-0.8l-3.6-5.3L40.6,47.2z"/>
<path d="M37.2,11.1l-0.1,0.1c0,0-0.1,0-0.1,0l-1.9-0.9c0,0-0.1-0.1,0-0.1l0-0.2c0.8,0.1,0.9,0.1,0.9,0l2-4.4c0.7-1.4,2.3-1.6,3.6-1
	c1.3,0.6,2.3,1.9,1.6,3.3l-2,4.4c-0.1,0.1-0.1,0.2,0.6,0.7l-0.1,0.1c0,0,0,0.1-0.1,0l-2.6-1.2c0,0,0-0.1,0-0.1l0-0.2
	c0.8,0.1,0.9,0.1,0.9,0l1.9-4.2c0.5-1-0.1-1.9-0.9-2.3C40,5,39.1,5.1,38.5,6.2l-1.9,4.2C36.6,10.5,36.6,10.6,37.2,11.1z"/>
<path d="M32.7,6c0.3,0.1,0.5,0.1,0.8,0.1l0.2-2.8c0-0.2,0-0.2-0.8-0.5l0-0.2c0,0,0-0.1,0.1-0.1l2.9,0.2c0,0,0.1,0,0.1,0.1L36,3
	c-0.8,0.2-0.8,0.2-0.8,0.4l-0.5,6.3c0,0.2,0,0.2,0.8,0.5l0,0.2c0,0,0,0.1-0.1,0.1l-3.4-0.3c-1.8-0.2-2.6-1-2.5-2.2
	c0.1-1.1,1-1.8,2.2-1.8C30.8,6,30.1,5.3,29,2.8c-0.1-0.1-0.1-0.2-0.6-0.4l0-0.2c0,0,0-0.1,0.1-0.1l1.9,0.2c0.1,0,0.2,0.1,0.2,0.1
	C31.5,5.1,32.1,5.9,32.7,6z M33.4,6.6c-0.2,0-0.3-0.1-0.5-0.1c-1.2-0.1-1.9,0.4-2,1.4c-0.1,1.1,0.4,1.7,1.6,1.8c0.2,0,0.4,0,0.6,0
	L33.4,6.6z"/>
<path d="M27.1,4.4c0,0,0,0.1,0,0.1l-0.2,0.1c-0.3-1.1-1.1-1.5-2.1-1.2c-1,0.2-1.5,0.8-1.3,1.5c0.4,1.7,3.9,0.7,4.4,3
	c0.3,1.3-0.5,2.5-2.1,2.8c-0.8,0.2-1.3,0.2-1.8,0l-0.4-1.7c0,0,0-0.1,0-0.1L23.8,9c0.3,1,0.9,1.4,1.9,1.2c0.8-0.2,1.2-0.8,1-1.3
	c-0.4-1.7-3.9-0.6-4.4-3.1c-0.3-1.4,0.6-2.5,2.3-2.9c0.9-0.2,1.8-0.3,2.2-0.1L27.1,4.4z"/>
<path d="M4.4,21.7c2-0.1,4.5-0.4,6.6-0.7l-5.6-1.8c-0.1,0-0.2,0-0.7,0.7l-0.2-0.1c0,0-0.1,0,0-0.1l0.6-2c0,0,0.1-0.1,0.1-0.1l0.2,0
	c0,0.8,0.1,0.8,0.2,0.9c2,0.7,4,1.3,6.1,1.9c0.1,0,0.2,0,0.7-0.7l0.2,0.1c0,0,0.1,0,0,0.1l-0.7,2.4C10,22.6,8.1,22.9,6.2,23
	c1.4,1.2,3,2.3,4.4,3.5L10,28.7c0,0-0.1,0.1-0.1,0.1l-0.2,0c0-0.8-0.1-0.9-0.2-0.9c-2-0.6-4.1-1.1-6.2-1.6c-0.2,0-0.2,0-0.7,0.7
	l-0.2-0.1c0,0-0.1,0,0-0.1L3.3,24c0,0,0.1-0.1,0.1-0.1l0.2,0c0,0.8,0.1,0.9,0.2,0.9l5.7,1.5C7.8,25,6,23.7,4.3,22.2L4.4,21.7z"/>
<path d="M10.6,33.5l0.2,0c0,0,0.1,0,0.1,0.1l0.3,2.1c0,0,0,0.1-0.1,0.1l-0.2,0.1c-0.3-0.8-0.4-0.8-0.5-0.7l-4.8,0.6
	C4,35.8,3,34.5,2.9,33.1c-0.2-1.4,0.4-2.9,2-3.1l4.8-0.6c0.1,0,0.2,0,0.3-0.9l0.2,0c0,0,0.1,0,0.1,0.1l0.3,2.8c0,0,0,0.1-0.1,0.1
	l-0.2,0.1c-0.3-0.8-0.4-0.8-0.5-0.7l-4.6,0.6c-1.1,0.1-1.6,1.1-1.5,1.9c0.1,0.9,0.7,1.7,2,1.6l4.5-0.6
	C10.4,34.4,10.4,34.3,10.6,33.5z"/>
<path d="M7.1,44.6C7,44.8,6.7,44.1,6.6,44c1.4-2.3,2.6-4.4,3.7-6.6l-5,2.5c-0.1,0.1-0.2,0.1,0,0.9c-0.1,0-0.2,0.1-0.3,0
	c0-0.2-1.3-2-0.8-2.1c0.6,0.6,0.6,0.6,0.7,0.5l5.7-2.9c0.1-0.1,0.2-0.1,0-0.9c0.3-0.4,1.1,1.8,1.2,1.9c-1,2-2,3.7-3.1,5.5l4.1-2.1
	c0.1-0.1,0.2-0.1,0-0.9c0.4-0.4,1.1,1.8,1.2,1.8c0,0.1-0.1,0.2-0.2,0.2c-0.6-0.6-0.6-0.6-0.7-0.5L7.1,44.6z"/>
</svg>
