<?xml version="1.0" encoding="utf-8"?>
<!-- Generator: Adobe Illustrator 16.0.4, SVG Export Plug-In . SVG Version: 6.00 Build 0)  -->
<!DOCTYPE svg PUBLIC "-//W3C//DTD SVG 1.1//EN" "http://www.w3.org/Graphics/SVG/1.1/DTD/svg11.dtd">
<svg version="1.1" id="Layer_1" xmlns="http://www.w3.org/2000/svg" xmlns:xlink="http://www.w3.org/1999/xlink" x="0px" y="0px"
	 width="1133.861px" height="566.93px" viewBox="0 0 1133.861 566.93" enable-background="new 0 0 1133.861 566.93"
	 xml:space="preserve">
<rect x="356.986" y="253.704" fill="#FFCD05" width="439.697" height="179.897"/>
<g>
	<rect x="363.748" y="111.9" fill="#FFFFFF" width="107.996" height="107.996"/>
	<g>
		<g transform="translate(240,48) scale(4.12)">
			<rect x="37.144" y="16.968" fill="#010101" width="0.762" height="0.762"/>
		</g>
		<g transform="translate(288,48) scale(4.12)">
			<rect x="26.875" y="16.968" fill="#010101" width="0.762" height="0.762"/>
		</g>
		<g transform="translate(312,48) scale(4.12)">
			<rect x="21.741" y="16.968" fill="#010101" width="0.762" height="0.762"/>
		</g>
		<g transform="translate(336,48) scale(4.12)">
			<rect x="16.606" y="16.968" fill="#010101" width="0.762" height="0.762"/>
		</g>
		<g transform="translate(360,48) scale(4.12)">
			<rect x="11.567" y="16.968" fill="#010101" width="0.762" height="0.762"/>
		</g>
		<g transform="translate(384,48) scale(4.12)">
			<rect x="6.432" y="16.968" fill="#010101" width="0.762" height="0.762"/>
		</g>
		<g transform="translate(432,48) scale(4.12)">
			<rect x="-3.837" y="16.968" fill="#010101" width="0.762" height="0.762"/>
		</g>
		<g transform="translate(456,48) scale(4.12)">
			<rect x="-8.972" y="16.968" fill="#010101" width="0.762" height="0.762"/>
		</g>
		<g transform="translate(504,48) scale(4.12)">
			<rect x="-19.145" y="16.968" fill="#010101" width="0.762" height="0.762"/>
		</g>
		<g transform="translate(528,48) scale(4.12)">
			<rect x="-24.28" y="16.968" fill="#010101" width="0.762" height="0.762"/>
		</g>
		<g transform="translate(600,48) scale(4.12)">
			<rect x="-39.684" y="16.968" fill="#010101" width="0.762" height="0.762"/>
		</g>
		<g transform="translate(264,72) scale(4.12)">
			<rect x="32.01" y="11.833" fill="#010101" width="0.762" height="0.762"/>
		</g>
		<g transform="translate(360,72) scale(4.12)">
			<rect x="11.567" y="11.833" fill="#010101" width="0.762" height="0.762"/>
		</g>
		<g transform="translate(384,72) scale(4.12)">
			<rect x="6.432" y="11.833" fill="#010101" width="0.762" height="0.762"/>
		</g>
		<g transform="translate(408,72) scale(4.12)">
			<rect x="1.297" y="11.833" fill="#010101" width="0.762" height="0.762"/>
		</g>
		<g transform="translate(456,72) scale(4.12)">
			<rect x="-8.972" y="11.833" fill="#010101" width="0.762" height="0.762"/>
		</g>
		<g transform="translate(528,72) scale(4.12)">
			<rect x="-24.28" y="11.833" fill="#010101" width="0.762" height="0.762"/>
		</g>
		<g transform="translate(576,72) scale(4.12)">
			<rect x="-34.549" y="11.833" fill="#010101" width="0.762" height="0.762"/>
		</g>
		<g transform="translate(288,96) scale(4.12)">
			<rect x="26.875" y="6.699" fill="#010101" width="0.762" height="0.762"/>
		</g>
		<g transform="translate(312,96) scale(4.12)">
			<rect x="21.741" y="6.699" fill="#010101" width="0.762" height="0.762"/>
		</g>
		<g transform="translate(384,96) scale(4.12)">
			<rect x="6.432" y="6.699" fill="#010101" width="0.762" height="0.762"/>
		</g>
		<g transform="translate(408,96) scale(4.12)">
			<rect x="1.298" y="6.699" fill="#010101" width="0.762" height="0.762"/>
		</g>
		<g transform="translate(456,96) scale(4.12)">
			<rect x="-8.972" y="6.699" fill="#010101" width="0.762" height="0.762"/>
		</g>
		<g transform="translate(480,96) scale(4.12)">
			<rect x="-14.106" y="6.699" fill="#010101" width="0.762" height="0.762"/>
		</g>
		<g transform="translate(504,96) scale(4.12)">
			<rect x="-19.145" y="6.699" fill="#010101" width="0.762" height="0.762"/>
		</g>
		<g transform="translate(528,96) scale(4.12)">
			<rect x="-24.28" y="6.699" fill="#010101" width="0.762" height="0.762"/>
		</g>
		<g transform="translate(264,120) scale(4.12)">
			<rect x="32.01" y="1.564" fill="#010101" width="0.762" height="0.762"/>
		</g>
		<g transform="translate(312,120) scale(4.12)">
			<rect x="21.741" y="1.564" fill="#010101" width="0.762" height="0.762"/>
		</g>
		<g transform="translate(384,120) scale(4.12)">
			<rect x="6.432" y="1.564" fill="#010101" width="0.762" height="0.762"/>
		</g>
		<g transform="translate(432,120) scale(4.12)">
			<rect x="-3.837" y="1.564" fill="#010101" width="0.762" height="0.762"/>
		</g>
		<g transform="translate(504,120) scale(4.12)">
			<rect x="-19.145" y="1.564" fill="#010101" width="0.762" height="0.762"/>
		</g>
		<g transform="translate(528,120) scale(4.12)">
			<rect x="-24.28" y="1.564" fill="#010101" width="0.762" height="0.762"/>
		</g>
		<g transform="translate(552,120) scale(4.12)">
			<rect x="-29.414" y="1.564" fill="#010101" width="0.762" height="0.762"/>
		</g>
		<g transform="translate(576,120) scale(4.12)">
			<rect x="-34.549" y="1.564" fill="#010101" width="0.762" height="0.762"/>
		</g>
		<g transform="translate(240,144) scale(4.12)">
			<rect x="37.144" y="-3.57" fill="#010101" width="0.762" height="0.762"/>
		</g>
		<g transform="translate(264,144) scale(4.12)">
			<rect x="32.01" y="-3.57" fill="#010101" width="0.762" height="0.762"/>
		</g>
		<g transform="translate(312,144) scale(4.12)">
			<rect x="21.741" y="-3.57" fill="#010101" width="0.762" height="0.762"/>
		</g>
		<g transform="translate(480,144) scale(4.12)">
			<rect x="-14.106" y="-3.57" fill="#010101" width="0.762" height="0.762"/>
		</g>
		<g transform="translate(552,144) scale(4.12)">
			<rect x="-29.414" y="-3.57" fill="#010101" width="0.762" height="0.762"/>
		</g>
		<g transform="translate(624,144) scale(4.12)">
			<rect x="-44.723" y="-3.57" fill="#010101" width="0.762" height="0.762"/>
		</g>
		<g transform="translate(240,168) scale(4.12)">
			<rect x="37.144" y="-8.61" fill="#010101" width="0.762" height="0.762"/>
		</g>
		<g transform="translate(312,168) scale(4.12)">
			<rect x="21.741" y="-8.61" fill="#010101" width="0.762" height="0.762"/>
		</g>
		<g transform="translate(336,168) scale(4.12)">
			<rect x="16.606" y="-8.61" fill="#010101" width="0.762" height="0.762"/>
		</g>
		<g transform="translate(456,168) scale(4.12)">
			<rect x="-8.971" y="-8.61" fill="#010101" width="0.762" height="0.762"/>
		</g>
		<g transform="translate(480,168) scale(4.12)">
			<rect x="-14.106" y="-8.61" fill="#010101" width="0.762" height="0.762"/>
		</g>
		<g transform="translate(528,168) scale(4.12)">
			<rect x="-24.28" y="-8.61" fill="#010101" width="0.762" height="0.762"/>
		</g>
		<g transform="translate(240,192) scale(4.12)">
			<rect x="37.144" y="-13.744" fill="#010101" width="0.762" height="0.762"/>
		</g>
		<g transform="translate(288,192) scale(4.12)">
			<rect x="26.875" y="-13.744" fill="#010101" width="0.762" height="0.762"/>
		</g>
		<g transform="translate(336,192) scale(4.12)">
			<rect x="16.606" y="-13.744" fill="#010101" width="0.762" height="0.762"/>
		</g>
		<g transform="translate(384,192) scale(4.12)">
			<rect x="6.432" y="-13.744" fill="#010101" width="0.762" height="0.762"/>
		</g>
		<g transform="translate(432,192) scale(4.12)">
			<rect x="-3.837" y="-13.744" fill="#010101" width="0.762" height="0.762"/>
		</g>
		<g transform="translate(480,192) scale(4.12)">
			<rect x="-14.106" y="-13.744" fill="#010101" width="0.762" height="0.762"/>
		</g>
		<g transform="translate(528,192) scale(4.12)">
			<rect x="-24.28" y="-13.744" fill="#010101" width="0.762" height="0.762"/>
		</g>
		<g transform="translate(576,192) scale(4.12)">
			<rect x="-34.549" y="-13.744" fill="#010101" width="0.762" height="0.762"/>
		</g>
		<g transform="translate(624,192) scale(4.12)">
			<rect x="-44.723" y="-13.744" fill="#010101" width="0.762" height="0.762"/>
		</g>
		<g transform="translate(264,216) scale(4.12)">
			<rect x="32.01" y="-18.879" fill="#010101" width="0.762" height="0.762"/>
		</g>
		<g transform="translate(288,216) scale(4.12)">
			<rect x="26.875" y="-18.879" fill="#010101" width="0.762" height="0.762"/>
		</g>
		<g transform="translate(312,216) scale(4.12)">
			<rect x="21.741" y="-18.879" fill="#010101" width="0.762" height="0.762"/>
		</g>
		<g transform="translate(336,216) scale(4.12)">
			<rect x="16.606" y="-18.879" fill="#010101" width="0.762" height="0.762"/>
		</g>
		<g transform="translate(384,216) scale(4.12)">
			<rect x="6.432" y="-18.879" fill="#010101" width="0.762" height="0.762"/>
		</g>
		<g transform="translate(552,216) scale(4.12)">
			<rect x="-29.414" y="-18.879" fill="#010101" width="0.762" height="0.762"/>
		</g>
		<g transform="translate(624,216) scale(4.12)">
			<rect x="-44.723" y="-18.879" fill="#010101" width="0.762" height="0.762"/>
		</g>
		<g transform="translate(72,240) scale(4.12)">
			<rect x="72.896" y="-24.013" fill="#010101" width="0.762" height="0.762"/>
		</g>
		<g transform="translate(96,240) scale(4.12)">
			<rect x="67.857" y="-24.013" fill="#010101" width="0.762" height="0.762"/>
		</g>
		<g transform="translate(120,240) scale(4.12)">
			<rect x="62.722" y="-24.013" fill="#010101" width="0.762" height="0.762"/>
		</g>
		<g transform="translate(144,240) scale(4.12)">
			<rect x="57.588" y="-24.013" fill="#010101" width="0.762" height="0.762"/>
		</g>
		<g transform="translate(168,240) scale(4.12)">
			<rect x="52.453" y="-24.013" fill="#010101" width="0.762" height="0.762"/>
		</g>
		<g transform="translate(192,240) scale(4.12)">
			<rect x="47.318" y="-24.013" fill="#010101" width="0.762" height="0.762"/>
		</g>
		<g transform="translate(216,240) scale(4.12)">
			<rect x="42.184" y="-24.013" fill="#010101" width="0.762" height="0.762"/>
		</g>
		<g transform="translate(264,240) scale(4.12)">
			<rect x="32.01" y="-24.013" fill="#010101" width="0.762" height="0.762"/>
		</g>
		<g transform="translate(312,240) scale(4.12)">
			<rect x="21.741" y="-24.013" fill="#010101" width="0.762" height="0.762"/>
		</g>
		<g transform="translate(336,240) scale(4.12)">
			<rect x="16.606" y="-24.013" fill="#010101" width="0.762" height="0.762"/>
		</g>
		<g transform="translate(384,240) scale(4.12)">
			<rect x="6.432" y="-24.013" fill="#010101" width="0.762" height="0.762"/>
		</g>
		<g transform="translate(408,240) scale(4.12)">
			<rect x="1.298" y="-24.013" fill="#010101" width="0.762" height="0.762"/>
		</g>
		<g transform="translate(456,240) scale(4.12)">
			<rect x="-8.971" y="-24.013" fill="#010101" width="0.762" height="0.762"/>
		</g>
		<g transform="translate(696,240) scale(4.12)">
			<rect x="-60.126" y="-24.013" fill="#010101" width="0.762" height="0.762"/>
		</g>
		<g transform="translate(720,240) scale(4.12)">
			<rect x="-65.261" y="-24.013" fill="#010101" width="0.762" height="0.762"/>
		</g>
		<g transform="translate(816,240) scale(4.12)">
			<rect x="-85.704" y="-24.013" fill="#010101" width="0.762" height="0.762"/>
		</g>
		<g transform="translate(48,264) scale(4.12)">
			<rect x="78.03" y="-29.148" fill="#010101" width="0.762" height="0.762"/>
		</g>
		<g transform="translate(72,264) scale(4.12)">
			<rect x="72.896" y="-29.148" fill="#010101" width="0.762" height="0.762"/>
		</g>
		<g transform="translate(120,264) scale(4.12)">
			<rect x="62.722" y="-29.148" fill="#010101" width="0.762" height="0.762"/>
		</g>
		<g transform="translate(144,264) scale(4.12)">
			<rect x="57.588" y="-29.148" fill="#010101" width="0.762" height="0.762"/>
		</g>
		<g transform="translate(240,264) scale(4.12)">
			<rect x="37.144" y="-29.148" fill="#010101" width="0.762" height="0.762"/>
		</g>
		<g transform="translate(312,264) scale(4.12)">
			<rect x="21.741" y="-29.148" fill="#010101" width="0.762" height="0.762"/>
		</g>
		<g transform="translate(336,264) scale(4.12)">
			<rect x="16.606" y="-29.148" fill="#010101" width="0.762" height="0.762"/>
		</g>
		<g transform="translate(360,264) scale(4.12)">
			<rect x="11.567" y="-29.148" fill="#010101" width="0.762" height="0.762"/>
		</g>
		<g transform="translate(384,264) scale(4.12)">
			<rect x="6.432" y="-29.148" fill="#010101" width="0.762" height="0.762"/>
		</g>
		<g transform="translate(408,264) scale(4.12)">
			<rect x="1.298" y="-29.148" fill="#010101" width="0.762" height="0.762"/>
		</g>
		<g transform="translate(480,264) scale(4.12)">
			<rect x="-14.106" y="-29.148" fill="#010101" width="0.762" height="0.762"/>
		</g>
		<g transform="translate(504,264) scale(4.12)">
			<rect x="-19.145" y="-29.148" fill="#010101" width="0.762" height="0.762"/>
		</g>
		<g transform="translate(528,264) scale(4.12)">
			<rect x="-24.28" y="-29.148" fill="#010101" width="0.762" height="0.762"/>
		</g>
		<g transform="translate(552,264) scale(4.12)">
			<rect x="-29.414" y="-29.148" fill="#010101" width="0.762" height="0.762"/>
		</g>
		<g transform="translate(600,264) scale(4.12)">
			<rect x="-39.683" y="-29.148" fill="#010101" width="0.762" height="0.762"/>
		</g>
		<g transform="translate(672,264) scale(4.12)">
			<rect x="-54.992" y="-29.148" fill="#010101" width="0.762" height="0.762"/>
		</g>
		<g transform="translate(696,264) scale(4.12)">
			<rect x="-60.126" y="-29.148" fill="#010101" width="0.762" height="0.762"/>
		</g>
		<g transform="translate(744,264) scale(4.12)">
			<rect x="-70.3" y="-29.148" fill="#010101" width="0.762" height="0.762"/>
		</g>
		<g transform="translate(768,264) scale(4.12)">
			<rect x="-75.435" y="-29.148" fill="#010101" width="0.762" height="0.762"/>
		</g>
		<g transform="translate(816,264) scale(4.12)">
			<rect x="-85.704" y="-29.148" fill="#010101" width="0.762" height="0.762"/>
		</g>
		<g transform="translate(72,288) scale(4.12)">
			<rect x="72.896" y="-34.282" fill="#010101" width="0.762" height="0.762"/>
		</g>
		<g transform="translate(168,288) scale(4.12)">
			<rect x="52.453" y="-34.282" fill="#010101" width="0.762" height="0.762"/>
		</g>
		<g transform="translate(192,288) scale(4.12)">
			<rect x="47.319" y="-34.282" fill="#010101" width="0.762" height="0.762"/>
		</g>
		<g transform="translate(216,288) scale(4.12)">
			<rect x="42.184" y="-34.282" fill="#010101" width="0.762" height="0.762"/>
		</g>
		<g transform="translate(240,288) scale(4.12)">
			<rect x="37.145" y="-34.282" fill="#010101" width="0.762" height="0.762"/>
		</g>
		<g transform="translate(264,288) scale(4.12)">
			<rect x="32.01" y="-34.282" fill="#010101" width="0.762" height="0.762"/>
		</g>
		<g transform="translate(288,288) scale(4.12)">
			<rect x="26.876" y="-34.282" fill="#010101" width="0.762" height="0.762"/>
		</g>
		<g transform="translate(336,288) scale(4.12)">
			<rect x="16.606" y="-34.282" fill="#010101" width="0.762" height="0.762"/>
		</g>
		<g transform="translate(360,288) scale(4.12)">
			<rect x="11.567" y="-34.282" fill="#010101" width="0.762" height="0.762"/>
		</g>
		<g transform="translate(384,288) scale(4.12)">
			<rect x="6.432" y="-34.282" fill="#010101" width="0.762" height="0.762"/>
		</g>
		<g transform="translate(408,288) scale(4.12)">
			<rect x="1.298" y="-34.282" fill="#010101" width="0.762" height="0.762"/>
		</g>
		<g transform="translate(480,288) scale(4.12)">
			<rect x="-14.106" y="-34.282" fill="#010101" width="0.762" height="0.762"/>
		</g>
		<g transform="translate(528,288) scale(4.12)">
			<rect x="-24.28" y="-34.282" fill="#010101" width="0.762" height="0.762"/>
		</g>
		<g transform="translate(552,288) scale(4.12)">
			<rect x="-29.414" y="-34.282" fill="#010101" width="0.762" height="0.762"/>
		</g>
		<g transform="translate(624,288) scale(4.12)">
			<rect x="-44.723" y="-34.282" fill="#010101" width="0.762" height="0.762"/>
		</g>
		<g transform="translate(648,288) scale(4.12)">
			<rect x="-49.857" y="-34.282" fill="#010101" width="0.762" height="0.762"/>
		</g>
		<g transform="translate(672,288) scale(4.12)">
			<rect x="-54.992" y="-34.282" fill="#010101" width="0.762" height="0.762"/>
		</g>
		<g transform="translate(720,288) scale(4.12)">
			<rect x="-65.261" y="-34.282" fill="#010101" width="0.762" height="0.762"/>
		</g>
		<g transform="translate(768,288) scale(4.12)">
			<rect x="-75.435" y="-34.282" fill="#010101" width="0.762" height="0.762"/>
		</g>
		<g transform="translate(96,312) scale(4.12)">
			<rect x="67.857" y="-39.322" fill="#010101" width="0.762" height="0.762"/>
		</g>
		<g transform="translate(144,312) scale(4.12)">
			<rect x="57.588" y="-39.322" fill="#010101" width="0.762" height="0.762"/>
		</g>
		<g transform="translate(264,312) scale(4.12)">
			<rect x="32.01" y="-39.322" fill="#010101" width="0.762" height="0.762"/>
		</g>
		<g transform="translate(312,312) scale(4.12)">
			<rect x="21.741" y="-39.322" fill="#010101" width="0.762" height="0.762"/>
		</g>
		<g transform="translate(336,312) scale(4.12)">
			<rect x="16.607" y="-39.322" fill="#010101" width="0.762" height="0.762"/>
		</g>
		<g transform="translate(528,312) scale(4.12)">
			<rect x="-24.279" y="-39.322" fill="#010101" width="0.762" height="0.762"/>
		</g>
		<g transform="translate(552,312) scale(4.12)">
			<rect x="-29.414" y="-39.322" fill="#010101" width="0.762" height="0.762"/>
		</g>
		<g transform="translate(576,312) scale(4.12)">
			<rect x="-34.548" y="-39.322" fill="#010101" width="0.762" height="0.762"/>
		</g>
		<g transform="translate(624,312) scale(4.12)">
			<rect x="-44.723" y="-39.322" fill="#010101" width="0.762" height="0.762"/>
		</g>
		<g transform="translate(648,312) scale(4.12)">
			<rect x="-49.857" y="-39.322" fill="#010101" width="0.762" height="0.762"/>
		</g>
		<g transform="translate(720,312) scale(4.12)">
			<rect x="-65.261" y="-39.322" fill="#010101" width="0.762" height="0.762"/>
		</g>
		<g transform="translate(744,312) scale(4.12)">
			<rect x="-70.3" y="-39.322" fill="#010101" width="0.762" height="0.762"/>
		</g>
		<g transform="translate(768,312) scale(4.12)">
			<rect x="-75.435" y="-39.322" fill="#010101" width="0.762" height="0.762"/>
		</g>
		<g transform="translate(48,336) scale(4.12)">
			<rect x="78.031" y="-44.456" fill="#010101" width="0.762" height="0.762"/>
		</g>
		<g transform="translate(96,336) scale(4.12)">
			<rect x="67.857" y="-44.456" fill="#010101" width="0.762" height="0.762"/>
		</g>
		<g transform="translate(120,336) scale(4.12)">
			<rect x="62.722" y="-44.456" fill="#010101" width="0.762" height="0.762"/>
		</g>
		<g transform="translate(144,336) scale(4.12)">
			<rect x="57.588" y="-44.456" fill="#010101" width="0.762" height="0.762"/>
		</g>
		<g transform="translate(192,336) scale(4.12)">
			<rect x="47.319" y="-44.456" fill="#010101" width="0.762" height="0.762"/>
		</g>
		<g transform="translate(240,336) scale(4.12)">
			<rect x="37.145" y="-44.456" fill="#010101" width="0.762" height="0.762"/>
		</g>
		<g transform="translate(264,336) scale(4.12)">
			<rect x="32.01" y="-44.456" fill="#010101" width="0.762" height="0.762"/>
		</g>
		<g transform="translate(288,336) scale(4.12)">
			<rect x="26.876" y="-44.456" fill="#010101" width="0.762" height="0.762"/>
		</g>
		<g transform="translate(408,336) scale(4.12)">
			<rect x="1.298" y="-44.456" fill="#010101" width="0.762" height="0.762"/>
		</g>
		<g transform="translate(432,336) scale(4.12)">
			<rect x="-3.836" y="-44.456" fill="#010101" width="0.762" height="0.762"/>
		</g>
		<g transform="translate(480,336) scale(4.12)">
			<rect x="-14.106" y="-44.456" fill="#010101" width="0.762" height="0.762"/>
		</g>
		<g transform="translate(504,336) scale(4.12)">
			<rect x="-19.145" y="-44.456" fill="#010101" width="0.762" height="0.762"/>
		</g>
		<g transform="translate(552,336) scale(4.12)">
			<rect x="-29.414" y="-44.456" fill="#010101" width="0.762" height="0.762"/>
		</g>
		<g transform="translate(600,336) scale(4.12)">
			<rect x="-39.683" y="-44.456" fill="#010101" width="0.762" height="0.762"/>
		</g>
		<g transform="translate(624,336) scale(4.12)">
			<rect x="-44.722" y="-44.456" fill="#010101" width="0.762" height="0.762"/>
		</g>
		<g transform="translate(648,336) scale(4.12)">
			<rect x="-49.857" y="-44.456" fill="#010101" width="0.762" height="0.762"/>
		</g>
		<g transform="translate(696,336) scale(4.12)">
			<rect x="-60.126" y="-44.456" fill="#010101" width="0.762" height="0.762"/>
		</g>
		<g transform="translate(720,336) scale(4.12)">
			<rect x="-65.261" y="-44.456" fill="#010101" width="0.762" height="0.762"/>
		</g>
		<g transform="translate(744,336) scale(4.12)">
			<rect x="-70.3" y="-44.456" fill="#010101" width="0.762" height="0.762"/>
		</g>
		<g transform="translate(792,336) scale(4.12)">
			<rect x="-80.569" y="-44.456" fill="#010101" width="0.762" height="0.762"/>
		</g>
		<g transform="translate(72,360) scale(4.12)">
			<rect x="72.896" y="-49.591" fill="#010101" width="0.762" height="0.762"/>
		</g>
		<g transform="translate(96,360) scale(4.12)">
			<rect x="67.857" y="-49.591" fill="#010101" width="0.762" height="0.762"/>
		</g>
		<g transform="translate(120,360) scale(4.12)">
			<rect x="62.722" y="-49.591" fill="#010101" width="0.762" height="0.762"/>
		</g>
		<g transform="translate(144,360) scale(4.12)">
			<rect x="57.588" y="-49.591" fill="#010101" width="0.762" height="0.762"/>
		</g>
		<g transform="translate(168,360) scale(4.12)">
			<rect x="52.453" y="-49.591" fill="#010101" width="0.762" height="0.762"/>
		</g>
		<g transform="translate(216,360) scale(4.12)">
			<rect x="42.184" y="-49.591" fill="#010101" width="0.762" height="0.762"/>
		</g>
		<g transform="translate(288,360) scale(4.12)">
			<rect x="26.876" y="-49.591" fill="#010101" width="0.762" height="0.762"/>
		</g>
		<g transform="translate(312,360) scale(4.12)">
			<rect x="21.741" y="-49.591" fill="#010101" width="0.762" height="0.762"/>
		</g>
		<g transform="translate(336,360) scale(4.12)">
			<rect x="16.607" y="-49.591" fill="#010101" width="0.762" height="0.762"/>
		</g>
		<g transform="translate(384,360) scale(4.12)">
			<rect x="6.433" y="-49.591" fill="#010101" width="0.762" height="0.762"/>
		</g>
		<g transform="translate(528,360) scale(4.12)">
			<rect x="-24.279" y="-49.591" fill="#010101" width="0.762" height="0.762"/>
		</g>
		<g transform="translate(576,360) scale(4.12)">
			<rect x="-34.548" y="-49.591" fill="#010101" width="0.762" height="0.762"/>
		</g>
		<g transform="translate(672,360) scale(4.12)">
			<rect x="-54.991" y="-49.591" fill="#010101" width="0.762" height="0.762"/>
		</g>
		<g transform="translate(696,360) scale(4.12)">
			<rect x="-60.126" y="-49.591" fill="#010101" width="0.762" height="0.762"/>
		</g>
		<g transform="translate(744,360) scale(4.12)">
			<rect x="-70.3" y="-49.591" fill="#010101" width="0.762" height="0.762"/>
		</g>
		<g transform="translate(792,360) scale(4.12)">
			<rect x="-80.569" y="-49.591" fill="#010101" width="0.762" height="0.762"/>
		</g>
		<g transform="translate(816,360) scale(4.12)">
			<rect x="-85.704" y="-49.591" fill="#010101" width="0.762" height="0.762"/>
		</g>
		<g transform="translate(48,384) scale(4.12)">
			<rect x="78.031" y="-54.726" fill="#010101" width="0.762" height="0.762"/>
		</g>
		<g transform="translate(144,384) scale(4.12)">
			<rect x="57.588" y="-54.726" fill="#010101" width="0.762" height="0.762"/>
		</g>
		<g transform="translate(168,384) scale(4.12)">
			<rect x="52.453" y="-54.726" fill="#010101" width="0.762" height="0.762"/>
		</g>
		<g transform="translate(192,384) scale(4.12)">
			<rect x="47.319" y="-54.726" fill="#010101" width="0.762" height="0.762"/>
		</g>
		<g transform="translate(216,384) scale(4.12)">
			<rect x="42.184" y="-54.726" fill="#010101" width="0.762" height="0.762"/>
		</g>
		<g transform="translate(264,384) scale(4.12)">
			<rect x="32.01" y="-54.726" fill="#010101" width="0.762" height="0.762"/>
		</g>
		<g transform="translate(288,384) scale(4.12)">
			<rect x="26.876" y="-54.726" fill="#010101" width="0.762" height="0.762"/>
		</g>
		<g transform="translate(360,384) scale(4.12)">
			<rect x="11.567" y="-54.726" fill="#010101" width="0.762" height="0.762"/>
		</g>
		<g transform="translate(384,384) scale(4.12)">
			<rect x="6.433" y="-54.726" fill="#010101" width="0.762" height="0.762"/>
		</g>
		<g transform="translate(432,384) scale(4.12)">
			<rect x="-3.836" y="-54.726" fill="#010101" width="0.762" height="0.762"/>
		</g>
		<g transform="translate(504,384) scale(4.12)">
			<rect x="-19.145" y="-54.726" fill="#010101" width="0.762" height="0.762"/>
		</g>
		<g transform="translate(576,384) scale(4.12)">
			<rect x="-34.548" y="-54.726" fill="#010101" width="0.762" height="0.762"/>
		</g>
		<g transform="translate(600,384) scale(4.12)">
			<rect x="-39.683" y="-54.726" fill="#010101" width="0.762" height="0.762"/>
		</g>
		<g transform="translate(624,384) scale(4.12)">
			<rect x="-44.722" y="-54.726" fill="#010101" width="0.762" height="0.762"/>
		</g>
		<g transform="translate(648,384) scale(4.12)">
			<rect x="-49.857" y="-54.726" fill="#010101" width="0.762" height="0.762"/>
		</g>
		<g transform="translate(672,384) scale(4.12)">
			<rect x="-54.991" y="-54.726" fill="#010101" width="0.762" height="0.762"/>
		</g>
		<g transform="translate(696,384) scale(4.12)">
			<rect x="-60.126" y="-54.726" fill="#010101" width="0.762" height="0.762"/>
		</g>
		<g transform="translate(744,384) scale(4.12)">
			<rect x="-70.3" y="-54.726" fill="#010101" width="0.762" height="0.762"/>
		</g>
		<g transform="translate(792,384) scale(4.12)">
			<rect x="-80.569" y="-54.726" fill="#010101" width="0.762" height="0.762"/>
		</g>
		<g transform="translate(48,408) scale(4.12)">
			<rect x="78.031" y="-59.86" fill="#010101" width="0.762" height="0.762"/>
		</g>
		<g transform="translate(72,408) scale(4.12)">
			<rect x="72.896" y="-59.86" fill="#010101" width="0.762" height="0.762"/>
		</g>
		<g transform="translate(96,408) scale(4.12)">
			<rect x="67.857" y="-59.86" fill="#010101" width="0.762" height="0.762"/>
		</g>
		<g transform="translate(120,408) scale(4.12)">
			<rect x="62.723" y="-59.86" fill="#010101" width="0.762" height="0.762"/>
		</g>
		<g transform="translate(240,408) scale(4.12)">
			<rect x="37.145" y="-59.86" fill="#010101" width="0.762" height="0.762"/>
		</g>
		<g transform="translate(264,408) scale(4.12)">
			<rect x="32.01" y="-59.86" fill="#010101" width="0.762" height="0.762"/>
		</g>
		<g transform="translate(288,408) scale(4.12)">
			<rect x="26.876" y="-59.86" fill="#010101" width="0.762" height="0.762"/>
		</g>
		<g transform="translate(312,408) scale(4.12)">
			<rect x="21.741" y="-59.86" fill="#010101" width="0.762" height="0.762"/>
		</g>
		<g transform="translate(336,408) scale(4.12)">
			<rect x="16.607" y="-59.86" fill="#010101" width="0.762" height="0.762"/>
		</g>
		<g transform="translate(360,408) scale(4.12)">
			<rect x="11.568" y="-59.86" fill="#010101" width="0.762" height="0.762"/>
		</g>
		<g transform="translate(384,408) scale(4.12)">
			<rect x="6.433" y="-59.86" fill="#010101" width="0.762" height="0.762"/>
		</g>
		<g transform="translate(408,408) scale(4.12)">
			<rect x="1.298" y="-59.86" fill="#010101" width="0.762" height="0.762"/>
		</g>
		<g transform="translate(432,408) scale(4.12)">
			<rect x="-3.836" y="-59.86" fill="#010101" width="0.762" height="0.762"/>
		</g>
		<g transform="translate(456,408) scale(4.12)">
			<rect x="-8.971" y="-59.86" fill="#010101" width="0.762" height="0.762"/>
		</g>
		<g transform="translate(504,408) scale(4.12)">
			<rect x="-19.145" y="-59.86" fill="#010101" width="0.762" height="0.762"/>
		</g>
		<g transform="translate(528,408) scale(4.12)">
			<rect x="-24.279" y="-59.86" fill="#010101" width="0.762" height="0.762"/>
		</g>
		<g transform="translate(552,408) scale(4.12)">
			<rect x="-29.414" y="-59.86" fill="#010101" width="0.762" height="0.762"/>
		</g>
		<g transform="translate(600,408) scale(4.12)">
			<rect x="-39.683" y="-59.86" fill="#010101" width="0.762" height="0.762"/>
		</g>
		<g transform="translate(648,408) scale(4.12)">
			<rect x="-49.857" y="-59.86" fill="#010101" width="0.762" height="0.762"/>
		</g>
		<g transform="translate(672,408) scale(4.12)">
			<rect x="-54.991" y="-59.86" fill="#010101" width="0.762" height="0.762"/>
		</g>
		<g transform="translate(744,408) scale(4.12)">
			<rect x="-70.3" y="-59.86" fill="#010101" width="0.762" height="0.762"/>
		</g>
		<g transform="translate(768,408) scale(4.12)">
			<rect x="-75.434" y="-59.86" fill="#010101" width="0.762" height="0.762"/>
		</g>
		<g transform="translate(48,432) scale(4.12)">
			<rect x="78.031" y="-64.899" fill="#010101" width="0.762" height="0.762"/>
		</g>
		<g transform="translate(96,432) scale(4.12)">
			<rect x="67.857" y="-64.899" fill="#010101" width="0.762" height="0.762"/>
		</g>
		<g transform="translate(168,432) scale(4.12)">
			<rect x="52.454" y="-64.899" fill="#010101" width="0.762" height="0.762"/>
		</g>
		<g transform="translate(192,432) scale(4.12)">
			<rect x="47.319" y="-64.899" fill="#010101" width="0.762" height="0.762"/>
		</g>
		<g transform="translate(240,432) scale(4.12)">
			<rect x="37.145" y="-64.899" fill="#010101" width="0.762" height="0.762"/>
		</g>
		<g transform="translate(264,432) scale(4.12)">
			<rect x="32.011" y="-64.899" fill="#010101" width="0.762" height="0.762"/>
		</g>
		<g transform="translate(312,432) scale(4.12)">
			<rect x="21.741" y="-64.899" fill="#010101" width="0.762" height="0.762"/>
		</g>
		<g transform="translate(384,432) scale(4.12)">
			<rect x="6.433" y="-64.899" fill="#010101" width="0.762" height="0.762"/>
		</g>
		<g transform="translate(456,432) scale(4.12)">
			<rect x="-8.971" y="-64.899" fill="#010101" width="0.762" height="0.762"/>
		</g>
		<g transform="translate(504,432) scale(4.12)">
			<rect x="-19.144" y="-64.899" fill="#010101" width="0.762" height="0.762"/>
		</g>
		<g transform="translate(576,432) scale(4.12)">
			<rect x="-34.548" y="-64.899" fill="#010101" width="0.762" height="0.762"/>
		</g>
		<g transform="translate(600,432) scale(4.12)">
			<rect x="-39.683" y="-64.899" fill="#010101" width="0.762" height="0.762"/>
		</g>
		<g transform="translate(624,432) scale(4.12)">
			<rect x="-44.722" y="-64.899" fill="#010101" width="0.762" height="0.762"/>
		</g>
		<g transform="translate(648,432) scale(4.12)">
			<rect x="-49.857" y="-64.899" fill="#010101" width="0.762" height="0.762"/>
		</g>
		<g transform="translate(696,432) scale(4.12)">
			<rect x="-60.126" y="-64.899" fill="#010101" width="0.762" height="0.762"/>
		</g>
		<g transform="translate(720,432) scale(4.12)">
			<rect x="-65.26" y="-64.899" fill="#010101" width="0.762" height="0.762"/>
		</g>
		<g transform="translate(744,432) scale(4.12)">
			<rect x="-70.3" y="-64.899" fill="#010101" width="0.762" height="0.762"/>
		</g>
		<g transform="translate(816,432) scale(4.12)">
			<rect x="-85.703" y="-64.899" fill="#010101" width="0.762" height="0.762"/>
		</g>
		<g transform="translate(48,456) scale(4.12)">
			<rect x="78.031" y="-70.034" fill="#010101" width="0.762" height="0.762"/>
		</g>
		<g transform="translate(216,456) scale(4.12)">
			<rect x="42.185" y="-70.034" fill="#010101" width="0.762" height="0.762"/>
		</g>
		<g transform="translate(240,456) scale(4.12)">
			<rect x="37.145" y="-70.034" fill="#010101" width="0.762" height="0.762"/>
		</g>
		<g transform="translate(288,456) scale(4.12)">
			<rect x="26.876" y="-70.034" fill="#010101" width="0.762" height="0.762"/>
		</g>
		<g transform="translate(336,456) scale(4.12)">
			<rect x="16.607" y="-70.034" fill="#010101" width="0.762" height="0.762"/>
		</g>
		<g transform="translate(504,456) scale(4.12)">
			<rect x="-19.144" y="-70.034" fill="#010101" width="0.762" height="0.762"/>
		</g>
		<g transform="translate(528,456) scale(4.12)">
			<rect x="-24.279" y="-70.034" fill="#010101" width="0.762" height="0.762"/>
		</g>
		<g transform="translate(600,456) scale(4.12)">
			<rect x="-39.683" y="-70.034" fill="#010101" width="0.762" height="0.762"/>
		</g>
		<g transform="translate(672,456) scale(4.12)">
			<rect x="-54.991" y="-70.034" fill="#010101" width="0.762" height="0.762"/>
		</g>
		<g transform="translate(696,456) scale(4.12)">
			<rect x="-60.126" y="-70.034" fill="#010101" width="0.762" height="0.762"/>
		</g>
		<g transform="translate(744,456) scale(4.12)">
			<rect x="-70.3" y="-70.034" fill="#010101" width="0.762" height="0.762"/>
		</g>
		<g transform="translate(768,456) scale(4.12)">
			<rect x="-75.434" y="-70.034" fill="#010101" width="0.762" height="0.762"/>
		</g>
		<g transform="translate(792,456) scale(4.12)">
			<rect x="-80.569" y="-70.034" fill="#010101" width="0.762" height="0.762"/>
		</g>
		<g transform="translate(816,456) scale(4.12)">
			<rect x="-85.703" y="-70.034" fill="#010101" width="0.762" height="0.762"/>
		</g>
		<g transform="translate(96,480) scale(4.12)">
			<rect x="67.857" y="-75.169" fill="#010101" width="0.762" height="0.762"/>
		</g>
		<g transform="translate(120,480) scale(4.12)">
			<rect x="62.723" y="-75.169" fill="#010101" width="0.762" height="0.762"/>
		</g>
		<g transform="translate(192,480) scale(4.12)">
			<rect x="47.319" y="-75.169" fill="#010101" width="0.762" height="0.762"/>
		</g>
		<g transform="translate(216,480) scale(4.12)">
			<rect x="42.185" y="-75.169" fill="#010101" width="0.762" height="0.762"/>
		</g>
		<g transform="translate(312,480) scale(4.12)">
			<rect x="21.742" y="-75.169" fill="#010101" width="0.762" height="0.762"/>
		</g>
		<g transform="translate(360,480) scale(4.12)">
			<rect x="11.568" y="-75.169" fill="#010101" width="0.762" height="0.762"/>
		</g>
		<g transform="translate(384,480) scale(4.12)">
			<rect x="6.433" y="-75.169" fill="#010101" width="0.762" height="0.762"/>
		</g>
		<g transform="translate(408,480) scale(4.12)">
			<rect x="1.299" y="-75.169" fill="#010101" width="0.762" height="0.762"/>
		</g>
		<g transform="translate(432,480) scale(4.12)">
			<rect x="-3.836" y="-75.169" fill="#010101" width="0.762" height="0.762"/>
		</g>
		<g transform="translate(456,480) scale(4.12)">
			<rect x="-8.971" y="-75.169" fill="#010101" width="0.762" height="0.762"/>
		</g>
		<g transform="translate(480,480) scale(4.12)">
			<rect x="-14.105" y="-75.169" fill="#010101" width="0.762" height="0.762"/>
		</g>
		<g transform="translate(528,480) scale(4.12)">
			<rect x="-24.279" y="-75.169" fill="#010101" width="0.762" height="0.762"/>
		</g>
		<g transform="translate(576,480) scale(4.12)">
			<rect x="-34.548" y="-75.169" fill="#010101" width="0.762" height="0.762"/>
		</g>
		<g transform="translate(624,480) scale(4.12)">
			<rect x="-44.722" y="-75.169" fill="#010101" width="0.762" height="0.762"/>
		</g>
		<g transform="translate(696,480) scale(4.12)">
			<rect x="-60.126" y="-75.169" fill="#010101" width="0.762" height="0.762"/>
		</g>
		<g transform="translate(720,480) scale(4.12)">
			<rect x="-65.26" y="-75.169" fill="#010101" width="0.762" height="0.762"/>
		</g>
		<g transform="translate(768,480) scale(4.12)">
			<rect x="-75.434" y="-75.169" fill="#010101" width="0.762" height="0.762"/>
		</g>
		<g transform="translate(792,480) scale(4.12)">
			<rect x="-80.569" y="-75.169" fill="#010101" width="0.762" height="0.762"/>
		</g>
		<g transform="translate(120,504) scale(4.12)">
			<rect x="62.723" y="-80.303" fill="#010101" width="0.762" height="0.762"/>
		</g>
		<g transform="translate(144,504) scale(4.12)">
			<rect x="57.588" y="-80.303" fill="#010101" width="0.762" height="0.762"/>
		</g>
		<g transform="translate(168,504) scale(4.12)">
			<rect x="52.454" y="-80.303" fill="#010101" width="0.762" height="0.762"/>
		</g>
		<g transform="translate(408,504) scale(4.12)">
			<rect x="1.299" y="-80.303" fill="#010101" width="0.762" height="0.762"/>
		</g>
		<g transform="translate(432,504) scale(4.12)">
			<rect x="-3.836" y="-80.303" fill="#010101" width="0.762" height="0.762"/>
		</g>
		<g transform="translate(480,504) scale(4.12)">
			<rect x="-14.105" y="-80.303" fill="#010101" width="0.762" height="0.762"/>
		</g>
		<g transform="translate(504,504) scale(4.12)">
			<rect x="-19.144" y="-80.303" fill="#010101" width="0.762" height="0.762"/>
		</g>
		<g transform="translate(528,504) scale(4.12)">
			<rect x="-24.279" y="-80.303" fill="#010101" width="0.762" height="0.762"/>
		</g>
		<g transform="translate(648,504) scale(4.12)">
			<rect x="-49.856" y="-80.303" fill="#010101" width="0.762" height="0.762"/>
		</g>
		<g transform="translate(696,504) scale(4.12)">
			<rect x="-60.125" y="-80.303" fill="#010101" width="0.762" height="0.762"/>
		</g>
		<g transform="translate(720,504) scale(4.12)">
			<rect x="-65.26" y="-80.303" fill="#010101" width="0.762" height="0.762"/>
		</g>
		<g transform="translate(744,504) scale(4.12)">
			<rect x="-70.3" y="-80.303" fill="#010101" width="0.762" height="0.762"/>
		</g>
		<g transform="translate(768,504) scale(4.12)">
			<rect x="-75.434" y="-80.303" fill="#010101" width="0.762" height="0.762"/>
		</g>
		<g transform="translate(792,504) scale(4.12)">
			<rect x="-80.569" y="-80.303" fill="#010101" width="0.762" height="0.762"/>
		</g>
		<g transform="translate(72,528) scale(4.12)">
			<rect x="72.897" y="-85.438" fill="#010101" width="0.762" height="0.762"/>
		</g>
		<g transform="translate(120,528) scale(4.12)">
			<rect x="62.723" y="-85.438" fill="#010101" width="0.762" height="0.762"/>
		</g>
		<g transform="translate(144,528) scale(4.12)">
			<rect x="57.588" y="-85.438" fill="#010101" width="0.762" height="0.762"/>
		</g>
		<g transform="translate(192,528) scale(4.12)">
			<rect x="47.319" y="-85.438" fill="#010101" width="0.762" height="0.762"/>
		</g>
		<g transform="translate(288,528) scale(4.12)">
			<rect x="26.876" y="-85.438" fill="#010101" width="0.762" height="0.762"/>
		</g>
		<g transform="translate(360,528) scale(4.12)">
			<rect x="11.568" y="-85.438" fill="#010101" width="0.762" height="0.762"/>
		</g>
		<g transform="translate(384,528) scale(4.12)">
			<rect x="6.433" y="-85.438" fill="#010101" width="0.762" height="0.762"/>
		</g>
		<g transform="translate(432,528) scale(4.12)">
			<rect x="-3.836" y="-85.438" fill="#010101" width="0.762" height="0.762"/>
		</g>
		<g transform="translate(480,528) scale(4.12)">
			<rect x="-14.105" y="-85.438" fill="#010101" width="0.762" height="0.762"/>
		</g>
		<g transform="translate(504,528) scale(4.12)">
			<rect x="-19.144" y="-85.438" fill="#010101" width="0.762" height="0.762"/>
		</g>
		<g transform="translate(528,528) scale(4.12)">
			<rect x="-24.279" y="-85.438" fill="#010101" width="0.762" height="0.762"/>
		</g>
		<g transform="translate(552,528) scale(4.12)">
			<rect x="-29.413" y="-85.438" fill="#010101" width="0.762" height="0.762"/>
		</g>
		<g transform="translate(576,528) scale(4.12)">
			<rect x="-34.548" y="-85.438" fill="#010101" width="0.762" height="0.762"/>
		</g>
		<g transform="translate(624,528) scale(4.12)">
			<rect x="-44.722" y="-85.438" fill="#010101" width="0.762" height="0.762"/>
		</g>
		<g transform="translate(648,528) scale(4.12)">
			<rect x="-49.856" y="-85.438" fill="#010101" width="0.762" height="0.762"/>
		</g>
		<g transform="translate(720,528) scale(4.12)">
			<rect x="-65.26" y="-85.438" fill="#010101" width="0.762" height="0.762"/>
		</g>
		<g transform="translate(744,528) scale(4.12)">
			<rect x="-70.299" y="-85.438" fill="#010101" width="0.762" height="0.762"/>
		</g>
		<g transform="translate(816,528) scale(4.12)">
			<rect x="-85.703" y="-85.438" fill="#010101" width="0.762" height="0.762"/>
		</g>
		<g transform="translate(48,552) scale(4.12)">
			<rect x="78.031" y="-90.477" fill="#010101" width="0.762" height="0.762"/>
		</g>
		<g transform="translate(72,552) scale(4.12)">
			<rect x="72.897" y="-90.477" fill="#010101" width="0.762" height="0.762"/>
		</g>
		<g transform="translate(96,552) scale(4.12)">
			<rect x="67.858" y="-90.477" fill="#010101" width="0.762" height="0.762"/>
		</g>
		<g transform="translate(120,552) scale(4.12)">
			<rect x="62.723" y="-90.477" fill="#010101" width="0.762" height="0.762"/>
		</g>
		<g transform="translate(144,552) scale(4.12)">
			<rect x="57.589" y="-90.477" fill="#010101" width="0.762" height="0.762"/>
		</g>
		<g transform="translate(216,552) scale(4.12)">
			<rect x="42.185" y="-90.477" fill="#010101" width="0.762" height="0.762"/>
		</g>
		<g transform="translate(240,552) scale(4.12)">
			<rect x="37.145" y="-90.477" fill="#010101" width="0.762" height="0.762"/>
		</g>
		<g transform="translate(264,552) scale(4.12)">
			<rect x="32.011" y="-90.477" fill="#010101" width="0.762" height="0.762"/>
		</g>
		<g transform="translate(360,552) scale(4.12)">
			<rect x="11.568" y="-90.477" fill="#010101" width="0.762" height="0.762"/>
		</g>
		<g transform="translate(384,552) scale(4.12)">
			<rect x="6.433" y="-90.477" fill="#010101" width="0.762" height="0.762"/>
		</g>
		<g transform="translate(408,552) scale(4.12)">
			<rect x="1.299" y="-90.477" fill="#010101" width="0.762" height="0.762"/>
		</g>
		<g transform="translate(432,552) scale(4.12)">
			<rect x="-3.836" y="-90.477" fill="#010101" width="0.762" height="0.762"/>
		</g>
		<g transform="translate(552,552) scale(4.12)">
			<rect x="-29.413" y="-90.477" fill="#010101" width="0.762" height="0.762"/>
		</g>
		<g transform="translate(624,552) scale(4.12)">
			<rect x="-44.722" y="-90.477" fill="#010101" width="0.762" height="0.762"/>
		</g>
		<g transform="translate(672,552) scale(4.12)">
			<rect x="-54.991" y="-90.477" fill="#010101" width="0.762" height="0.762"/>
		</g>
		<g transform="translate(768,552) scale(4.12)">
			<rect x="-75.434" y="-90.477" fill="#010101" width="0.762" height="0.762"/>
		</g>
		<g transform="translate(816,552) scale(4.12)">
			<rect x="-85.703" y="-90.477" fill="#010101" width="0.762" height="0.762"/>
		</g>
		<g transform="translate(48,576) scale(4.12)">
			<rect x="78.032" y="-95.612" fill="#010101" width="0.762" height="0.762"/>
		</g>
		<g transform="translate(96,576) scale(4.12)">
			<rect x="67.858" y="-95.612" fill="#010101" width="0.762" height="0.762"/>
		</g>
		<g transform="translate(120,576) scale(4.12)">
			<rect x="62.723" y="-95.612" fill="#010101" width="0.762" height="0.762"/>
		</g>
		<g transform="translate(144,576) scale(4.12)">
			<rect x="57.589" y="-95.612" fill="#010101" width="0.762" height="0.762"/>
		</g>
		<g transform="translate(192,576) scale(4.12)">
			<rect x="47.32" y="-95.612" fill="#010101" width="0.762" height="0.762"/>
		</g>
		<g transform="translate(312,576) scale(4.12)">
			<rect x="21.742" y="-95.612" fill="#010101" width="0.762" height="0.762"/>
		</g>
		<g transform="translate(336,576) scale(4.12)">
			<rect x="16.607" y="-95.612" fill="#010101" width="0.762" height="0.762"/>
		</g>
		<g transform="translate(384,576) scale(4.12)">
			<rect x="6.433" y="-95.612" fill="#010101" width="0.762" height="0.762"/>
		</g>
		<g transform="translate(408,576) scale(4.12)">
			<rect x="1.299" y="-95.612" fill="#010101" width="0.762" height="0.762"/>
		</g>
		<g transform="translate(528,576) scale(4.12)">
			<rect x="-24.279" y="-95.612" fill="#010101" width="0.762" height="0.762"/>
		</g>
		<g transform="translate(624,576) scale(4.12)">
			<rect x="-44.722" y="-95.612" fill="#010101" width="0.762" height="0.762"/>
		</g>
		<g transform="translate(648,576) scale(4.12)">
			<rect x="-49.856" y="-95.612" fill="#010101" width="0.762" height="0.762"/>
		</g>
		<g transform="translate(720,576) scale(4.12)">
			<rect x="-65.26" y="-95.612" fill="#010101" width="0.762" height="0.762"/>
		</g>
		<g transform="translate(768,576) scale(4.12)">
			<rect x="-75.434" y="-95.612" fill="#010101" width="0.762" height="0.762"/>
		</g>
		<g transform="translate(792,576) scale(4.12)">
			<rect x="-80.568" y="-95.612" fill="#010101" width="0.762" height="0.762"/>
		</g>
		<g transform="translate(48,600) scale(4.12)">
			<rect x="78.032" y="-100.746" fill="#010101" width="0.762" height="0.762"/>
		</g>
		<g transform="translate(96,600) scale(4.12)">
			<rect x="67.858" y="-100.746" fill="#010101" width="0.762" height="0.762"/>
		</g>
		<g transform="translate(120,600) scale(4.12)">
			<rect x="62.723" y="-100.746" fill="#010101" width="0.762" height="0.762"/>
		</g>
		<g transform="translate(144,600) scale(4.12)">
			<rect x="57.589" y="-100.746" fill="#010101" width="0.762" height="0.762"/>
		</g>
		<g transform="translate(168,600) scale(4.12)">
			<rect x="52.454" y="-100.746" fill="#010101" width="0.762" height="0.762"/>
		</g>
		<g transform="translate(264,600) scale(4.12)">
			<rect x="32.011" y="-100.746" fill="#010101" width="0.762" height="0.762"/>
		</g>
		<g transform="translate(288,600) scale(4.12)">
			<rect x="26.877" y="-100.746" fill="#010101" width="0.762" height="0.762"/>
		</g>
		<g transform="translate(312,600) scale(4.12)">
			<rect x="21.742" y="-100.746" fill="#010101" width="0.762" height="0.762"/>
		</g>
		<g transform="translate(336,600) scale(4.12)">
			<rect x="16.607" y="-100.746" fill="#010101" width="0.762" height="0.762"/>
		</g>
		<g transform="translate(480,600) scale(4.12)">
			<rect x="-14.105" y="-100.746" fill="#010101" width="0.762" height="0.762"/>
		</g>
		<g transform="translate(552,600) scale(4.12)">
			<rect x="-29.413" y="-100.746" fill="#010101" width="0.762" height="0.762"/>
		</g>
		<g transform="translate(576,600) scale(4.12)">
			<rect x="-34.548" y="-100.746" fill="#010101" width="0.762" height="0.762"/>
		</g>
		<g transform="translate(648,600) scale(4.12)">
			<rect x="-49.856" y="-100.746" fill="#010101" width="0.762" height="0.762"/>
		</g>
		<g transform="translate(672,600) scale(4.12)">
			<rect x="-54.991" y="-100.746" fill="#010101" width="0.762" height="0.762"/>
		</g>
		<g transform="translate(696,600) scale(4.12)">
			<rect x="-60.125" y="-100.746" fill="#010101" width="0.762" height="0.762"/>
		</g>
		<g transform="translate(744,600) scale(4.12)">
			<rect x="-70.299" y="-100.746" fill="#010101" width="0.762" height="0.762"/>
		</g>
		<g transform="translate(768,600) scale(4.12)">
			<rect x="-75.434" y="-100.746" fill="#010101" width="0.762" height="0.762"/>
		</g>
		<g transform="translate(816,600) scale(4.12)">
			<rect x="-85.703" y="-100.746" fill="#010101" width="0.762" height="0.762"/>
		</g>
		<g transform="translate(48,624) scale(4.12)">
			<rect x="78.032" y="-105.881" fill="#010101" width="0.762" height="0.762"/>
		</g>
		<g transform="translate(144,624) scale(4.12)">
			<rect x="57.589" y="-105.881" fill="#010101" width="0.762" height="0.762"/>
		</g>
		<g transform="translate(192,624) scale(4.12)">
			<rect x="47.32" y="-105.881" fill="#010101" width="0.762" height="0.762"/>
		</g>
		<g transform="translate(216,624) scale(4.12)">
			<rect x="42.185" y="-105.881" fill="#010101" width="0.762" height="0.762"/>
		</g>
		<g transform="translate(264,624) scale(4.12)">
			<rect x="32.011" y="-105.881" fill="#010101" width="0.762" height="0.762"/>
		</g>
		<g transform="translate(312,624) scale(4.12)">
			<rect x="21.742" y="-105.881" fill="#010101" width="0.762" height="0.762"/>
		</g>
		<g transform="translate(360,624) scale(4.12)">
			<rect x="11.568" y="-105.881" fill="#010101" width="0.762" height="0.762"/>
		</g>
		<g transform="translate(384,624) scale(4.12)">
			<rect x="6.434" y="-105.881" fill="#010101" width="0.762" height="0.762"/>
		</g>
		<g transform="translate(408,624) scale(4.12)">
			<rect x="1.299" y="-105.881" fill="#010101" width="0.762" height="0.762"/>
		</g>
		<g transform="translate(432,624) scale(4.12)">
			<rect x="-3.835" y="-105.881" fill="#010101" width="0.762" height="0.762"/>
		</g>
		<g transform="translate(480,624) scale(4.12)">
			<rect x="-14.105" y="-105.881" fill="#010101" width="0.762" height="0.762"/>
		</g>
		<g transform="translate(576,624) scale(4.12)">
			<rect x="-34.547" y="-105.881" fill="#010101" width="0.762" height="0.762"/>
		</g>
		<g transform="translate(624,624) scale(4.12)">
			<rect x="-44.721" y="-105.881" fill="#010101" width="0.762" height="0.762"/>
		</g>
		<g transform="translate(648,624) scale(4.12)">
			<rect x="-49.856" y="-105.881" fill="#010101" width="0.762" height="0.762"/>
		</g>
		<g transform="translate(672,624) scale(4.12)">
			<rect x="-54.991" y="-105.881" fill="#010101" width="0.762" height="0.762"/>
		</g>
		<g transform="translate(696,624) scale(4.12)">
			<rect x="-60.125" y="-105.881" fill="#010101" width="0.762" height="0.762"/>
		</g>
		<g transform="translate(720,624) scale(4.12)">
			<rect x="-65.26" y="-105.881" fill="#010101" width="0.762" height="0.762"/>
		</g>
		<g transform="translate(240,648) scale(4.12)">
			<rect x="37.146" y="-111.015" fill="#010101" width="0.762" height="0.762"/>
		</g>
		<g transform="translate(288,648) scale(4.12)">
			<rect x="26.877" y="-111.015" fill="#010101" width="0.762" height="0.762"/>
		</g>
		<g transform="translate(336,648) scale(4.12)">
			<rect x="16.608" y="-111.015" fill="#010101" width="0.762" height="0.762"/>
		</g>
		<g transform="translate(408,648) scale(4.12)">
			<rect x="1.299" y="-111.015" fill="#010101" width="0.762" height="0.762"/>
		</g>
		<g transform="translate(432,648) scale(4.12)">
			<rect x="-3.835" y="-111.015" fill="#010101" width="0.762" height="0.762"/>
		</g>
		<g transform="translate(456,648) scale(4.12)">
			<rect x="-8.97" y="-111.015" fill="#010101" width="0.762" height="0.762"/>
		</g>
		<g transform="translate(504,648) scale(4.12)">
			<rect x="-19.144" y="-111.015" fill="#010101" width="0.762" height="0.762"/>
		</g>
		<g transform="translate(552,648) scale(4.12)">
			<rect x="-29.413" y="-111.015" fill="#010101" width="0.762" height="0.762"/>
		</g>
		<g transform="translate(600,648) scale(4.12)">
			<rect x="-39.682" y="-111.015" fill="#010101" width="0.762" height="0.762"/>
		</g>
		<g transform="translate(624,648) scale(4.12)">
			<rect x="-44.721" y="-111.015" fill="#010101" width="0.762" height="0.762"/>
		</g>
		<g transform="translate(720,648) scale(4.12)">
			<rect x="-65.26" y="-111.015" fill="#010101" width="0.762" height="0.762"/>
		</g>
		<g transform="translate(768,648) scale(4.12)">
			<rect x="-75.434" y="-111.015" fill="#010101" width="0.762" height="0.762"/>
		</g>
		<g transform="translate(792,648) scale(4.12)">
			<rect x="-80.568" y="-111.015" fill="#010101" width="0.762" height="0.762"/>
		</g>
		<g transform="translate(816,648) scale(4.12)">
			<rect x="-85.703" y="-111.015" fill="#010101" width="0.762" height="0.762"/>
		</g>
		<g transform="translate(240,672) scale(4.12)">
			<rect x="37.146" y="-116.15" fill="#010101" width="0.762" height="0.762"/>
		</g>
		<g transform="translate(264,672) scale(4.12)">
			<rect x="32.011" y="-116.15" fill="#010101" width="0.762" height="0.762"/>
		</g>
		<g transform="translate(312,672) scale(4.12)">
			<rect x="21.742" y="-116.15" fill="#010101" width="0.762" height="0.762"/>
		</g>
		<g transform="translate(336,672) scale(4.12)">
			<rect x="16.608" y="-116.15" fill="#010101" width="0.762" height="0.762"/>
		</g>
		<g transform="translate(384,672) scale(4.12)">
			<rect x="6.434" y="-116.15" fill="#010101" width="0.762" height="0.762"/>
		</g>
		<g transform="translate(456,672) scale(4.12)">
			<rect x="-8.97" y="-116.15" fill="#010101" width="0.762" height="0.762"/>
		</g>
		<g transform="translate(528,672) scale(4.12)">
			<rect x="-24.278" y="-116.15" fill="#010101" width="0.762" height="0.762"/>
		</g>
		<g transform="translate(552,672) scale(4.12)">
			<rect x="-29.413" y="-116.15" fill="#010101" width="0.762" height="0.762"/>
		</g>
		<g transform="translate(600,672) scale(4.12)">
			<rect x="-39.682" y="-116.15" fill="#010101" width="0.762" height="0.762"/>
		</g>
		<g transform="translate(624,672) scale(4.12)">
			<rect x="-44.721" y="-116.15" fill="#010101" width="0.762" height="0.762"/>
		</g>
		<g transform="translate(672,672) scale(4.12)">
			<rect x="-54.99" y="-116.15" fill="#010101" width="0.762" height="0.762"/>
		</g>
		<g transform="translate(720,672) scale(4.12)">
			<rect x="-65.259" y="-116.15" fill="#010101" width="0.762" height="0.762"/>
		</g>
		<g transform="translate(768,672) scale(4.12)">
			<rect x="-75.433" y="-116.15" fill="#010101" width="0.762" height="0.762"/>
		</g>
		<g transform="translate(792,672) scale(4.12)">
			<rect x="-80.568" y="-116.15" fill="#010101" width="0.762" height="0.762"/>
		</g>
		<g transform="translate(240,696) scale(4.12)">
			<rect x="37.146" y="-121.189" fill="#010101" width="0.762" height="0.762"/>
		</g>
		<g transform="translate(264,696) scale(4.12)">
			<rect x="32.011" y="-121.189" fill="#010101" width="0.762" height="0.762"/>
		</g>
		<g transform="translate(312,696) scale(4.12)">
			<rect x="21.742" y="-121.189" fill="#010101" width="0.762" height="0.762"/>
		</g>
		<g transform="translate(336,696) scale(4.12)">
			<rect x="16.608" y="-121.189" fill="#010101" width="0.762" height="0.762"/>
		</g>
		<g transform="translate(384,696) scale(4.12)">
			<rect x="6.434" y="-121.189" fill="#010101" width="0.762" height="0.762"/>
		</g>
		<g transform="translate(408,696) scale(4.12)">
			<rect x="1.299" y="-121.189" fill="#010101" width="0.762" height="0.762"/>
		</g>
		<g transform="translate(456,696) scale(4.12)">
			<rect x="-8.97" y="-121.189" fill="#010101" width="0.762" height="0.762"/>
		</g>
		<g transform="translate(528,696) scale(4.12)">
			<rect x="-24.278" y="-121.189" fill="#010101" width="0.762" height="0.762"/>
		</g>
		<g transform="translate(552,696) scale(4.12)">
			<rect x="-29.413" y="-121.189" fill="#010101" width="0.762" height="0.762"/>
		</g>
		<g transform="translate(576,696) scale(4.12)">
			<rect x="-34.547" y="-121.189" fill="#010101" width="0.762" height="0.762"/>
		</g>
		<g transform="translate(600,696) scale(4.12)">
			<rect x="-39.682" y="-121.189" fill="#010101" width="0.762" height="0.762"/>
		</g>
		<g transform="translate(624,696) scale(4.12)">
			<rect x="-44.721" y="-121.189" fill="#010101" width="0.762" height="0.762"/>
		</g>
		<g transform="translate(720,696) scale(4.12)">
			<rect x="-65.259" y="-121.189" fill="#010101" width="0.762" height="0.762"/>
		</g>
		<g transform="translate(744,696) scale(4.12)">
			<rect x="-70.299" y="-121.189" fill="#010101" width="0.762" height="0.762"/>
		</g>
		<g transform="translate(768,696) scale(4.12)">
			<rect x="-75.433" y="-121.189" fill="#010101" width="0.762" height="0.762"/>
		</g>
		<g transform="translate(792,696) scale(4.12)">
			<rect x="-80.568" y="-121.189" fill="#010101" width="0.762" height="0.762"/>
		</g>
		<g transform="translate(816,696) scale(4.12)">
			<rect x="-85.702" y="-121.189" fill="#010101" width="0.762" height="0.762"/>
		</g>
		<g transform="translate(240,720) scale(4.12)">
			<rect x="37.146" y="-126.324" fill="#010101" width="0.762" height="0.762"/>
		</g>
		<g transform="translate(264,720) scale(4.12)">
			<rect x="32.012" y="-126.324" fill="#010101" width="0.762" height="0.762"/>
		</g>
		<g transform="translate(336,720) scale(4.12)">
			<rect x="16.608" y="-126.324" fill="#010101" width="0.762" height="0.762"/>
		</g>
		<g transform="translate(456,720) scale(4.12)">
			<rect x="-8.97" y="-126.324" fill="#010101" width="0.762" height="0.762"/>
		</g>
		<g transform="translate(504,720) scale(4.12)">
			<rect x="-19.143" y="-126.324" fill="#010101" width="0.762" height="0.762"/>
		</g>
		<g transform="translate(552,720) scale(4.12)">
			<rect x="-29.413" y="-126.324" fill="#010101" width="0.762" height="0.762"/>
		</g>
		<g transform="translate(624,720) scale(4.12)">
			<rect x="-44.721" y="-126.324" fill="#010101" width="0.762" height="0.762"/>
		</g>
		<g transform="translate(648,720) scale(4.12)">
			<rect x="-49.856" y="-126.324" fill="#010101" width="0.762" height="0.762"/>
		</g>
		<g transform="translate(672,720) scale(4.12)">
			<rect x="-54.99" y="-126.324" fill="#010101" width="0.762" height="0.762"/>
		</g>
		<g transform="translate(696,720) scale(4.12)">
			<rect x="-60.125" y="-126.324" fill="#010101" width="0.762" height="0.762"/>
		</g>
		<g transform="translate(720,720) scale(4.12)">
			<rect x="-65.259" y="-126.324" fill="#010101" width="0.762" height="0.762"/>
		</g>
		<g transform="translate(744,720) scale(4.12)">
			<rect x="-70.299" y="-126.324" fill="#010101" width="0.762" height="0.762"/>
		</g>
		<g transform="translate(816,720) scale(4.12)">
			<rect x="-85.702" y="-126.324" fill="#010101" width="0.762" height="0.762"/>
		</g>
		<g transform="translate(240,744) scale(4.12)">
			<rect x="37.146" y="-131.458" fill="#010101" width="0.762" height="0.762"/>
		</g>
		<g transform="translate(264,744) scale(4.12)">
			<rect x="32.012" y="-131.458" fill="#010101" width="0.762" height="0.762"/>
		</g>
		<g transform="translate(312,744) scale(4.12)">
			<rect x="21.743" y="-131.458" fill="#010101" width="0.762" height="0.762"/>
		</g>
		<g transform="translate(336,744) scale(4.12)">
			<rect x="16.608" y="-131.458" fill="#010101" width="0.762" height="0.762"/>
		</g>
		<g transform="translate(360,744) scale(4.12)">
			<rect x="11.569" y="-131.458" fill="#010101" width="0.762" height="0.762"/>
		</g>
		<g transform="translate(408,744) scale(4.12)">
			<rect x="1.299" y="-131.458" fill="#010101" width="0.762" height="0.762"/>
		</g>
		<g transform="translate(432,744) scale(4.12)">
			<rect x="-3.835" y="-131.458" fill="#010101" width="0.762" height="0.762"/>
		</g>
		<g transform="translate(456,744) scale(4.12)">
			<rect x="-8.97" y="-131.458" fill="#010101" width="0.762" height="0.762"/>
		</g>
		<g transform="translate(480,744) scale(4.12)">
			<rect x="-14.104" y="-131.458" fill="#010101" width="0.762" height="0.762"/>
		</g>
		<g transform="translate(528,744) scale(4.12)">
			<rect x="-24.278" y="-131.458" fill="#010101" width="0.762" height="0.762"/>
		</g>
		<g transform="translate(576,744) scale(4.12)">
			<rect x="-34.547" y="-131.458" fill="#010101" width="0.762" height="0.762"/>
		</g>
		<g transform="translate(600,744) scale(4.12)">
			<rect x="-39.682" y="-131.458" fill="#010101" width="0.762" height="0.762"/>
		</g>
		<g transform="translate(624,744) scale(4.12)">
			<rect x="-44.721" y="-131.458" fill="#010101" width="0.762" height="0.762"/>
		</g>
		<g transform="translate(648,744) scale(4.12)">
			<rect x="-49.856" y="-131.458" fill="#010101" width="0.762" height="0.762"/>
		</g>
		<g transform="translate(720,744) scale(4.12)">
			<rect x="-65.259" y="-131.458" fill="#010101" width="0.762" height="0.762"/>
		</g>
		<g transform="translate(744,744) scale(4.12)">
			<rect x="-70.299" y="-131.458" fill="#010101" width="0.762" height="0.762"/>
		</g>
		<g transform="translate(816,744) scale(4.12)">
			<rect x="-85.702" y="-131.458" fill="#010101" width="0.762" height="0.762"/>
		</g>
		<g transform="translate(240,768) scale(4.12)">
			<rect x="37.146" y="-136.593" fill="#010101" width="0.762" height="0.762"/>
		</g>
		<g transform="translate(288,768) scale(4.12)">
			<rect x="26.877" y="-136.593" fill="#010101" width="0.762" height="0.762"/>
		</g>
		<g transform="translate(312,768) scale(4.12)">
			<rect x="21.743" y="-136.593" fill="#010101" width="0.762" height="0.762"/>
		</g>
		<g transform="translate(336,768) scale(4.12)">
			<rect x="16.608" y="-136.593" fill="#010101" width="0.762" height="0.762"/>
		</g>
		<g transform="translate(360,768) scale(4.12)">
			<rect x="11.569" y="-136.593" fill="#010101" width="0.762" height="0.762"/>
		</g>
		<g transform="translate(408,768) scale(4.12)">
			<rect x="1.3" y="-136.593" fill="#010101" width="0.762" height="0.762"/>
		</g>
		<g transform="translate(456,768) scale(4.12)">
			<rect x="-8.97" y="-136.593" fill="#010101" width="0.762" height="0.762"/>
		</g>
		<g transform="translate(504,768) scale(4.12)">
			<rect x="-19.143" y="-136.593" fill="#010101" width="0.762" height="0.762"/>
		</g>
		<g transform="translate(576,768) scale(4.12)">
			<rect x="-34.547" y="-136.593" fill="#010101" width="0.762" height="0.762"/>
		</g>
		<g transform="translate(672,768) scale(4.12)">
			<rect x="-54.99" y="-136.593" fill="#010101" width="0.762" height="0.762"/>
		</g>
		<g transform="translate(696,768) scale(4.12)">
			<rect x="-60.125" y="-136.593" fill="#010101" width="0.762" height="0.762"/>
		</g>
		<g transform="translate(744,768) scale(4.12)">
			<rect x="-70.299" y="-136.593" fill="#010101" width="0.762" height="0.762"/>
		</g>
		<g transform="translate(240,792) scale(4.12)">
			<rect x="37.146" y="-141.727" fill="#010101" width="0.762" height="0.762"/>
		</g>
		<g transform="translate(264,792) scale(4.12)">
			<rect x="32.012" y="-141.727" fill="#010101" width="0.762" height="0.762"/>
		</g>
		<g transform="translate(288,792) scale(4.12)">
			<rect x="26.877" y="-141.727" fill="#010101" width="0.762" height="0.762"/>
		</g>
		<g transform="translate(336,792) scale(4.12)">
			<rect x="16.608" y="-141.727" fill="#010101" width="0.762" height="0.762"/>
		</g>
		<g transform="translate(432,792) scale(4.12)">
			<rect x="-3.835" y="-141.727" fill="#010101" width="0.762" height="0.762"/>
		</g>
		<g transform="translate(456,792) scale(4.12)">
			<rect x="-8.969" y="-141.727" fill="#010101" width="0.762" height="0.762"/>
		</g>
		<g transform="translate(504,792) scale(4.12)">
			<rect x="-19.143" y="-141.727" fill="#010101" width="0.762" height="0.762"/>
		</g>
		<g transform="translate(528,792) scale(4.12)">
			<rect x="-24.278" y="-141.727" fill="#010101" width="0.762" height="0.762"/>
		</g>
		<g transform="translate(552,792) scale(4.12)">
			<rect x="-29.412" y="-141.727" fill="#010101" width="0.762" height="0.762"/>
		</g>
		<g transform="translate(576,792) scale(4.12)">
			<rect x="-34.547" y="-141.727" fill="#010101" width="0.762" height="0.762"/>
		</g>
		<g transform="translate(600,792) scale(4.12)">
			<rect x="-39.682" y="-141.727" fill="#010101" width="0.762" height="0.762"/>
		</g>
		<g transform="translate(648,792) scale(4.12)">
			<rect x="-49.855" y="-141.727" fill="#010101" width="0.762" height="0.762"/>
		</g>
		<g transform="translate(672,792) scale(4.12)">
			<rect x="-54.99" y="-141.727" fill="#010101" width="0.762" height="0.762"/>
		</g>
		<g transform="translate(720,792) scale(4.12)">
			<rect x="-65.259" y="-141.727" fill="#010101" width="0.762" height="0.762"/>
		</g>
		<g transform="translate(744,792) scale(4.12)">
			<rect x="-70.299" y="-141.727" fill="#010101" width="0.762" height="0.762"/>
		</g>
		<g transform="translate(768,792) scale(4.12)">
			<rect x="-75.433" y="-141.727" fill="#010101" width="0.762" height="0.762"/>
		</g>
		<g transform="translate(288,816) scale(4.12)">
			<rect x="26.877" y="-146.767" fill="#010101" width="0.762" height="0.762"/>
		</g>
		<g transform="translate(312,816) scale(4.12)">
			<rect x="21.743" y="-146.767" fill="#010101" width="0.762" height="0.762"/>
		</g>
		<g transform="translate(360,816) scale(4.12)">
			<rect x="11.569" y="-146.767" fill="#010101" width="0.762" height="0.762"/>
		</g>
		<g transform="translate(384,816) scale(4.12)">
			<rect x="6.434" y="-146.767" fill="#010101" width="0.762" height="0.762"/>
		</g>
		<g transform="translate(432,816) scale(4.12)">
			<rect x="-3.835" y="-146.767" fill="#010101" width="0.762" height="0.762"/>
		</g>
		<g transform="translate(480,816) scale(4.12)">
			<rect x="-14.104" y="-146.767" fill="#010101" width="0.762" height="0.762"/>
		</g>
		<g transform="translate(504,816) scale(4.12)">
			<rect x="-19.143" y="-146.767" fill="#010101" width="0.762" height="0.762"/>
		</g>
		<g transform="translate(576,816) scale(4.12)">
			<rect x="-34.547" y="-146.767" fill="#010101" width="0.762" height="0.762"/>
		</g>
		<g transform="translate(600,816) scale(4.12)">
			<rect x="-39.682" y="-146.767" fill="#010101" width="0.762" height="0.762"/>
		</g>
		<g transform="translate(624,816) scale(4.12)">
			<rect x="-44.721" y="-146.767" fill="#010101" width="0.762" height="0.762"/>
		</g>
		<g transform="translate(648,816) scale(4.12)">
			<rect x="-49.855" y="-146.767" fill="#010101" width="0.762" height="0.762"/>
		</g>
		<g transform="translate(696,816) scale(4.12)">
			<rect x="-60.124" y="-146.767" fill="#010101" width="0.762" height="0.762"/>
		</g>
		<g transform="translate(744,816) scale(4.12)">
			<rect x="-70.298" y="-146.767" fill="#010101" width="0.762" height="0.762"/>
		</g>
		<g transform="translate(792,816) scale(4.12)">
			<rect x="-80.568" y="-146.767" fill="#010101" width="0.762" height="0.762"/>
		</g>
		<g transform="translate(48,48)">
			<g transform="scale(12)">
				<path fill="#010101" d="M26.789,5.809v1.714h1.714V5.809H26.789z M28.218,7.238H26.98V6.095h1.238V7.238z"/>
			</g>
		</g>
		<g transform="translate(672,48)">
			<g transform="scale(12)">
				<path fill="#010101" d="M-18.925,5.809v1.714h1.714V5.809H-18.925z M-17.402,7.238h-1.238V6.095h1.238V7.238z"/>
			</g>
		</g>
		<g transform="translate(48,672)">
			<g transform="scale(12)">
				<path fill="#010101" d="M26.789-39.905v1.714h1.714v-1.714H26.789z M28.218-38.382H26.98v-1.238h1.238V-38.382z"/>
			</g>
		</g>
		<g transform="translate(96,96)">
			<g transform="scale(12)">
				<rect x="23.265" y="2.285" fill="#010101" width="0.762" height="0.762"/>
			</g>
		</g>
		<g transform="translate(720,96)">
			<g transform="scale(12)">
				<rect x="-22.354" y="2.285" fill="#010101" width="0.762" height="0.762"/>
			</g>
		</g>
		<g transform="translate(96,720)">
			<g transform="scale(12)">
				<rect x="23.265" y="-43.334" fill="#010101" width="0.762" height="0.762"/>
			</g>
		</g>
	</g>
</g>
<path fill="none" stroke="#EC008C" stroke-miterlimit="10" d="M464.991,226.658h-94.473c-7.429,0-13.523-6-13.523-13.523v-94.473
	c0-7.428,6-13.523,13.523-13.523h94.473c7.428,0,13.523,6,13.523,13.523v94.473C478.419,220.658,472.419,226.658,464.991,226.658z"
	/>
<path fill="none" stroke="#EC008C" stroke-miterlimit="10" d="M540.798,156.185h-26.951c-7.429,0-13.523-6-13.523-13.523v-23.618
	c0-7.428,6-13.523,13.523-13.523h26.951c7.428,0,13.523,6,13.523,13.523v23.618C554.226,150.185,548.226,156.185,540.798,156.185z"
	/>
<path fill="none" stroke="#EC008C" stroke-miterlimit="10" d="M540.798,225.896h-26.951c-7.429,0-13.523-6-13.523-13.523v-23.618
	c0-7.428,6-13.523,13.523-13.523h26.951c7.428,0,13.523,6,13.523,13.523v23.618C554.226,219.801,548.226,225.896,540.798,225.896z"
	/>
<path fill="none" stroke="#EC008C" stroke-miterlimit="10" d="M620.413,154.946h-26.951c-7.428,0-13.523-6-13.523-13.523v-23.618
	c0-7.428,6-13.523,13.523-13.523h26.951c7.429,0,13.523,6,13.523,13.523v23.618C633.937,148.852,627.842,154.946,620.413,154.946z"
	/>
<path fill="none" stroke="#EC008C" stroke-miterlimit="10" d="M620.413,224.562h-26.951c-7.428,0-13.523-6-13.523-13.523v-23.618
	c0-7.428,6-13.523,13.523-13.523h26.951c7.429,0,13.523,6,13.523,13.523v23.618C633.937,218.563,627.842,224.562,620.413,224.562z"
	/>
<text transform="matrix(1 0 0 1 508.1702 125.1841)" font-family="'AndulkaSansMedium'" font-size="11.4281">ZRUIT</text>
<g>
	<path d="M510.037,204.183h-1.429v-8c0.762-0.095,1.619-0.095,2.477-0.095c2.189,0,3.047,1.143,3.047,2.381
		c0,1.333-0.857,2.762-3.238,2.762c-0.285,0-0.571,0-0.856-0.095V204.183L510.037,204.183z M510.037,199.992
		c0.285,0,0.667,0.095,0.856,0.095c1.238,0,1.619-0.571,1.619-1.333c0-0.762-0.381-1.333-1.428-1.333c-0.381,0-0.763,0-1.048,0.095
		V199.992z"/>
	<path d="M522.227,200.183c0,2.571-1.714,4.19-3.714,4.19c-1.904,0-3.619-1.429-3.619-4.095s1.81-4.19,3.715-4.19
		C520.513,196.087,522.227,197.516,522.227,200.183z M520.609,200.278c0-2-0.857-2.762-2.096-2.762s-2.095,0.857-2.095,2.762
		c0,1.81,0.856,2.762,2.095,2.762S520.609,202.087,520.609,200.278z"/>
	<path d="M528.417,196.563l-0.19,0.667c-0.095,0.476-0.285,0.571-0.571,0.571c-0.19,0-0.286,0-0.477-0.095
		c-0.381-0.19-0.856-0.286-1.333-0.286c-0.571,0-0.952,0.286-0.952,0.952c0,0.571,0.477,0.857,1.429,1.238
		c1.237,0.476,2.285,0.952,2.285,2.286c0,1.619-1.238,2.571-2.952,2.571c-0.857,0-1.714-0.19-2.381-0.572l0.477-1.238
		c0.571,0.286,1.428,0.476,2,0.476c0.666,0,1.333-0.286,1.333-1.047c0-0.667-0.571-0.953-1.619-1.333c-0.952-0.381-2-0.857-2-2.19
		c0-1.523,1.333-2.381,2.762-2.381C526.894,196.087,527.751,196.278,528.417,196.563z"/>
	<path d="M529.941,204.183v-8h1.429v6.762h3.429c0.19,0,0.286,0.095,0.286,0.381v0.857H529.941z"/>
	<path d="M539.75,196.183l2.762,8h-1.143c-0.477,0-0.571-0.095-0.571-0.286l-0.571-1.714h-2.667l-0.571,1.714
		c-0.096,0.286-0.19,0.286-0.571,0.286h-1.048l2.857-8H539.75z M537.941,201.04h2l-0.952-3.047L537.941,201.04z"/>
	<path d="M548.512,196.183v0.857c0,0.286-0.096,0.381-0.286,0.381h-2.19v6.762h-1.428v-6.762h-2.19c-0.19,0-0.286-0.095-0.286-0.381
		v-0.857H548.512z"/>
</g>
<g>
	<path d="M592.415,127.042c0.856,0,1.714-0.095,2.762-0.095c2.476,0,3.714,1.714,3.714,4c0,2.381-1.333,4.095-4.095,4.095
		c-0.857,0-1.619,0-2.381-0.095V127.042z M593.843,133.614c0,0.19,0.286,0.19,1.144,0.19c1.523,0,2.381-0.857,2.381-2.667
		c0-1.619-0.477-2.952-2.477-2.952c-0.381,0-0.667,0-1.048,0V133.614z"/>
	<path d="M607.272,131.042c0,2.571-1.715,4.19-3.715,4.19c-1.904,0-3.618-1.429-3.618-4.095s1.809-4.19,3.714-4.19
		C605.557,126.947,607.272,128.376,607.272,131.042z M605.747,131.138c0-2-0.856-2.762-2.095-2.762s-2.095,0.857-2.095,2.762
		c0,1.81,0.856,2.762,2.095,2.762S605.747,132.947,605.747,131.138z"/>
	<path d="M610.128,135.042H608.7v-8c0.762-0.095,1.618-0.095,2.476-0.095c2.19,0,3.048,1.143,3.048,2.381
		c0,1.333-0.857,2.762-3.238,2.762c-0.286,0-0.571,0-0.857-0.095V135.042L610.128,135.042z M610.128,130.852
		c0.286,0,0.667,0.095,0.857,0.095c1.238,0,1.619-0.571,1.619-1.333c0-0.762-0.381-1.333-1.429-1.333c-0.381,0-0.762,0-1.048,0.095
		V130.852z"/>
	<path d="M616.986,127.042v8h-1.429v-8H616.986z"/>
	<path d="M623.652,127.424l-0.19,0.667c-0.095,0.476-0.286,0.571-0.571,0.571c-0.19,0-0.286,0-0.477-0.095
		c-0.381-0.19-0.856-0.286-1.333-0.286c-0.571,0-0.952,0.286-0.952,0.952c0,0.572,0.477,0.857,1.429,1.238
		c1.237,0.476,2.285,0.952,2.285,2.286c0,1.619-1.238,2.571-2.952,2.571c-0.857,0-1.714-0.19-2.381-0.571l0.477-1.238
		c0.571,0.286,1.428,0.476,2,0.476c0.666,0,1.333-0.286,1.333-1.047c0-0.667-0.571-0.953-1.619-1.333c-0.952-0.381-2-0.857-2-2.19
		c0-1.523,1.333-2.381,2.762-2.381C622.128,126.947,622.986,127.138,623.652,127.424z"/>
</g>
<g>
	<path d="M593.367,196.563c0.762-0.095,1.619-0.095,2.476-0.095c1.81,0,2.857,0.667,2.857,1.905c0,0.953-0.477,1.714-1.904,1.905
		c1.523,0.095,2.285,0.952,2.285,2c0,1.524-1.238,2.286-3.238,2.286c-0.762,0-1.619,0-2.381-0.095v-7.905H593.367z M594.796,199.802
		h0.952c1.048,0,1.429-0.476,1.429-1.048c0-0.667-0.572-1.047-1.429-1.047c-0.286,0-0.571,0-0.857,0.095v2H594.796z M594.796,203.23
		c0,0.095,0.285,0.19,1.047,0.19c1.144,0,1.524-0.476,1.524-1.143c0-0.762-0.571-1.238-1.715-1.238h-0.856V203.23z"/>
	<path d="M603.939,196.563l2.762,8h-1.144c-0.476,0-0.571-0.095-0.571-0.286l-0.571-1.714h-2.667l-0.571,1.714
		c-0.095,0.286-0.19,0.286-0.571,0.286h-1.047l2.856-8H603.939z M602.129,201.421h1.999l-0.952-3.048L602.129,201.421z"/>
	<path d="M607.747,204.563v-8h1.429v6.762h3.429c0.19,0,0.285,0.095,0.285,0.381v0.857H607.747z"/>
	<path d="M616.319,194.374l-1.619,1.714c-0.19,0.19-0.285,0.19-0.476,0.095l-0.572-0.095l1.144-1.714H616.319z M615.366,196.563v8
		h-1.429v-8H615.366z"/>
	<path d="M618.605,196.563v3.143c0.476,0,0.571,0,0.952-0.571l1.81-2.667h1.714l-2.095,2.857c-0.477,0.667-0.763,0.857-1.048,0.952
		c0.381,0.095,0.856,0.381,1.238,1.143l1.999,3.047h-1.333c-0.381,0-0.476-0.095-0.571-0.286l-1.619-2.571
		c-0.381-0.572-0.571-0.667-1.143-0.667v3.524h-1.429v-8h1.524V196.563z"/>
</g>
<g>
	<path d="M519.942,135.233v0.857c0,0.286-0.096,0.381-0.286,0.381h-2.19v6.762h-1.428v-6.762h-2.19c-0.19,0-0.286-0.095-0.286-0.381
		v-0.857H519.942z"/>
	<path d="M523.846,135.233l2.762,8h-1.143c-0.477,0-0.571-0.095-0.571-0.286l-0.571-1.714h-2.667l-0.571,1.714
		c-0.095,0.286-0.19,0.286-0.571,0.286h-1.048l2.857-8H523.846z M522.036,140.09h2l-0.952-3.048L522.036,140.09z M524.798,133.042
		l-1.618,1.714c-0.19,0.19-0.286,0.19-0.477,0.095l-0.571-0.095l1.143-1.714H524.798z"/>
	<path d="M529.084,143.232h-1.429v-8c0.762-0.095,1.619-0.095,2.477-0.095c2.189,0,2.856,0.952,2.856,2.19
		c0,1.047-0.667,2-1.81,2.19c0.381,0.19,0.857,0.381,1.524,1.619l1.237,2.095h-1.333c-0.286,0-0.476-0.095-0.571-0.286l-1.333-2.19
		c-0.286-0.571-0.667-0.667-1.144-0.667h-0.476V143.232z M529.084,138.852c0.285,0,0.571,0.095,0.762,0.095
		c1.143,0,1.619-0.476,1.619-1.238c0-0.667-0.381-1.143-1.429-1.143c-0.285,0-0.667,0-0.952,0.095V138.852z"/>
	<path d="M538.322,135.233l2.762,8h-1.143c-0.477,0-0.571-0.095-0.571-0.286l-0.571-1.714h-2.667l-0.571,1.714
		c-0.095,0.286-0.19,0.286-0.571,0.286h-1.048l2.857-8H538.322z M536.512,140.09h2l-0.952-3.048L536.512,140.09z"/>
</g>
<path fill-rule="evenodd" clip-rule="evenodd" fill="#FFEEAA" d="M386.314,273.671c0.011,0.301,0.031,0.602,0.031,0.902
	c0.001,44.392,0.001,88.782,0,133.174c0,0.301-0.02,0.601-0.031,0.901c-0.046-0.032-0.157,0.077-0.152-0.075
	c0.006-0.2,0.001-0.402,0.001-0.604c0-44.54,0-89.08,0.009-133.62C386.173,274.129,385.999,273.839,386.314,273.671z"/>
<path fill-rule="evenodd" clip-rule="evenodd" fill="#FFFFFE" d="M763.196,408.648c0-44.992,0-89.984,0-134.977
	c0.046,0.033,0.157-0.076,0.152,0.075c-0.007,0.201-0.002,0.402-0.002,0.604c0,44.54,0.001,89.08-0.009,133.62
	C763.337,408.19,763.511,408.481,763.196,408.648z"/>
<path fill-rule="evenodd" clip-rule="evenodd" fill="#FFFFFE" d="M448.56,355.444c1.476,0.012,2.952,0.025,4.428,0.033
	c1.402,0.007,2.803,0.009,4.205,0.013c-0.009,0.124-0.003,0.252-0.029,0.373c-0.316,1.472-0.646,2.94-0.952,4.415
	c-0.177,0.853-0.419,1.694-0.514,2.57c0.115,0.023,0.187,0.053,0.26,0.053c3.09,0.003,6.18-0.002,9.271,0.013
	c0.355,0.001,0.485-0.143,0.549-0.459c0.198-0.984,0.4-1.968,0.625-2.945c0.308-1.344,0.517-2.71,0.912-4.034
	c2.352,0.006,4.703,0.011,7.054,0.016c-0.246,1.585-0.661,3.136-0.966,4.709c-0.17,0.879-0.43,1.743-0.519,2.629
	c0.282,0.125,0.537,0.074,0.784,0.075c8.885,0.003,17.77,0.002,26.655,0.002c0.15,0,0.302-0.01,0.451,0.002
	c0.28,0.02,0.402-0.117,0.454-0.381c0.146-0.738,0.303-1.474,0.466-2.208c0.356-1.614,0.719-3.228,1.08-4.842
	c6.364,0.004,12.729,0.008,19.093,0.011c-0.422,2.012-0.851,4.021-1.26,6.036c-0.088,0.434-0.276,0.858-0.212,1.312
	c0.262,0.119,0.517,0.066,0.764,0.066c2.688,0.005,5.375,0.01,8.062,0c1.31-0.005,0.983,0.175,1.263-1.039
	c0.491-2.126,0.943-4.261,1.411-6.393c10.197,0.002,20.395,0.004,30.592,0.005c0.125,0,0.25-0.017,0.375-0.026
	c0.072,0.103,0.151,0.2,0.217,0.307c2.497,4.11,6.252,6.324,10.884,7.203c3.626,0.688,7.247,0.552,10.844-0.195
	c3.58-0.744,6.784-2.277,9.538-4.715c0.904-0.801,1.681-1.723,2.508-2.597c2.029,0.008,4.059,0.016,6.088,0.025
	c0.376,0.002,0.752,0.01,1.127,0.015c-0.478,1.638-1.116,3.221-1.661,4.836c-0.373,1.109-0.386,1.118,0.715,1.423
	c3.951,1.096,7.998,1.443,12.078,1.506c3.024,0.047,6.024-0.176,8.968-0.923c1.464-0.372,2.874-0.893,4.226-1.57
	c2.419-1.212,4.346-2.958,5.72-5.3c3.502,0.004,7.003,0.009,10.504,0.014c0.525,0.001,1.051,0.007,1.576,0.01
	c-0.142,1.198-0.474,2.358-0.713,3.537c-0.259,1.272-0.536,2.54-0.802,3.798c0.081,0.034,0.104,0.052,0.127,0.052
	c3.164,0.011,6.328,0.018,9.491,0.035c0.333,0.002,0.418-0.172,0.472-0.452c0.138-0.714,0.29-1.426,0.453-2.135
	c0.371-1.613,0.646-3.248,1.079-4.847c6.334,0.001,12.667,0.001,19,0.002c0.896,0,0.901,0.002,0.712,0.896
	c-1.462,6.876-2.927,13.752-4.391,20.628c-0.148,0.694-0.152,0.693-0.88,0.697c-0.126,0.001-0.252,0.001-0.377,0.001
	c-89.02,0-178.038,0-267.057,0c-1.182,0-1.174,0.001-0.932-1.138c1.439-6.753,2.874-13.507,4.31-20.26
	c0.016-0.074,0.028-0.148,0.045-0.222c0.138-0.591,0.138-0.601,0.729-0.601c2.187-0.001,4.373,0.006,6.56,0.01
	c-0.457,2.187-0.91,4.373-1.371,6.558c-0.178,0.846-0.186,0.845,0.697,0.845c5.379,0,10.757,0.007,16.136-0.003
	c2.088-0.004,4.166-0.139,6.223-0.539c3.68-0.717,7.056-2.117,10.051-4.396C446.756,357.19,447.643,356.302,448.56,355.444z"/>
<path fill-rule="evenodd" clip-rule="evenodd" fill="#FF0100" d="M712.848,325.228c0.286-1.354,0.547-2.604,0.814-3.852
	c1.431-6.677,2.863-13.354,4.296-20.03c0.222-1.03,0.448-2.061,0.669-3.092c0.047-0.221,0.079-0.445,0.117-0.668
	c0.037-0.215-0.049-0.341-0.271-0.354c-0.176-0.01-0.352-0.012-0.527-0.012c-5.781,0-11.562,0-17.343,0.001
	c-0.76,0-0.759,0.003-0.919,0.745c-1.902,8.861-3.805,17.723-5.707,26.584c-0.144,0.669-0.143,0.675-0.824,0.676
	c-2.613,0.003-5.228,0.001-7.842,0.001c-0.15,0-0.302-0.003-0.451-0.013c-0.188-0.012-0.263-0.126-0.243-0.303
	c0.016-0.149,0.037-0.299,0.069-0.446c1.725-8.025,3.455-16.051,5.178-24.077c0.784-3.657,1.556-7.317,2.333-10.976
	c0.177-0.832,0.177-0.833,0.998-0.834c11.989,0,23.979,0,35.968,0.003c0.247,0,0.503-0.055,0.796,0.098
	c-0.189,0.914-0.377,1.842-0.573,2.768c-1.725,8.129-3.45,16.258-5.175,24.387c-0.026,0.123-0.052,0.246-0.071,0.37
	c-0.036,0.222,0.066,0.331,0.285,0.335c0.227,0.005,0.453,0.008,0.679,0.008c8.697,0,17.394-0.001,26.09,0.003
	c0.296,0,0.603-0.064,0.946,0.098c-0.146,0.722-0.283,1.455-0.439,2.185c-2.185,10.161-4.372,20.322-6.558,30.484
	c-0.121,0.564-0.25,1.128-0.349,1.696c-0.058,0.335-0.218,0.483-0.557,0.458c-0.2-0.015-0.402-0.002-0.604-0.002
	c-8.571,0-17.142,0-25.713,0c-0.176,0-0.352-0.001-0.527,0.001c-0.66,0.009-0.663,0.009-0.796,0.623
	c-0.355,1.645-0.708,3.289-1.062,4.934c-1.407,6.554-2.815,13.107-4.224,19.661c-0.042,0.196-0.11,0.39-0.129,0.588
	c-0.032,0.361-0.235,0.464-0.562,0.438c-0.149-0.013-0.302-0.002-0.452-0.002c-9.552,0-19.103,0-28.654,0
	c-0.994,0-1-0.002-0.799-0.961c0.499-2.384,1.003-4.767,1.506-7.15c0.149-0.706,0.15-0.711,0.879-0.711
	c6.435-0.002,12.869-0.001,19.304-0.001c0.201,0,0.402,0.003,0.604-0.001c0.632-0.013,0.634-0.013,0.772-0.661
	c1.765-8.248,3.528-16.497,5.292-24.746c0.158-0.738,0.156-0.742,0.927-0.742c8.722-0.001,17.443-0.001,26.165-0.001
	c0.176,0,0.352,0.003,0.528,0c0.6-0.012,0.607-0.011,0.732-0.595c0.851-3.951,1.698-7.903,2.546-11.855
	c0.326-1.521,0.654-3.044,0.974-4.567c0.096-0.453,0.079-0.466-0.375-0.488c-0.2-0.01-0.401-0.003-0.603-0.003
	c-8.697,0-17.394,0-26.09,0C713.578,325.228,713.28,325.228,712.848,325.228z"/>
<path fill-rule="evenodd" clip-rule="evenodd" fill="#1E1E1B" d="M448.56,355.444c-0.917,0.857-1.804,1.746-2.807,2.51
	c-2.996,2.279-6.371,3.68-10.051,4.396c-2.057,0.4-4.135,0.535-6.223,0.539c-5.379,0.01-10.757,0.003-16.136,0.003
	c-0.883,0-0.875,0.001-0.697-0.845c0.461-2.185,0.915-4.371,1.371-6.558c0.617-2.845,1.24-5.688,1.85-8.534
	c1.64-7.657,3.272-15.315,4.908-22.974c0.477-2.233,0.955-4.467,1.432-6.7c0.143-0.667,0.142-0.673,0.817-0.672
	c4.698,0.008,9.397,0.005,14.095,0.033c2.394,0.014,4.767,0.249,7.066,0.964c5.757,1.79,9.364,5.639,10.878,11.452
	c0.808,3.101,0.868,6.254,0.531,9.426c-0.317,2.984-0.94,5.896-2.017,8.703c-1.107,2.888-2.643,5.521-4.694,7.845
	C448.769,355.164,448.668,355.307,448.56,355.444z M428.237,354.463c0.276,0,0.553,0.007,0.829-0.001
	c1.808-0.051,3.619-0.098,5.368-0.633c3.328-1.018,5.789-3.139,7.62-6.045c1.603-2.545,2.532-5.345,3.063-8.284
	c0.454-2.514,0.602-5.033,0.043-7.559c-0.852-3.851-3.33-6.109-7.248-6.571c-2.279-0.27-4.568-0.125-6.852-0.17
	c-0.323-0.006-0.45,0.146-0.498,0.427c-0.018,0.099-0.039,0.197-0.06,0.295c-1.246,5.843-2.493,11.685-3.737,17.527
	c-0.742,3.486-1.479,6.973-2.215,10.46c-0.113,0.534-0.105,0.547,0.444,0.552C426.076,354.469,427.156,354.463,428.237,354.463z"/>
<path fill-rule="evenodd" clip-rule="evenodd" fill="#1E1E1B" d="M596.85,355.453c-0.827,0.874-1.604,1.796-2.508,2.597
	c-2.754,2.438-5.958,3.971-9.538,4.715c-3.597,0.747-7.218,0.883-10.844,0.195c-4.632-0.879-8.387-3.093-10.884-7.203
	c-0.065-0.106-0.145-0.204-0.217-0.307c-0.881-1.729-1.554-3.53-1.911-5.447c-0.51-2.746-0.521-5.504-0.097-8.249
	c0.635-4.106,1.685-8.104,3.388-11.912c1.167-2.608,2.662-5.006,4.62-7.102c2.531-2.709,5.593-4.578,9.147-5.576
	c4.55-1.276,9.168-1.521,13.772-0.354c6.418,1.625,10.274,5.792,11.693,12.223c0.719,3.259,0.617,6.538,0.017,9.804
	c-0.743,4.036-1.814,7.975-3.613,11.687c-0.78,1.609-1.706,3.129-2.785,4.556C597.003,355.196,596.93,355.327,596.85,355.453z
	 M593.445,334.389c0.002-1.264-0.087-2.517-0.384-3.742c-0.502-2.072-1.475-3.837-3.371-4.968c-1.287-0.768-2.7-1.039-4.18-1.078
	c-3.323-0.089-6.152,0.993-8.401,3.49c-1.381,1.531-2.36,3.304-3.122,5.203c-1.21,3.021-1.986,6.161-2.423,9.379
	c-0.292,2.151-0.29,4.309,0.239,6.437c0.53,2.132,1.576,3.9,3.562,4.993c1.1,0.605,2.298,0.871,3.536,0.939
	c2.866,0.16,5.481-0.522,7.708-2.408c1.56-1.322,2.716-2.963,3.566-4.804C592.145,343.567,593.221,339.078,593.445,334.389z"/>
<path fill-rule="evenodd" clip-rule="evenodd" fill="#1E1E1B" d="M531.893,355.472c-0.468,2.132-0.92,4.267-1.411,6.393
	c-0.28,1.214,0.047,1.034-1.263,1.039c-2.688,0.01-5.375,0.005-8.062,0c-0.247,0-0.501,0.053-0.764-0.066
	c-0.064-0.454,0.124-0.879,0.212-1.312c0.409-2.015,0.838-4.024,1.26-6.036c0.412-1.861,0.833-3.722,1.235-5.586
	c2.042-9.472,4.079-18.944,6.118-28.416c0.312-1.448,0.64-2.893,0.928-4.345c0.078-0.392,0.216-0.544,0.63-0.54
	c4.824,0.04,9.651-0.101,14.473,0.085c3.059,0.118,5.948,0.91,8.531,2.633c2.95,1.967,4.694,4.737,5.204,8.212
	c1.273,8.679-3.738,17.135-12.078,20.081c-2.207,0.779-4.482,1.103-6.802,1.145c-2.06,0.037-4.121,0.01-6.182,0.015
	c-0.601,0.002-0.607,0.007-0.731,0.588C532.755,351.396,532.324,353.435,531.893,355.472z M535.184,340.131
	c0.073,0.04,0.116,0.084,0.159,0.084c2.208,0.009,4.429,0.186,6.615-0.217c2.455-0.452,4.458-1.68,5.785-3.841
	c1.249-2.033,1.583-4.286,1.224-6.604c-0.393-2.539-2.074-4.032-4.612-4.326c-1.854-0.215-3.713-0.068-5.57-0.12
	c-0.301-0.009-0.473,0.088-0.512,0.397c-0.019,0.148-0.065,0.294-0.096,0.441c-0.837,3.9-1.679,7.8-2.505,11.703
	C535.498,338.477,535.268,339.296,535.184,340.131z"/>
<path fill-rule="evenodd" clip-rule="evenodd" fill="#1E1E1B" d="M502.771,355.478c-0.36,1.614-0.723,3.228-1.08,4.842
	c-0.163,0.734-0.319,1.47-0.466,2.208c-0.052,0.264-0.174,0.4-0.454,0.381c-0.149-0.012-0.301-0.002-0.451-0.002
	c-8.885,0-17.771,0.001-26.655-0.002c-0.247-0.001-0.501,0.05-0.784-0.075c0.089-0.886,0.349-1.75,0.519-2.629
	c0.305-1.573,0.72-3.124,0.966-4.709c0.438-1.625,0.734-3.28,1.086-4.924c1.778-8.296,3.548-16.593,5.322-24.889
	c0.583-2.725,1.169-5.448,1.754-8.172c0.042-0.196,0.101-0.39,0.13-0.588c0.032-0.212,0.144-0.307,0.351-0.307
	c0.176,0,0.352-0.003,0.528-0.003c8.769,0,17.539-0.001,26.308,0.002c0.271,0,0.551-0.051,0.849,0.093
	c-0.362,1.699-0.723,3.391-1.084,5.081c-0.184,0.859-0.366,1.719-0.553,2.577c-0.134,0.612-0.137,0.617-0.79,0.618
	c-2.513,0.003-5.025,0.001-7.538,0.001c-2.99,0-5.98-0.004-8.97,0.003c-0.752,0.002-0.726-0.167-0.92,0.736
	c-0.59,2.749-1.17,5.5-1.754,8.249c-0.041,0.193-0.112,0.385-0.038,0.593c0.26,0.13,0.541,0.068,0.811,0.068
	c4.724,0.004,9.448,0.003,14.172,0.003c0.791,0,0.79,0.003,0.62,0.788c-0.489,2.257-0.968,4.516-1.471,6.77
	c-0.211,0.945-0.08,0.793-1.02,0.794c-4.674,0.007-9.347,0.003-14.021,0.003c-0.176,0-0.353,0.014-0.527-0.002
	c-0.373-0.034-0.516,0.129-0.589,0.498c-0.296,1.477-0.634,2.944-0.952,4.416c-0.466,2.157-0.93,4.314-1.42,6.59
	c2.045,0.021,4.037,0.007,6.028,0.01c2.035,0.003,4.071,0.001,6.106,0.001c2.007,0,4.015,0,6.037,0
	C502.982,354.864,502.714,355.165,502.771,355.478z"/>
<path fill-rule="evenodd" clip-rule="evenodd" fill="#1E1E1B" d="M634.11,355.465c-1.374,2.342-3.301,4.088-5.72,5.3
	c-1.352,0.678-2.762,1.198-4.226,1.57c-2.943,0.747-5.943,0.97-8.968,0.923c-4.08-0.062-8.127-0.41-12.078-1.506
	c-1.101-0.305-1.088-0.313-0.715-1.423c0.545-1.615,1.184-3.198,1.661-4.836c0.255-0.681,0.526-1.355,0.759-2.043
	c0.181-0.534,0.287-0.46,0.695-0.339c3.513,1.046,7.101,1.594,10.771,1.5c1.735-0.045,3.458-0.198,5.098-0.858
	c1.798-0.724,2.855-2.112,2.905-3.845c0.025-0.87-0.257-1.627-0.796-2.297c-0.601-0.748-1.287-1.409-2.056-1.984
	c-2.413-1.807-4.836-3.601-7.239-5.421c-1.264-0.957-2.452-2.004-3.45-3.246c-1.483-1.847-2.235-3.957-2.302-6.324
	c-0.091-3.211,0.774-6.107,2.815-8.614c1.696-2.084,3.883-3.46,6.401-4.343c2.018-0.708,4.117-0.912,6.229-0.985
	c4.521-0.155,9.046-0.067,13.569-0.081c0.098-0.001,0.195,0.022,0.328,0.038c0.027,0.495-0.144,0.94-0.238,1.392
	c-0.453,2.137-0.923,4.27-1.39,6.403c-0.163,0.744-0.168,0.744-0.917,0.747c-3.442,0.015-6.886,0.021-10.328,0.046
	c-0.98,0.007-1.962,0.073-2.905,0.367c-1.866,0.58-2.938,2.106-2.86,4.033c0.032,0.812,0.373,1.502,0.854,2.131
	c0.555,0.726,1.239,1.318,1.96,1.866c2.02,1.537,4.052,3.057,6.074,4.591c1.482,1.124,2.913,2.306,4.222,3.636
	c3.822,3.886,3.927,9.066,2.05,13.122C634.242,355.143,634.178,355.305,634.11,355.465z"/>
<path fill-rule="evenodd" clip-rule="evenodd" fill="#1E1E1B" d="M656.297,355.477c-0.434,1.599-0.708,3.233-1.079,4.847
	c-0.163,0.709-0.315,1.421-0.453,2.135c-0.054,0.28-0.139,0.454-0.472,0.452c-3.163-0.018-6.327-0.024-9.491-0.035
	c-0.022,0-0.046-0.018-0.127-0.052c0.266-1.258,0.543-2.525,0.802-3.798c0.239-1.179,0.571-2.339,0.713-3.537
	c0.436-1.494,0.694-3.028,1.021-4.547c1.747-8.099,3.482-16.199,5.207-24.302c0.096-0.449,0.462-0.997,0.144-1.347
	c-0.268-0.295-0.859-0.096-1.306-0.097c-3.343-0.007-6.686-0.004-10.028-0.004c-0.176,0-0.352,0.007-0.527-0.002
	c-0.487-0.023-0.517-0.04-0.41-0.545c0.309-1.475,0.635-2.945,0.955-4.417c0.23-1.055,0.478-2.106,0.687-3.165
	c0.066-0.338,0.209-0.486,0.55-0.456c0.149,0.013,0.301,0.002,0.452,0.002c11.083,0,22.166-0.001,33.249,0.002
	c0.271,0,0.55-0.048,0.816,0.049c0.134,0.168,0.049,0.336,0.014,0.499c-0.532,2.454-1.065,4.907-1.598,7.36
	c-0.145,0.666-0.144,0.672-0.826,0.672c-3.568,0.002-7.137,0.001-10.706,0.001c-0.176,0-0.352-0.002-0.527,0.001
	c-0.6,0.011-0.605,0.011-0.733,0.604c-0.503,2.332-1.003,4.664-1.503,6.996c-1.595,7.437-3.189,14.874-4.781,22.312
	C656.312,355.227,656.311,355.353,656.297,355.477z"/>
<path fill-rule="evenodd" clip-rule="evenodd" fill="#1E1E1B" d="M467.312,355.476c-0.395,1.324-0.604,2.69-0.912,4.034
	c-0.224,0.978-0.426,1.961-0.625,2.945c-0.064,0.316-0.193,0.46-0.549,0.459c-3.09-0.015-6.18-0.01-9.271-0.013
	c-0.073,0-0.145-0.029-0.26-0.053c0.095-0.876,0.337-1.718,0.514-2.57c0.306-1.475,0.636-2.943,0.952-4.415
	c0.026-0.121,0.02-0.249,0.029-0.373c0.382-1.276,0.602-2.59,0.883-3.889c1.758-8.12,3.499-16.245,5.245-24.369
	c0.723-3.362,1.452-6.723,2.159-10.089c0.082-0.39,0.221-0.545,0.636-0.543c3.016,0.016,6.031,0.009,9.047,0.01
	c0.124,0,0.252-0.011,0.423,0.124c-0.212,1.01-0.429,2.058-0.653,3.103c-2.198,10.235-4.397,20.47-6.598,30.704
	c-0.316,1.472-0.64,2.943-0.956,4.416C467.342,355.127,467.334,355.303,467.312,355.476z"/>
<path fill-rule="evenodd" clip-rule="evenodd" fill="#FECB00" d="M428.237,354.463c-1.081,0-2.161,0.006-3.242-0.002
	c-0.549-0.005-0.557-0.018-0.444-0.552c0.736-3.487,1.473-6.974,2.215-10.46c1.244-5.843,2.491-11.685,3.737-17.527
	c0.021-0.098,0.042-0.196,0.06-0.295c0.048-0.28,0.175-0.433,0.498-0.427c2.284,0.045,4.573-0.1,6.852,0.17
	c3.917,0.462,6.396,2.721,7.248,6.571c0.558,2.525,0.41,5.045-0.043,7.559c-0.531,2.939-1.46,5.739-3.063,8.284
	c-1.831,2.906-4.292,5.027-7.62,6.045c-1.749,0.535-3.56,0.582-5.368,0.633C428.79,354.47,428.513,354.463,428.237,354.463z"/>
<path fill-rule="evenodd" clip-rule="evenodd" fill="#FECB00" d="M593.445,334.389c-0.224,4.689-1.3,9.179-3.269,13.441
	c-0.851,1.841-2.007,3.481-3.566,4.804c-2.227,1.886-4.842,2.568-7.708,2.408c-1.238-0.068-2.437-0.334-3.536-0.939
	c-1.986-1.093-3.032-2.861-3.562-4.993c-0.529-2.128-0.531-4.285-0.239-6.437c0.437-3.218,1.213-6.358,2.423-9.379
	c0.762-1.899,1.741-3.672,3.122-5.203c2.249-2.497,5.078-3.579,8.401-3.49c1.479,0.039,2.893,0.311,4.18,1.078
	c1.896,1.131,2.869,2.896,3.371,4.968C593.358,331.872,593.447,333.125,593.445,334.389z"/>
<path fill-rule="evenodd" clip-rule="evenodd" fill="#FECB00" d="M535.184,340.131c0.083-0.835,0.313-1.654,0.489-2.481
	c0.826-3.903,1.668-7.803,2.505-11.703c0.031-0.147,0.077-0.293,0.096-0.441c0.039-0.31,0.21-0.406,0.512-0.397
	c1.856,0.052,3.716-0.095,5.57,0.12c2.538,0.294,4.219,1.787,4.612,4.326c0.358,2.317,0.024,4.57-1.224,6.604
	c-1.327,2.161-3.33,3.389-5.785,3.841c-2.186,0.402-4.407,0.226-6.615,0.217C535.3,340.215,535.257,340.171,535.184,340.131z"/>
<path fill="none" stroke="#EC008C" stroke-miterlimit="10" d="M749.552,408.46H399.47c-7.429,0-13.523-6-13.523-13.523v-107.9
	c0-7.428,6-13.523,13.523-13.523h350.082c7.428,0,13.522,6,13.522,13.523v107.996C763.074,402.46,756.98,408.46,749.552,408.46z"/>
</svg>
