<?xml version="1.0" encoding="utf-8"?>
<!-- Generator: Adobe Illustrator 16.0.4, SVG Export Plug-In . SVG Version: 6.00 Build 0)  -->
<!DOCTYPE svg PUBLIC "-//W3C//DTD SVG 1.1//EN" "http://www.w3.org/Graphics/SVG/1.1/DTD/svg11.dtd">
<svg version="1.1" id="Layer_1" xmlns="http://www.w3.org/2000/svg" xmlns:xlink="http://www.w3.org/1999/xlink" x="0px" y="0px"
	 width="268.036px" height="155.562px" viewBox="0 0 268.036 155.562" enable-background="new 0 0 268.036 155.562"
	 xml:space="preserve">
<g id="cl8kgi_1_">
	<g>
		<path d="M84.426,52.399c1.714-1.521,3.523-3.127,5.333-4.648c9.428,7.775,14.666,17.24,15.047,28.649
			c0.381,12.338-4.952,22.564-15.143,31.016c-1.81-1.606-3.523-3.126-5.237-4.732c8.38-6.761,12.951-15.043,12.951-25.1
			C97.282,67.526,92.805,59.16,84.426,52.399z"/>
		<path d="M74.52,93.979c5.524-4.395,8.571-9.804,8.571-16.396s-2.952-12-8.476-16.395c1.714-1.521,3.523-3.127,5.238-4.733
			c6.476,5.24,10.189,11.747,10.666,19.522c0.666,9.38-4.096,17.578-10.762,22.649C78.045,97.021,76.33,95.5,74.52,93.979z"/>
		<path d="M70.14,90.091c-1.905-1.69-3.715-3.296-5.619-4.986c2.666-1.943,4.095-4.479,4.095-7.606c0-3.042-1.429-5.578-4.095-7.521
			c1.904-1.69,3.714-3.296,5.619-4.902C78.045,70.822,79.378,82.992,70.14,90.091z"/>
		<path d="M57.473,81.724c-2.476,0-4.571-1.775-4.571-3.972c0-2.282,2-4.226,4.571-4.226s4.667,1.775,4.667,4.057
			S60.14,81.64,57.473,81.724z"/>
	</g>
</g>
<rect x="39.76" y="40.145" fill="none" stroke="#000000" stroke-width="0.942" stroke-miterlimit="10" width="80.949" height="75.807"/>
<path d="M197.373,97.38c-2,9.428-4,18.666-5.999,27.999c-0.763,0.19-32.095,0.19-32.856,0c0.571-3.143,1.238-6.19,2-9.428
	c7.619,0,15.143,0,22.761,0c1.048-4.762,2-9.333,3.048-14c0.952-4.667,2-9.333,3.048-14c0.476,0,0.856-0.095,1.237-0.095
	c9.238,0,18.476,0,27.714,0c1.428,0,1.143,0,1.428-1.143c1.238-5.524,2.381-11.047,3.524-16.476c0.095-0.286,0.095-0.571,0.19-0.953
	c-0.381,0-0.762,0-1.048,0c-9.333,0-18.57,0-27.903,0c-0.381,0-0.762,0-1.238-0.095c2.19-10,4.285-19.904,6.381-29.903
	c-6.762,0-13.429,0-20.19,0c-0.095,0.19-0.19,0.476-0.19,0.667c-1.999,9.428-3.999,18.761-6.095,28.189
	c-0.285,1.143,0,1.143-1.429,1.143c-2.571,0-5.237,0-7.809,0c-0.286,0-0.667,0-1.048,0c0.096-0.381,0.096-0.762,0.19-1.047
	c2-9.238,3.904-18.476,5.904-27.618c0.667-3.333,1.429-6.571,2.096-9.904c0.19-0.857,0.19-0.857,1.047-0.857
	c12.857,0,25.809,0,38.666,0c0.285,0,0.476,0,0.952,0.095c-2.096,10-4.19,19.904-6.381,29.999c10.095,0,19.999,0,30.094,0
	c0,0.286,0,0.477-0.095,0.667c-0.857,3.904-1.715,7.904-2.571,11.809c-1.715,8-3.429,15.999-5.143,23.904
	c-0.19,1.047-0.19,1.047-1.334,1.047c-9.237,0-18.476,0-27.713,0C198.23,97.38,197.849,97.38,197.373,97.38z"/>
</svg>
